G04*
G04 #@! TF.GenerationSoftware,Altium Limited,Altium Designer,23.5.1 (21)*
G04*
G04 Layer_Physical_Order=2*
G04 Layer_Color=16711680*
%FSLAX44Y44*%
%MOMM*%
G71*
G04*
G04 #@! TF.SameCoordinates,CC7C8F1B-8EDA-4CA8-81C5-A987C7989BB4*
G04*
G04*
G04 #@! TF.FilePolarity,Positive*
G04*
G01*
G75*
%ADD12C,0.6000*%
%ADD15C,1.4000*%
%ADD16R,1.4000X1.4000*%
%ADD17C,2.0500*%
%ADD18R,2.0500X2.0500*%
%ADD21R,1.2500X1.2500*%
%ADD22C,1.2500*%
%ADD23C,1.4500*%
%ADD24R,1.4500X1.4500*%
%ADD25C,4.0000*%
%ADD26R,1.4000X1.4000*%
%ADD27R,1.5500X1.5500*%
%ADD28C,1.5500*%
%ADD31C,1.2000*%
%ADD32R,1.2000X1.2000*%
%ADD33R,1.5500X1.5500*%
%ADD34C,2.0000*%
%ADD35R,2.0000X2.0000*%
%ADD38C,1.3000*%
%ADD39R,1.3000X1.3000*%
%ADD40R,1.3000X1.3000*%
%ADD41R,1.2000X1.2000*%
%ADD47C,0.4000*%
%ADD48C,1.8000*%
%ADD49R,1.8000X1.8000*%
%ADD50R,1.0500X1.0500*%
%ADD51C,1.0500*%
%ADD52R,1.5000X1.5000*%
%ADD53C,1.5000*%
%ADD54R,1.6000X1.6000*%
%ADD55C,1.6000*%
%ADD56C,0.6000*%
G36*
X1116808Y1259594D02*
X1118911Y1259030D01*
X1121089D01*
X1123034Y1259551D01*
X1237643Y1144942D01*
X1238724Y1144220D01*
X1240000Y1143966D01*
X1403714D01*
X1403728Y1143915D01*
X1404882Y1141915D01*
X1405663Y1141134D01*
X1405137Y1139864D01*
X1393030D01*
X1391754Y1139610D01*
X1390672Y1138887D01*
X1373555Y1121770D01*
X1361730D01*
Y1116834D01*
X1328270D01*
Y1121770D01*
X1311730D01*
Y1105230D01*
X1328270D01*
Y1110166D01*
X1361730D01*
Y1105230D01*
X1378270D01*
Y1117055D01*
X1394411Y1133196D01*
X1462099D01*
X1463375Y1133450D01*
X1464456Y1134173D01*
X1478060Y1147776D01*
X1479330Y1147250D01*
Y1146145D01*
X1479928Y1143915D01*
X1481082Y1141915D01*
X1482715Y1140282D01*
X1484715Y1139128D01*
X1486945Y1138530D01*
X1489255D01*
X1491485Y1139128D01*
X1493485Y1140282D01*
X1495118Y1141915D01*
X1496272Y1143915D01*
X1496286Y1143966D01*
X1510000D01*
Y1113234D01*
X1493170D01*
X1492830Y1114504D01*
X1493485Y1114882D01*
X1495118Y1116515D01*
X1496272Y1118515D01*
X1496870Y1120745D01*
Y1123055D01*
X1496272Y1125285D01*
X1495118Y1127285D01*
X1493485Y1128918D01*
X1491485Y1130072D01*
X1489255Y1130670D01*
X1486945D01*
X1484715Y1130072D01*
X1482715Y1128918D01*
X1481082Y1127285D01*
X1479928Y1125285D01*
X1479330Y1123055D01*
Y1120745D01*
X1479526Y1120015D01*
X1478387Y1119357D01*
X1473487Y1124258D01*
X1472405Y1124980D01*
X1471129Y1125234D01*
X1420086D01*
X1420072Y1125285D01*
X1418918Y1127285D01*
X1417285Y1128918D01*
X1415285Y1130072D01*
X1413055Y1130670D01*
X1412535D01*
Y1121900D01*
Y1113130D01*
X1413055D01*
X1415285Y1113728D01*
X1417285Y1114882D01*
X1418918Y1116515D01*
X1420072Y1118515D01*
X1420086Y1118566D01*
X1469748D01*
X1480772Y1107542D01*
X1481854Y1106820D01*
X1483129Y1106566D01*
X1510000D01*
Y1100000D01*
X1137415D01*
X1128270Y1109145D01*
Y1120970D01*
X1111730D01*
Y1104430D01*
X1123555D01*
X1126812Y1101173D01*
X1126326Y1100000D01*
X1074354D01*
Y1104430D01*
X1078270D01*
Y1120970D01*
X1061730D01*
Y1104430D01*
X1065646D01*
Y1100000D01*
X993334D01*
Y1107295D01*
X993620Y1107581D01*
X994270Y1109151D01*
Y1110849D01*
X993620Y1112419D01*
X992419Y1113620D01*
X990849Y1114270D01*
X989151D01*
X987581Y1113620D01*
X986380Y1112419D01*
X985730Y1110849D01*
Y1109151D01*
X986380Y1107581D01*
X986666Y1107295D01*
Y1100000D01*
X980000D01*
Y1260000D01*
X986666D01*
Y1202705D01*
X986380Y1202419D01*
X985730Y1200849D01*
Y1199151D01*
X986380Y1197581D01*
X987581Y1196380D01*
X989151Y1195730D01*
X990849D01*
X992419Y1196380D01*
X993620Y1197581D01*
X994270Y1199151D01*
Y1200849D01*
X993620Y1202419D01*
X993334Y1202705D01*
Y1260000D01*
X1016104D01*
X1016808Y1259594D01*
X1018911Y1259030D01*
X1021089D01*
X1023034Y1259551D01*
X1161730Y1120855D01*
Y1104430D01*
X1178270D01*
Y1120970D01*
X1173141D01*
X1173080Y1121276D01*
X1172357Y1122357D01*
X1171276Y1123080D01*
X1170000Y1123334D01*
X1168681D01*
X1033188Y1258827D01*
X1033674Y1260000D01*
X1066104D01*
X1066808Y1259594D01*
X1068911Y1259030D01*
X1071089D01*
X1073192Y1259594D01*
X1073896Y1260000D01*
X1116104D01*
X1116808Y1259594D01*
D02*
G37*
G36*
X1399263Y1253323D02*
X1400344Y1252600D01*
X1401620Y1252346D01*
X1485480D01*
X1486756Y1252600D01*
X1487838Y1253323D01*
X1492762Y1258247D01*
X1494878Y1257680D01*
X1497122D01*
X1499238Y1258247D01*
X1509843Y1247643D01*
X1510000Y1247537D01*
Y1243334D01*
X1502176D01*
X1500900Y1243080D01*
X1499818Y1242358D01*
X1413430Y1155969D01*
X1413055Y1156070D01*
X1410745D01*
X1408515Y1155472D01*
X1406515Y1154318D01*
X1404882Y1152685D01*
X1403728Y1150685D01*
X1403714Y1150634D01*
X1241381D01*
X1133188Y1258827D01*
X1133674Y1260000D01*
X1166104D01*
X1166808Y1259594D01*
X1168778Y1259066D01*
X1168833Y1258787D01*
X1169556Y1257705D01*
X1231518Y1195742D01*
X1232600Y1195020D01*
X1233876Y1194766D01*
X1403130D01*
Y1189330D01*
X1420670D01*
Y1206870D01*
X1403130D01*
Y1201434D01*
X1235257D01*
X1219731Y1216960D01*
X1220257Y1218230D01*
X1221089D01*
X1223192Y1218794D01*
X1225078Y1219882D01*
X1226618Y1221422D01*
X1227706Y1223308D01*
X1228270Y1225411D01*
Y1227589D01*
X1227706Y1229692D01*
X1226618Y1231578D01*
X1225078Y1233118D01*
X1223192Y1234206D01*
X1221089Y1234770D01*
X1218911D01*
X1216808Y1234206D01*
X1214922Y1233118D01*
X1213382Y1231578D01*
X1212294Y1229692D01*
X1211730Y1227589D01*
Y1226757D01*
X1210460Y1226231D01*
X1177864Y1258827D01*
X1178350Y1260000D01*
X1392585D01*
X1399263Y1253323D01*
D02*
G37*
G36*
X1510000Y1184084D02*
X1498140Y1172224D01*
X1496870Y1172750D01*
Y1173855D01*
X1496272Y1176085D01*
X1495118Y1178085D01*
X1493485Y1179718D01*
X1491485Y1180872D01*
X1489255Y1181470D01*
X1486945D01*
X1484715Y1180872D01*
X1482715Y1179718D01*
X1481082Y1178085D01*
X1479928Y1176085D01*
X1479330Y1173855D01*
Y1171545D01*
X1479928Y1169315D01*
X1481082Y1167315D01*
X1482715Y1165682D01*
X1484715Y1164528D01*
X1486945Y1163930D01*
X1488050D01*
X1488576Y1162660D01*
X1487320Y1161404D01*
X1483639D01*
X1482363Y1161150D01*
X1481281Y1160427D01*
X1460718Y1139864D01*
X1418663D01*
X1418137Y1141134D01*
X1418918Y1141915D01*
X1420072Y1143915D01*
X1420670Y1146145D01*
Y1148455D01*
X1420072Y1150685D01*
X1419158Y1152268D01*
X1503557Y1236666D01*
X1510000D01*
Y1184084D01*
D02*
G37*
G36*
Y1172995D02*
Y1150634D01*
X1496286D01*
X1496272Y1150685D01*
X1495118Y1152685D01*
X1493485Y1154318D01*
X1492201Y1155059D01*
X1491942Y1156593D01*
X1491945Y1156599D01*
X1508827Y1173481D01*
X1510000Y1172995D01*
D02*
G37*
G36*
X935239Y1087271D02*
X938508Y1085917D01*
X941450Y1083952D01*
X943952Y1081450D01*
X945917Y1078508D01*
X947271Y1075239D01*
X947961Y1071769D01*
X947961Y1070000D01*
X947961Y1070000D01*
X947961Y1070000D01*
X947961Y1050000D01*
X948116Y1049220D01*
X948558Y1048558D01*
X949220Y1048116D01*
X950000Y1047961D01*
X960000D01*
Y943334D01*
X941381D01*
X852357Y1032357D01*
X851276Y1033080D01*
X850000Y1033334D01*
X781632D01*
X780356Y1033080D01*
X779274Y1032357D01*
X760251Y1013334D01*
X753270D01*
Y1018270D01*
X736730D01*
Y1001730D01*
X753270D01*
Y1006666D01*
X761632D01*
X762908Y1006920D01*
X763989Y1007643D01*
X783013Y1026666D01*
X848619D01*
X937643Y937643D01*
X938724Y936920D01*
X940000Y936666D01*
X960000D01*
Y894354D01*
X931803D01*
X873079Y953079D01*
X871666Y954022D01*
X870000Y954354D01*
X840500D01*
X839018Y956920D01*
X836920Y959018D01*
X834350Y960502D01*
X831484Y961270D01*
X828516D01*
X825650Y960502D01*
X823080Y959018D01*
X820982Y956920D01*
X819498Y954350D01*
X818730Y951484D01*
Y948516D01*
X819497Y945654D01*
X796921Y923079D01*
X795978Y921666D01*
X795646Y920000D01*
Y888237D01*
X783883D01*
X782217Y887906D01*
X780805Y886962D01*
X772305Y878462D01*
X771155Y878770D01*
X768845D01*
X766615Y878172D01*
X764615Y877018D01*
X762982Y875385D01*
X762387Y874354D01*
X746403D01*
X702262Y918495D01*
X702570Y919645D01*
Y921955D01*
X701972Y924185D01*
X700818Y926185D01*
X699185Y927818D01*
X697185Y928972D01*
X694955Y929570D01*
X692645D01*
X690415Y928972D01*
X688415Y927818D01*
X686782Y926185D01*
X685628Y924185D01*
X685030Y921955D01*
Y919645D01*
X685338Y918495D01*
X676547Y909704D01*
X593515D01*
X591849Y909372D01*
X590436Y908428D01*
X586922Y904914D01*
X585978Y903501D01*
X585646Y901835D01*
Y820000D01*
X585978Y818334D01*
X586922Y816921D01*
X592730Y811113D01*
Y808887D01*
X578197Y794354D01*
X541803D01*
X534600Y801557D01*
X535086Y802730D01*
X547270D01*
Y817270D01*
X537445D01*
X533334Y821381D01*
Y976276D01*
X533724Y976666D01*
X588619D01*
X637643Y927643D01*
X638724Y926920D01*
X640000Y926666D01*
X659242D01*
X659983Y925383D01*
X661383Y923982D01*
X663097Y922992D01*
X665010Y922480D01*
X666990D01*
X668903Y922992D01*
X670617Y923982D01*
X672018Y925383D01*
X673008Y927097D01*
X673520Y929010D01*
Y930990D01*
X673008Y932903D01*
X672018Y934617D01*
X670960Y935675D01*
Y940009D01*
X683857Y952906D01*
X685030Y952420D01*
Y937430D01*
X702570D01*
Y954970D01*
X687580D01*
X687094Y956143D01*
X709442Y978491D01*
X751825D01*
X753101Y978745D01*
X754183Y979468D01*
X776966Y1002251D01*
X778911Y1001730D01*
X781089D01*
X783192Y1002294D01*
X785078Y1003382D01*
X786618Y1004922D01*
X787706Y1006808D01*
X788270Y1008911D01*
Y1011089D01*
X787706Y1013192D01*
X786618Y1015078D01*
X785078Y1016618D01*
X783192Y1017706D01*
X781089Y1018270D01*
X778911D01*
X776808Y1017706D01*
X774922Y1016618D01*
X773382Y1015078D01*
X772294Y1013192D01*
X771730Y1011089D01*
Y1008911D01*
X772251Y1006966D01*
X750444Y985159D01*
X708061D01*
X706785Y984905D01*
X705704Y984183D01*
X665269Y943748D01*
X664546Y942666D01*
X664292Y941390D01*
Y937328D01*
X663097Y937008D01*
X661383Y936018D01*
X659983Y934617D01*
X659242Y933334D01*
X641381D01*
X592358Y982357D01*
X591276Y983080D01*
X590000Y983334D01*
X532343D01*
X531067Y983080D01*
X529986Y982357D01*
X527643Y980014D01*
X526920Y978933D01*
X526666Y977657D01*
Y820000D01*
X526920Y818724D01*
X527643Y817643D01*
X532730Y812555D01*
Y805086D01*
X531557Y804600D01*
X527237Y808920D01*
X527270Y809043D01*
Y810957D01*
X526774Y812806D01*
X525817Y814464D01*
X524464Y815817D01*
X522806Y816775D01*
X520957Y817270D01*
X519043D01*
X517963Y816981D01*
X514354Y820590D01*
Y978197D01*
X543078Y1006921D01*
X544022Y1008334D01*
X544149Y1008972D01*
X544579Y1009259D01*
X545522Y1010671D01*
X545854Y1012337D01*
Y1012730D01*
X547270D01*
Y1021113D01*
X571803Y1045646D01*
X638197D01*
X655400Y1028443D01*
X654914Y1027270D01*
X650635D01*
Y1020635D01*
X657270D01*
Y1024914D01*
X658443Y1025400D01*
X662763Y1021080D01*
X662730Y1020957D01*
Y1019043D01*
X663225Y1017194D01*
X664183Y1015536D01*
X665536Y1014183D01*
X667194Y1013225D01*
X669043Y1012730D01*
X670957D01*
X672806Y1013225D01*
X674464Y1014183D01*
X675817Y1015536D01*
X676775Y1017194D01*
X677270Y1019043D01*
Y1020957D01*
X676775Y1022806D01*
X675817Y1024464D01*
X674464Y1025817D01*
X672806Y1026775D01*
X670957Y1027270D01*
X669043D01*
X668920Y1027237D01*
X643079Y1053079D01*
X641666Y1054022D01*
X640000Y1054354D01*
X570000D01*
X568334Y1054022D01*
X566922Y1053079D01*
X541113Y1027270D01*
X532730D01*
Y1024354D01*
X434650D01*
X432984Y1024022D01*
X431572Y1023079D01*
X419180Y1010687D01*
X419097Y1010735D01*
X416167Y1011520D01*
X413133D01*
X410204Y1010735D01*
X407577Y1009218D01*
X405432Y1007073D01*
X403915Y1004447D01*
X403130Y1001517D01*
Y998483D01*
X403915Y995554D01*
X405432Y992927D01*
X407577Y990782D01*
X410204Y989265D01*
X413133Y988480D01*
X416167D01*
X419097Y989265D01*
X421724Y990782D01*
X423868Y992927D01*
X425385Y995554D01*
X426170Y998483D01*
Y1001517D01*
X425385Y1004447D01*
X425337Y1004530D01*
X436453Y1015646D01*
X532730D01*
Y1012730D01*
X534818D01*
X535303Y1011460D01*
X506922Y983079D01*
X505978Y981666D01*
X505646Y980000D01*
Y824354D01*
X449270D01*
Y829270D01*
X430730D01*
Y810730D01*
X449270D01*
Y815646D01*
X506983D01*
X512730Y809900D01*
Y809043D01*
X513225Y807194D01*
X514183Y805536D01*
X515536Y804183D01*
X517194Y803225D01*
X519043Y802730D01*
X520957D01*
X521080Y802763D01*
X536922Y786921D01*
X538334Y785978D01*
X540000Y785646D01*
X580000D01*
X581666Y785978D01*
X583078Y786921D01*
X598887Y802730D01*
X607270D01*
Y817270D01*
X598887D01*
X594354Y821803D01*
Y900032D01*
X595318Y900996D01*
X678350D01*
X680016Y901328D01*
X681429Y902271D01*
X691495Y912338D01*
X692645Y912030D01*
X694955D01*
X696105Y912338D01*
X741522Y866921D01*
X742934Y865978D01*
X744600Y865646D01*
X762387D01*
X762982Y864615D01*
X764615Y862982D01*
X766615Y861828D01*
X768845Y861230D01*
X771155D01*
X773385Y861828D01*
X775385Y862982D01*
X777018Y864615D01*
X778172Y866615D01*
X778770Y868845D01*
Y871155D01*
X778462Y872305D01*
X785687Y879530D01*
X795646D01*
Y830000D01*
X795978Y828334D01*
X796921Y826921D01*
X819497Y804346D01*
X818730Y801484D01*
Y798516D01*
X819498Y795650D01*
X820982Y793080D01*
X823080Y790982D01*
X825650Y789498D01*
X828516Y788730D01*
X831484D01*
X834350Y789498D01*
X836920Y790982D01*
X839018Y793080D01*
X840502Y795650D01*
X841270Y798516D01*
Y801484D01*
X840502Y804350D01*
X839018Y806920D01*
X836920Y809018D01*
X834350Y810502D01*
X831484Y811270D01*
X828516D01*
X825654Y810503D01*
X804354Y831803D01*
Y883883D01*
Y918197D01*
X825654Y939497D01*
X828516Y938730D01*
X831484D01*
X834350Y939498D01*
X836920Y940982D01*
X839018Y943080D01*
X840500Y945646D01*
X868197D01*
X926921Y886921D01*
X928334Y885978D01*
X930000Y885646D01*
X960000D01*
Y782039D01*
X950000D01*
X949220Y781884D01*
X948558Y781442D01*
X948116Y780780D01*
X947961Y780000D01*
Y760000D01*
X947961Y758231D01*
X947271Y754761D01*
X945917Y751492D01*
X943951Y748550D01*
X941450Y746049D01*
X938508Y744083D01*
X935239Y742729D01*
X931769Y742039D01*
X930000Y742039D01*
X370000Y742039D01*
X368231Y742039D01*
X364761Y742729D01*
X361492Y744083D01*
X358550Y746049D01*
X356049Y748550D01*
X354083Y751492D01*
X352729Y754761D01*
X352039Y758231D01*
X352039Y760000D01*
X352039Y847961D01*
X470000D01*
X470780Y848116D01*
X471442Y848558D01*
X471884Y849220D01*
X472039Y850000D01*
Y970000D01*
X471884Y970780D01*
X471442Y971442D01*
X470780Y971884D01*
X470000Y972039D01*
X352039D01*
X352039Y1070000D01*
X352039Y1071769D01*
X352729Y1075239D01*
X354083Y1078508D01*
X356049Y1081449D01*
X358550Y1083951D01*
X361492Y1085917D01*
X364761Y1087271D01*
X368231Y1087961D01*
X370000Y1087961D01*
X930000Y1087961D01*
X930000Y1087961D01*
X930000Y1087961D01*
X931769Y1087961D01*
X935239Y1087271D01*
D02*
G37*
G36*
X1560000Y1003334D02*
X1550000D01*
X1548724Y1003080D01*
X1547643Y1002357D01*
X1541531Y996246D01*
X1541485Y996272D01*
X1540054Y996656D01*
X1539674Y998072D01*
X1540457Y998856D01*
X1541180Y999937D01*
X1541434Y1001213D01*
Y1020000D01*
X1560000D01*
Y1003334D01*
D02*
G37*
G36*
X1055970Y1088827D02*
X1051352Y1084209D01*
X1039574D01*
X1037908Y1083878D01*
X1036496Y1082934D01*
X1019651Y1066090D01*
X1018708Y1064677D01*
X1018376Y1063011D01*
Y1027809D01*
X1018708Y1026143D01*
X1019651Y1024730D01*
X1050688Y993693D01*
X1050202Y992520D01*
X1039480D01*
Y977480D01*
X1053166D01*
Y959042D01*
X1006921Y912797D01*
X1005978Y911385D01*
X1005646Y909719D01*
Y894354D01*
X980000D01*
Y936666D01*
X1007295D01*
X1007581Y936380D01*
X1009151Y935730D01*
X1010849D01*
X1012419Y936380D01*
X1013620Y937581D01*
X1014270Y939151D01*
Y940849D01*
X1013620Y942419D01*
X1013334Y942705D01*
Y980000D01*
X1013080Y981276D01*
X1012358Y982357D01*
X993334Y1001381D01*
Y1090000D01*
X1055484D01*
X1055970Y1088827D01*
D02*
G37*
G36*
X1459366Y1012700D02*
X1459620Y1011424D01*
X1460343Y1010342D01*
X1529954Y940731D01*
X1529928Y940685D01*
X1529330Y938455D01*
Y936145D01*
X1529928Y933915D01*
X1531082Y931915D01*
X1532715Y930282D01*
X1534715Y929128D01*
X1536945Y928530D01*
X1539255D01*
X1541485Y929128D01*
X1541531Y929154D01*
X1560000Y910685D01*
Y796374D01*
X1558827Y795888D01*
X1555058Y799658D01*
X1553976Y800380D01*
X1552700Y800634D01*
X1546286D01*
X1546272Y800685D01*
X1545118Y802685D01*
X1543485Y804318D01*
X1541485Y805472D01*
X1541434Y805486D01*
Y814514D01*
X1541485Y814528D01*
X1543485Y815682D01*
X1545118Y817315D01*
X1546272Y819315D01*
X1546870Y821545D01*
Y823855D01*
X1546272Y826085D01*
X1545118Y828085D01*
X1543485Y829718D01*
X1541485Y830872D01*
X1539255Y831470D01*
X1536945D01*
X1534715Y830872D01*
X1532715Y829718D01*
X1531082Y828085D01*
X1529928Y826085D01*
X1529330Y823855D01*
Y821545D01*
X1529928Y819315D01*
X1531082Y817315D01*
X1532715Y815682D01*
X1534715Y814528D01*
X1534766Y814514D01*
Y805486D01*
X1534715Y805472D01*
X1532715Y804318D01*
X1531082Y802685D01*
X1529928Y800685D01*
X1529330Y798455D01*
Y796145D01*
X1529928Y793915D01*
X1531082Y791915D01*
X1532715Y790282D01*
X1534715Y789128D01*
X1536945Y788530D01*
X1539255D01*
X1541485Y789128D01*
X1543485Y790282D01*
X1545118Y791915D01*
X1546272Y793915D01*
X1546286Y793966D01*
X1551319D01*
X1560000Y785285D01*
Y740000D01*
X1453334D01*
Y749950D01*
X1453234Y750453D01*
Y766830D01*
X1454504Y767170D01*
X1454882Y766515D01*
X1456515Y764882D01*
X1458515Y763728D01*
X1460745Y763130D01*
X1461265D01*
Y771900D01*
Y780670D01*
X1460745D01*
X1458515Y780072D01*
X1456515Y778918D01*
X1454882Y777285D01*
X1454845Y777221D01*
X1453704Y777784D01*
X1454270Y779151D01*
Y780849D01*
X1453620Y782419D01*
X1452419Y783620D01*
X1450849Y784270D01*
X1449151D01*
X1447581Y783620D01*
X1447295Y783334D01*
X1440000D01*
Y910685D01*
X1458469Y929154D01*
X1458515Y929128D01*
X1460745Y928530D01*
X1463055D01*
X1465285Y929128D01*
X1467285Y930282D01*
X1468918Y931915D01*
X1470072Y933915D01*
X1470670Y936145D01*
Y938455D01*
X1470072Y940685D01*
X1468918Y942685D01*
X1467285Y944318D01*
X1465285Y945472D01*
X1463055Y946070D01*
X1460745D01*
X1458515Y945472D01*
X1456515Y944318D01*
X1454882Y942685D01*
X1453728Y940685D01*
X1453130Y938455D01*
Y936145D01*
X1453728Y933915D01*
X1453754Y933869D01*
X1441173Y921288D01*
X1440000Y921774D01*
Y1020000D01*
X1459366D01*
Y1012700D01*
D02*
G37*
G36*
X1534766Y1002594D02*
X1534376Y1002204D01*
X1533639D01*
X1532363Y1001950D01*
X1531281Y1001228D01*
X1524973Y994919D01*
X1524250Y993837D01*
X1523996Y992561D01*
Y983639D01*
X1524250Y982363D01*
X1524973Y981281D01*
X1531281Y974972D01*
X1532363Y974250D01*
X1533639Y973996D01*
X1534376D01*
X1534766Y973606D01*
Y970886D01*
X1534715Y970872D01*
X1532715Y969718D01*
X1531082Y968085D01*
X1529928Y966085D01*
X1529330Y963855D01*
Y961545D01*
X1529928Y959315D01*
X1531082Y957315D01*
X1532715Y955682D01*
X1534715Y954528D01*
X1536945Y953930D01*
X1539255D01*
X1541485Y954528D01*
X1543485Y955682D01*
X1545118Y957315D01*
X1546272Y959315D01*
X1546870Y961545D01*
Y963855D01*
X1546272Y966085D01*
X1545118Y968085D01*
X1543485Y969718D01*
X1541485Y970872D01*
X1541434Y970886D01*
Y974987D01*
X1541180Y976263D01*
X1540457Y977344D01*
X1539674Y978128D01*
X1540054Y979544D01*
X1541485Y979928D01*
X1543485Y981082D01*
X1545118Y982715D01*
X1546272Y984715D01*
X1546870Y986945D01*
Y989255D01*
X1546272Y991485D01*
X1546246Y991531D01*
X1551381Y996666D01*
X1560000D01*
Y921774D01*
X1558827Y921288D01*
X1546246Y933869D01*
X1546272Y933915D01*
X1546870Y936145D01*
Y938455D01*
X1546272Y940685D01*
X1545118Y942685D01*
X1543485Y944318D01*
X1541485Y945472D01*
X1539255Y946070D01*
X1536945D01*
X1534715Y945472D01*
X1534669Y945446D01*
X1466034Y1014081D01*
Y1020000D01*
X1534766D01*
Y1002594D01*
D02*
G37*
G36*
X1029151Y1055730D02*
X1029555D01*
X1065901Y1019384D01*
Y968065D01*
X1066154Y966789D01*
X1066877Y965708D01*
X1102251Y930334D01*
X1101730Y928389D01*
Y926211D01*
X1102294Y924108D01*
X1103382Y922222D01*
X1104922Y920682D01*
X1106808Y919594D01*
X1108911Y919030D01*
X1111089D01*
X1113192Y919594D01*
X1115078Y920682D01*
X1116618Y922222D01*
X1117624Y923966D01*
X1142356D01*
X1152879Y913443D01*
X1153961Y912720D01*
X1155237Y912466D01*
X1205030D01*
Y902030D01*
X1217855D01*
X1256666Y863219D01*
Y841381D01*
X1191319Y776034D01*
X1168270D01*
Y780970D01*
X1151730D01*
Y764534D01*
X1118270D01*
Y780970D01*
X1106445D01*
X1063334Y824081D01*
Y919676D01*
X1065078Y920682D01*
X1066618Y922222D01*
X1067706Y924108D01*
X1068270Y926211D01*
Y928389D01*
X1067706Y930492D01*
X1066618Y932378D01*
X1065078Y933918D01*
X1063192Y935006D01*
X1061089Y935570D01*
X1058911D01*
X1056808Y935006D01*
X1054922Y933918D01*
X1053382Y932378D01*
X1052294Y930492D01*
X1051730Y928389D01*
Y926211D01*
X1052294Y924108D01*
X1053382Y922222D01*
X1054922Y920682D01*
X1056666Y919676D01*
Y822700D01*
X1056920Y821424D01*
X1057643Y820342D01*
X1101730Y776255D01*
Y766980D01*
X1100557Y766494D01*
X1096994Y770058D01*
X1095912Y770780D01*
X1094636Y771034D01*
X1068270D01*
Y780970D01*
X1051730D01*
Y764430D01*
X1064678D01*
X1065000Y764366D01*
X1093255D01*
X1098779Y758842D01*
X1099860Y758120D01*
X1101136Y757866D01*
X1366200D01*
X1367476Y758120D01*
X1368557Y758842D01*
X1380396Y770681D01*
X1381666Y770155D01*
Y740000D01*
X984354D01*
Y858197D01*
X1013079Y886921D01*
X1013317Y887278D01*
X1013620Y887581D01*
X1013784Y887977D01*
X1014022Y888334D01*
X1014106Y888755D01*
X1014270Y889151D01*
Y889579D01*
X1014354Y890000D01*
Y907915D01*
X1060599Y954160D01*
X1061542Y955573D01*
X1061874Y957239D01*
Y993019D01*
X1061542Y994685D01*
X1060599Y996097D01*
X1027084Y1029612D01*
Y1055218D01*
X1028354Y1056060D01*
X1029151Y1055730D01*
D02*
G37*
G36*
X1446566Y750050D02*
X1446666Y749547D01*
Y740000D01*
X1440000D01*
Y776666D01*
X1446566D01*
Y750050D01*
D02*
G37*
G36*
X1880000Y540000D02*
X1793334D01*
Y678619D01*
X1807783Y693068D01*
X1809043Y692730D01*
X1810957D01*
X1812806Y693225D01*
X1814464Y694183D01*
X1815818Y695536D01*
X1816775Y697194D01*
X1817270Y699043D01*
Y700957D01*
X1816775Y702806D01*
X1815818Y704464D01*
X1814464Y705817D01*
X1812806Y706775D01*
X1810957Y707270D01*
X1809043D01*
X1807194Y706775D01*
X1805536Y705817D01*
X1804183Y704464D01*
X1803226Y702806D01*
X1802730Y700957D01*
Y699043D01*
X1803068Y697783D01*
X1787643Y682357D01*
X1786920Y681276D01*
X1786666Y680000D01*
Y540000D01*
X1660000D01*
Y518270D01*
X1655230D01*
Y501730D01*
X1660000D01*
Y463334D01*
X1101381D01*
X1082357Y482357D01*
X1081276Y483080D01*
X1080000Y483334D01*
X1050324D01*
X1049318Y485078D01*
X1047778Y486618D01*
X1045892Y487706D01*
X1043789Y488270D01*
X1041611D01*
X1039508Y487706D01*
X1037622Y486618D01*
X1036082Y485078D01*
X1034994Y483192D01*
X1034430Y481089D01*
Y478911D01*
X1034994Y476808D01*
X1036082Y474922D01*
X1037622Y473382D01*
X1039508Y472294D01*
X1041611Y471730D01*
X1043789D01*
X1045892Y472294D01*
X1047778Y473382D01*
X1049318Y474922D01*
X1050324Y476666D01*
X1078619D01*
X1097643Y457642D01*
X1098724Y456920D01*
X1100000Y456666D01*
X1660000D01*
Y440000D01*
X980000D01*
Y581384D01*
X981173Y581870D01*
X1003438Y559605D01*
X1003130Y558455D01*
Y556145D01*
X1003728Y553915D01*
X1004882Y551915D01*
X1006515Y550282D01*
X1008515Y549128D01*
X1010745Y548530D01*
X1013055D01*
X1014205Y548838D01*
X1034221Y528821D01*
X1035634Y527878D01*
X1037300Y527546D01*
X1080487D01*
X1081082Y526515D01*
X1082715Y524882D01*
X1084715Y523728D01*
X1086945Y523130D01*
X1089255D01*
X1090405Y523438D01*
X1136921Y476922D01*
X1138334Y475978D01*
X1140000Y475646D01*
X1189030D01*
Y471730D01*
X1205570D01*
Y485720D01*
X1206743Y486206D01*
X1215306Y477643D01*
X1216388Y476920D01*
X1217664Y476666D01*
X1247776D01*
X1248782Y474922D01*
X1250322Y473382D01*
X1252208Y472294D01*
X1254311Y471730D01*
X1256489D01*
X1258592Y472294D01*
X1260478Y473382D01*
X1262018Y474922D01*
X1263106Y476808D01*
X1263670Y478911D01*
Y481089D01*
X1263106Y483192D01*
X1262018Y485078D01*
X1260478Y486618D01*
X1258592Y487706D01*
X1256489Y488270D01*
X1254311D01*
X1252208Y487706D01*
X1250322Y486618D01*
X1248782Y485078D01*
X1247776Y483334D01*
X1219045D01*
X1142721Y559658D01*
X1141640Y560380D01*
X1140364Y560634D01*
X1096286D01*
X1096272Y560685D01*
X1095118Y562685D01*
X1093485Y564318D01*
X1091485Y565472D01*
X1089255Y566070D01*
X1086945D01*
X1084715Y565472D01*
X1082715Y564318D01*
X1081082Y562685D01*
X1079928Y560685D01*
X1079330Y558455D01*
Y556145D01*
X1079928Y553915D01*
X1081082Y551915D01*
X1082715Y550282D01*
X1084715Y549128D01*
X1086945Y548530D01*
X1089255D01*
X1091485Y549128D01*
X1093485Y550282D01*
X1095118Y551915D01*
X1096272Y553915D01*
X1096286Y553966D01*
X1138983D01*
X1203506Y489443D01*
X1203020Y488270D01*
X1189030D01*
Y484354D01*
X1141803D01*
X1096562Y529595D01*
X1096870Y530745D01*
Y533055D01*
X1096272Y535285D01*
X1095118Y537285D01*
X1093485Y538918D01*
X1091485Y540072D01*
X1089255Y540670D01*
X1086945D01*
X1084715Y540072D01*
X1082715Y538918D01*
X1081082Y537285D01*
X1080487Y536254D01*
X1039103D01*
X1020362Y554995D01*
X1020670Y556145D01*
Y558455D01*
X1020072Y560685D01*
X1018918Y562685D01*
X1017285Y564318D01*
X1015285Y565472D01*
X1013055Y566070D01*
X1010745D01*
X1009595Y565762D01*
X984354Y591003D01*
Y730000D01*
X1385285D01*
X1395730Y719555D01*
Y719151D01*
X1396380Y717581D01*
X1397581Y716380D01*
X1399151Y715730D01*
X1400849D01*
X1402419Y716380D01*
X1403620Y717581D01*
X1404270Y719151D01*
Y720849D01*
X1403620Y722419D01*
X1402419Y723620D01*
X1400849Y724270D01*
X1400445D01*
X1395888Y728827D01*
X1396374Y730000D01*
X1424678D01*
X1457036Y697643D01*
X1458118Y696920D01*
X1459393Y696666D01*
X1487295D01*
X1487581Y696380D01*
X1489151Y695730D01*
X1490849D01*
X1492419Y696380D01*
X1493620Y697581D01*
X1494270Y699151D01*
Y700849D01*
X1493620Y702419D01*
X1492419Y703620D01*
X1490849Y704270D01*
X1489151D01*
X1487581Y703620D01*
X1487295Y703334D01*
X1460774D01*
X1449648Y714460D01*
X1450175Y715730D01*
X1450849D01*
X1452419Y716380D01*
X1453620Y717581D01*
X1454270Y719151D01*
Y720849D01*
X1453620Y722419D01*
X1453334Y722705D01*
Y730000D01*
X1615285D01*
X1623966Y721319D01*
Y491381D01*
X1620855Y488270D01*
X1609030D01*
Y471730D01*
X1625570D01*
Y483555D01*
X1629657Y487643D01*
X1630380Y488724D01*
X1630634Y490000D01*
Y722700D01*
X1630380Y723976D01*
X1629657Y725058D01*
X1625888Y728827D01*
X1626374Y730000D01*
X1650000D01*
Y996666D01*
X1657295D01*
X1657581Y996380D01*
X1659151Y995730D01*
X1660849D01*
X1662419Y996380D01*
X1663620Y997581D01*
X1664270Y999151D01*
Y1000849D01*
X1663620Y1002419D01*
X1662419Y1003620D01*
X1660849Y1004270D01*
X1659151D01*
X1657581Y1003620D01*
X1657295Y1003334D01*
X1650000D01*
Y1286666D01*
X1808619D01*
X1823386Y1271899D01*
X1823508Y1271392D01*
X1825180Y1267354D01*
X1827464Y1263627D01*
X1830303Y1260303D01*
X1833627Y1257464D01*
X1837354Y1255180D01*
X1841392Y1253508D01*
X1841899Y1253386D01*
X1866666Y1228619D01*
Y721381D01*
X1812217Y666932D01*
X1810957Y667270D01*
X1809043D01*
X1807194Y666775D01*
X1805536Y665817D01*
X1804183Y664464D01*
X1803226Y662806D01*
X1802730Y660957D01*
Y659043D01*
X1803226Y657194D01*
X1804183Y655536D01*
X1805536Y654183D01*
X1807194Y653225D01*
X1809043Y652730D01*
X1810957D01*
X1812806Y653225D01*
X1814464Y654183D01*
X1815818Y655536D01*
X1816775Y657194D01*
X1817270Y659043D01*
Y660957D01*
X1816932Y662217D01*
X1872357Y717643D01*
X1873080Y718724D01*
X1873334Y720000D01*
Y1230000D01*
X1873080Y1231276D01*
X1872357Y1232357D01*
X1848485Y1256230D01*
X1849011Y1257500D01*
X1852216D01*
X1856563Y1258365D01*
X1860658Y1260061D01*
X1864343Y1262523D01*
X1867477Y1265657D01*
X1869939Y1269342D01*
X1871635Y1273437D01*
X1872500Y1277784D01*
Y1282216D01*
X1871635Y1286563D01*
X1869939Y1290658D01*
X1867477Y1294343D01*
X1864343Y1297477D01*
X1860658Y1299939D01*
X1856563Y1301635D01*
X1852216Y1302500D01*
X1847784D01*
X1843437Y1301635D01*
X1839342Y1299939D01*
X1835657Y1297477D01*
X1832523Y1294343D01*
X1830061Y1290658D01*
X1828365Y1286563D01*
X1827500Y1282216D01*
Y1279011D01*
X1826230Y1278485D01*
X1812357Y1292357D01*
X1811276Y1293080D01*
X1810000Y1293334D01*
X1650000D01*
Y1310000D01*
X1880000D01*
Y540000D01*
D02*
G37*
%LPC*%
G36*
X1411265Y1130670D02*
X1410745D01*
X1408515Y1130072D01*
X1406515Y1128918D01*
X1404882Y1127285D01*
X1403728Y1125285D01*
X1403130Y1123055D01*
Y1122535D01*
X1411265D01*
Y1130670D01*
D02*
G37*
G36*
X1278270Y1121770D02*
X1270635D01*
Y1114135D01*
X1278270D01*
Y1121770D01*
D02*
G37*
G36*
X1228270D02*
X1220635D01*
Y1114135D01*
X1228270D01*
Y1121770D01*
D02*
G37*
G36*
X1269365D02*
X1261730D01*
Y1114135D01*
X1269365D01*
Y1121770D01*
D02*
G37*
G36*
X1219365D02*
X1211730D01*
Y1114135D01*
X1219365D01*
Y1121770D01*
D02*
G37*
G36*
X1411265Y1121265D02*
X1403130D01*
Y1120745D01*
X1403728Y1118515D01*
X1404882Y1116515D01*
X1406515Y1114882D01*
X1408515Y1113728D01*
X1410745Y1113130D01*
X1411265D01*
Y1121265D01*
D02*
G37*
G36*
X1278270Y1112865D02*
X1270635D01*
Y1105230D01*
X1278270D01*
Y1112865D01*
D02*
G37*
G36*
X1269365D02*
X1261730D01*
Y1105230D01*
X1269365D01*
Y1112865D01*
D02*
G37*
G36*
X1228270D02*
X1220635D01*
Y1105230D01*
X1228270D01*
Y1112865D01*
D02*
G37*
G36*
X1219365D02*
X1211730D01*
Y1105230D01*
X1219365D01*
Y1112865D01*
D02*
G37*
G36*
X1028270Y1120970D02*
X1011730D01*
Y1104430D01*
X1028270D01*
Y1120970D01*
D02*
G37*
G36*
X1371089Y1234770D02*
X1368911D01*
X1366808Y1234206D01*
X1364922Y1233118D01*
X1363382Y1231578D01*
X1362294Y1229692D01*
X1361730Y1227589D01*
Y1225411D01*
X1362294Y1223308D01*
X1363382Y1221422D01*
X1364922Y1219882D01*
X1366808Y1218794D01*
X1368911Y1218230D01*
X1371089D01*
X1373192Y1218794D01*
X1375078Y1219882D01*
X1376618Y1221422D01*
X1377706Y1223308D01*
X1378270Y1225411D01*
Y1227589D01*
X1377706Y1229692D01*
X1376618Y1231578D01*
X1375078Y1233118D01*
X1373192Y1234206D01*
X1371089Y1234770D01*
D02*
G37*
G36*
X1321089D02*
X1318911D01*
X1316808Y1234206D01*
X1314922Y1233118D01*
X1313382Y1231578D01*
X1312294Y1229692D01*
X1311730Y1227589D01*
Y1225411D01*
X1312294Y1223308D01*
X1313382Y1221422D01*
X1314922Y1219882D01*
X1316808Y1218794D01*
X1318911Y1218230D01*
X1321089D01*
X1323192Y1218794D01*
X1325078Y1219882D01*
X1326618Y1221422D01*
X1327706Y1223308D01*
X1328270Y1225411D01*
Y1227589D01*
X1327706Y1229692D01*
X1326618Y1231578D01*
X1325078Y1233118D01*
X1323192Y1234206D01*
X1321089Y1234770D01*
D02*
G37*
G36*
X1271089D02*
X1268911D01*
X1266808Y1234206D01*
X1264922Y1233118D01*
X1263382Y1231578D01*
X1262294Y1229692D01*
X1261730Y1227589D01*
Y1225411D01*
X1262294Y1223308D01*
X1263382Y1221422D01*
X1264922Y1219882D01*
X1266808Y1218794D01*
X1268911Y1218230D01*
X1271089D01*
X1273192Y1218794D01*
X1275078Y1219882D01*
X1276618Y1221422D01*
X1277706Y1223308D01*
X1278270Y1225411D01*
Y1227589D01*
X1277706Y1229692D01*
X1276618Y1231578D01*
X1275078Y1233118D01*
X1273192Y1234206D01*
X1271089Y1234770D01*
D02*
G37*
G36*
X1413055Y1181470D02*
X1410745D01*
X1408515Y1180872D01*
X1406515Y1179718D01*
X1404882Y1178085D01*
X1403728Y1176085D01*
X1403130Y1173855D01*
Y1171545D01*
X1403728Y1169315D01*
X1404882Y1167315D01*
X1406515Y1165682D01*
X1408515Y1164528D01*
X1410745Y1163930D01*
X1413055D01*
X1415285Y1164528D01*
X1417285Y1165682D01*
X1418918Y1167315D01*
X1420072Y1169315D01*
X1420670Y1171545D01*
Y1173855D01*
X1420072Y1176085D01*
X1418918Y1178085D01*
X1417285Y1179718D01*
X1415285Y1180872D01*
X1413055Y1181470D01*
D02*
G37*
G36*
X1489255Y1206870D02*
X1486945D01*
X1484715Y1206272D01*
X1482715Y1205118D01*
X1481082Y1203485D01*
X1479928Y1201485D01*
X1479330Y1199255D01*
Y1196945D01*
X1479928Y1194715D01*
X1481082Y1192715D01*
X1482715Y1191082D01*
X1484715Y1189928D01*
X1486945Y1189330D01*
X1489255D01*
X1491485Y1189928D01*
X1493485Y1191082D01*
X1495118Y1192715D01*
X1496272Y1194715D01*
X1496870Y1196945D01*
Y1199255D01*
X1496272Y1201485D01*
X1495118Y1203485D01*
X1493485Y1205118D01*
X1491485Y1206272D01*
X1489255Y1206870D01*
D02*
G37*
G36*
X922216Y1082500D02*
X917784D01*
X913437Y1081635D01*
X909342Y1079939D01*
X905657Y1077477D01*
X902523Y1074343D01*
X900061Y1070658D01*
X898365Y1066563D01*
X897500Y1062216D01*
Y1057784D01*
X898365Y1053437D01*
X900061Y1049342D01*
X902523Y1045657D01*
X905657Y1042523D01*
X909342Y1040061D01*
X913437Y1038365D01*
X917784Y1037500D01*
X922216D01*
X926563Y1038365D01*
X930658Y1040061D01*
X934343Y1042523D01*
X937477Y1045657D01*
X939939Y1049342D01*
X941635Y1053437D01*
X942500Y1057784D01*
Y1062216D01*
X941635Y1066563D01*
X939939Y1070658D01*
X937477Y1074343D01*
X934343Y1077477D01*
X930658Y1079939D01*
X926563Y1081635D01*
X922216Y1082500D01*
D02*
G37*
G36*
X502216D02*
X497784D01*
X493437Y1081635D01*
X489342Y1079939D01*
X485657Y1077477D01*
X482523Y1074343D01*
X480061Y1070658D01*
X478365Y1066563D01*
X477500Y1062216D01*
Y1057784D01*
X478365Y1053437D01*
X480061Y1049342D01*
X482523Y1045657D01*
X485657Y1042523D01*
X489342Y1040061D01*
X493437Y1038365D01*
X497784Y1037500D01*
X502216D01*
X506563Y1038365D01*
X510658Y1040061D01*
X514343Y1042523D01*
X517477Y1045657D01*
X519939Y1049342D01*
X521635Y1053437D01*
X522500Y1057784D01*
Y1062216D01*
X521635Y1066563D01*
X519939Y1070658D01*
X517477Y1074343D01*
X514343Y1077477D01*
X510658Y1079939D01*
X506563Y1081635D01*
X502216Y1082500D01*
D02*
G37*
G36*
X649365Y1027270D02*
X642730D01*
Y1020635D01*
X649365D01*
Y1027270D01*
D02*
G37*
G36*
X657270Y1019365D02*
X650635D01*
Y1012730D01*
X657270D01*
Y1019365D01*
D02*
G37*
G36*
X649365D02*
X642730D01*
Y1012730D01*
X649365D01*
Y1019365D01*
D02*
G37*
G36*
X560957Y1027270D02*
X559043D01*
X557194Y1026775D01*
X555536Y1025817D01*
X554183Y1024464D01*
X553225Y1022806D01*
X552730Y1020957D01*
Y1019043D01*
X553225Y1017194D01*
X554183Y1015536D01*
X555536Y1014183D01*
X557194Y1013225D01*
X559043Y1012730D01*
X560957D01*
X562806Y1013225D01*
X564464Y1014183D01*
X565817Y1015536D01*
X566775Y1017194D01*
X567270Y1019043D01*
Y1020957D01*
X566775Y1022806D01*
X565817Y1024464D01*
X564464Y1025817D01*
X562806Y1026775D01*
X560957Y1027270D01*
D02*
G37*
G36*
X841270Y1012270D02*
X818730D01*
Y989730D01*
X841270D01*
Y1012270D01*
D02*
G37*
G36*
X441517Y1011520D02*
X438483D01*
X435554Y1010735D01*
X432927Y1009218D01*
X430782Y1007073D01*
X429265Y1004447D01*
X428480Y1001517D01*
Y998483D01*
X429265Y995554D01*
X430782Y992927D01*
X432927Y990782D01*
X435554Y989265D01*
X438483Y988480D01*
X441517D01*
X444447Y989265D01*
X447074Y990782D01*
X449218Y992927D01*
X450735Y995554D01*
X451520Y998483D01*
Y1001517D01*
X450735Y1004447D01*
X449218Y1007073D01*
X447074Y1009218D01*
X444447Y1010735D01*
X441517Y1011520D01*
D02*
G37*
G36*
X400820D02*
X377780D01*
Y988480D01*
X400820D01*
Y1011520D01*
D02*
G37*
G36*
X831484Y986770D02*
X828516D01*
X825650Y986002D01*
X823080Y984518D01*
X820982Y982420D01*
X819498Y979850D01*
X818730Y976984D01*
Y974016D01*
X819498Y971150D01*
X820982Y968580D01*
X823080Y966482D01*
X825650Y964998D01*
X828516Y964230D01*
X831484D01*
X834350Y964998D01*
X836920Y966482D01*
X839018Y968580D01*
X840502Y971150D01*
X841270Y974016D01*
Y976984D01*
X840502Y979850D01*
X839018Y982420D01*
X836920Y984518D01*
X834350Y986002D01*
X831484Y986770D01*
D02*
G37*
G36*
X570270Y952020D02*
X560635D01*
Y942385D01*
X570270D01*
Y952020D01*
D02*
G37*
G36*
X559365D02*
X549730D01*
Y942385D01*
X559365D01*
Y952020D01*
D02*
G37*
G36*
X771155Y954970D02*
X768845D01*
X766615Y954372D01*
X764615Y953218D01*
X762982Y951585D01*
X761828Y949585D01*
X761230Y947355D01*
Y945045D01*
X761828Y942815D01*
X762982Y940815D01*
X764615Y939182D01*
X766615Y938028D01*
X768845Y937430D01*
X771155D01*
X773385Y938028D01*
X775385Y939182D01*
X777018Y940815D01*
X778172Y942815D01*
X778770Y945045D01*
Y947355D01*
X778172Y949585D01*
X777018Y951585D01*
X775385Y953218D01*
X773385Y954372D01*
X771155Y954970D01*
D02*
G37*
G36*
X570270Y941115D02*
X560635D01*
Y931480D01*
X570270D01*
Y941115D01*
D02*
G37*
G36*
X559365D02*
X549730D01*
Y931480D01*
X559365D01*
Y941115D01*
D02*
G37*
G36*
X771155Y929570D02*
X768845D01*
X766615Y928972D01*
X764615Y927818D01*
X762982Y926185D01*
X761828Y924185D01*
X761230Y921955D01*
Y919645D01*
X761828Y917415D01*
X762982Y915415D01*
X764615Y913782D01*
X766615Y912628D01*
X768845Y912030D01*
X771155D01*
X773385Y912628D01*
X775385Y913782D01*
X777018Y915415D01*
X778172Y917415D01*
X778770Y919645D01*
Y921955D01*
X778172Y924185D01*
X777018Y926185D01*
X775385Y927818D01*
X773385Y928972D01*
X771155Y929570D01*
D02*
G37*
G36*
Y904170D02*
X768845D01*
X766615Y903572D01*
X764615Y902418D01*
X762982Y900785D01*
X761828Y898785D01*
X761230Y896555D01*
Y894245D01*
X761828Y892015D01*
X762982Y890015D01*
X764615Y888382D01*
X766615Y887228D01*
X768845Y886630D01*
X771155D01*
X773385Y887228D01*
X775385Y888382D01*
X777018Y890015D01*
X778172Y892015D01*
X778770Y894245D01*
Y896555D01*
X778172Y898785D01*
X777018Y900785D01*
X775385Y902418D01*
X773385Y903572D01*
X771155Y904170D01*
D02*
G37*
G36*
X694955D02*
X692645D01*
X690415Y903572D01*
X688415Y902418D01*
X686782Y900785D01*
X685628Y898785D01*
X685030Y896555D01*
Y894245D01*
X685628Y892015D01*
X686782Y890015D01*
X688415Y888382D01*
X690415Y887228D01*
X692645Y886630D01*
X694955D01*
X697185Y887228D01*
X699185Y888382D01*
X700818Y890015D01*
X701972Y892015D01*
X702570Y894245D01*
Y896555D01*
X701972Y898785D01*
X700818Y900785D01*
X699185Y902418D01*
X697185Y903572D01*
X694955Y904170D01*
D02*
G37*
G36*
X647520Y887520D02*
X632480D01*
Y872480D01*
X647520D01*
Y887520D01*
D02*
G37*
G36*
X694955Y878770D02*
X694435D01*
Y870635D01*
X702570D01*
Y871155D01*
X701972Y873385D01*
X700818Y875385D01*
X699185Y877018D01*
X697185Y878172D01*
X694955Y878770D01*
D02*
G37*
G36*
X693165D02*
X692645D01*
X690415Y878172D01*
X688415Y877018D01*
X686782Y875385D01*
X685628Y873385D01*
X685030Y871155D01*
Y870635D01*
X693165D01*
Y878770D01*
D02*
G37*
G36*
X561352Y888520D02*
X558648D01*
X556036Y887820D01*
X553694Y886468D01*
X551782Y884556D01*
X550430Y882214D01*
X549730Y879602D01*
Y876898D01*
X550430Y874286D01*
X551782Y871944D01*
X553694Y870032D01*
X556036Y868680D01*
X558648Y867980D01*
X561352D01*
X563964Y868680D01*
X566306Y870032D01*
X568218Y871944D01*
X569570Y874286D01*
X570270Y876898D01*
Y879602D01*
X569570Y882214D01*
X568218Y884556D01*
X566306Y886468D01*
X563964Y887820D01*
X561352Y888520D01*
D02*
G37*
G36*
X702570Y869365D02*
X694435D01*
Y861230D01*
X694955D01*
X697185Y861828D01*
X699185Y862982D01*
X700818Y864615D01*
X701972Y866615D01*
X702570Y868845D01*
Y869365D01*
D02*
G37*
G36*
X693165D02*
X685030D01*
Y868845D01*
X685628Y866615D01*
X686782Y864615D01*
X688415Y862982D01*
X690415Y861828D01*
X692645Y861230D01*
X693165D01*
Y869365D01*
D02*
G37*
G36*
X841270Y862270D02*
X818730D01*
Y839730D01*
X841270D01*
Y862270D01*
D02*
G37*
G36*
X831484Y836770D02*
X830635D01*
Y826135D01*
X841270D01*
Y826984D01*
X840502Y829850D01*
X839018Y832420D01*
X836920Y834518D01*
X834350Y836002D01*
X831484Y836770D01*
D02*
G37*
G36*
X829365D02*
X828516D01*
X825650Y836002D01*
X823080Y834518D01*
X820982Y832420D01*
X819498Y829850D01*
X818730Y826984D01*
Y826135D01*
X829365D01*
Y836770D01*
D02*
G37*
G36*
X784770Y838270D02*
X768230D01*
Y821730D01*
X784770D01*
Y838270D01*
D02*
G37*
G36*
X664589D02*
X662411D01*
X660308Y837706D01*
X658422Y836618D01*
X656882Y835078D01*
X655794Y833192D01*
X655230Y831089D01*
Y828911D01*
X655794Y826808D01*
X656882Y824922D01*
X658422Y823382D01*
X660308Y822294D01*
X662411Y821730D01*
X664589D01*
X666692Y822294D01*
X668578Y823382D01*
X670118Y824922D01*
X671206Y826808D01*
X671770Y828911D01*
Y831089D01*
X671206Y833192D01*
X670118Y835078D01*
X668578Y836618D01*
X666692Y837706D01*
X664589Y838270D01*
D02*
G37*
G36*
X415820Y829270D02*
X415235D01*
Y820635D01*
X423870D01*
Y821220D01*
X423238Y823578D01*
X422018Y825692D01*
X420292Y827418D01*
X418178Y828638D01*
X415820Y829270D01*
D02*
G37*
G36*
X413965D02*
X413380D01*
X411022Y828638D01*
X408908Y827418D01*
X407182Y825692D01*
X405962Y823578D01*
X405330Y821220D01*
Y820635D01*
X413965D01*
Y829270D01*
D02*
G37*
G36*
X841270Y824865D02*
X830635D01*
Y814230D01*
X831484D01*
X834350Y814998D01*
X836920Y816482D01*
X839018Y818580D01*
X840502Y821150D01*
X841270Y824016D01*
Y824865D01*
D02*
G37*
G36*
X829365D02*
X818730D01*
Y824016D01*
X819498Y821150D01*
X820982Y818580D01*
X823080Y816482D01*
X825650Y814998D01*
X828516Y814230D01*
X829365D01*
Y824865D01*
D02*
G37*
G36*
X423870Y819365D02*
X415235D01*
Y810730D01*
X415820D01*
X418178Y811362D01*
X420292Y812582D01*
X422018Y814308D01*
X423238Y816422D01*
X423870Y818780D01*
Y819365D01*
D02*
G37*
G36*
X413965D02*
X405330D01*
Y818780D01*
X405962Y816422D01*
X407182Y814308D01*
X408908Y812582D01*
X411022Y811362D01*
X413380Y810730D01*
X413965D01*
Y819365D01*
D02*
G37*
G36*
X390420Y829270D02*
X387980D01*
X385622Y828638D01*
X383508Y827418D01*
X381782Y825692D01*
X380562Y823578D01*
X379930Y821220D01*
Y818780D01*
X380562Y816422D01*
X381782Y814308D01*
X383508Y812582D01*
X385622Y811362D01*
X387980Y810730D01*
X390420D01*
X392778Y811362D01*
X394892Y812582D01*
X396618Y814308D01*
X397838Y816422D01*
X398470Y818780D01*
Y821220D01*
X397838Y823578D01*
X396618Y825692D01*
X394892Y827418D01*
X392778Y828638D01*
X390420Y829270D01*
D02*
G37*
G36*
X580957Y817270D02*
X579043D01*
X577194Y816775D01*
X575536Y815817D01*
X574183Y814464D01*
X573225Y812806D01*
X572730Y810957D01*
Y809043D01*
X573225Y807194D01*
X574183Y805536D01*
X575536Y804183D01*
X577194Y803225D01*
X579043Y802730D01*
X580957D01*
X582806Y803225D01*
X584464Y804183D01*
X585817Y805536D01*
X586774Y807194D01*
X587270Y809043D01*
Y810957D01*
X586774Y812806D01*
X585817Y814464D01*
X584464Y815817D01*
X582806Y816775D01*
X580957Y817270D01*
D02*
G37*
G36*
X784770Y798270D02*
X777135D01*
Y790635D01*
X784770D01*
Y798270D01*
D02*
G37*
G36*
X775865D02*
X768230D01*
Y790635D01*
X775865D01*
Y798270D01*
D02*
G37*
G36*
X784770Y789365D02*
X777135D01*
Y781730D01*
X784770D01*
Y789365D01*
D02*
G37*
G36*
X775865D02*
X768230D01*
Y781730D01*
X775865D01*
Y789365D01*
D02*
G37*
G36*
X664589Y798270D02*
X662411D01*
X660308Y797706D01*
X658422Y796618D01*
X656882Y795078D01*
X655794Y793192D01*
X655230Y791089D01*
Y788911D01*
X655794Y786808D01*
X656882Y784922D01*
X658422Y783382D01*
X660308Y782294D01*
X662411Y781730D01*
X664589D01*
X666692Y782294D01*
X668578Y783382D01*
X670118Y784922D01*
X671206Y786808D01*
X671770Y788911D01*
Y791089D01*
X671206Y793192D01*
X670118Y795078D01*
X668578Y796618D01*
X666692Y797706D01*
X664589Y798270D01*
D02*
G37*
G36*
X497253Y793345D02*
X492821D01*
X488474Y792480D01*
X484379Y790784D01*
X480694Y788322D01*
X477560Y785188D01*
X475098Y781502D01*
X473402Y777408D01*
X472537Y773061D01*
Y768629D01*
X473402Y764282D01*
X475098Y760187D01*
X477560Y756502D01*
X480694Y753368D01*
X484379Y750906D01*
X488474Y749209D01*
X492821Y748345D01*
X497253D01*
X501600Y749209D01*
X505695Y750906D01*
X509380Y753368D01*
X512514Y756502D01*
X514976Y760187D01*
X516672Y764282D01*
X517537Y768629D01*
Y773061D01*
X516672Y777408D01*
X514976Y781502D01*
X512514Y785188D01*
X509380Y788322D01*
X505695Y790784D01*
X501600Y792480D01*
X497253Y793345D01*
D02*
G37*
G36*
X922216Y792500D02*
X917784D01*
X913437Y791635D01*
X909342Y789939D01*
X905657Y787477D01*
X902523Y784343D01*
X900061Y780658D01*
X898365Y776563D01*
X897500Y772216D01*
Y767784D01*
X898365Y763437D01*
X900061Y759342D01*
X902523Y755657D01*
X905657Y752523D01*
X909342Y750061D01*
X913437Y748365D01*
X917784Y747500D01*
X922216D01*
X926563Y748365D01*
X930658Y750061D01*
X934343Y752523D01*
X937477Y755657D01*
X939939Y759342D01*
X941635Y763437D01*
X942500Y767784D01*
Y772216D01*
X941635Y776563D01*
X939939Y780658D01*
X937477Y784343D01*
X934343Y787477D01*
X930658Y789939D01*
X926563Y791635D01*
X922216Y792500D01*
D02*
G37*
G36*
X1463055Y920670D02*
X1462535D01*
Y912535D01*
X1470670D01*
Y913055D01*
X1470072Y915285D01*
X1468918Y917285D01*
X1467285Y918918D01*
X1465285Y920072D01*
X1463055Y920670D01*
D02*
G37*
G36*
X1461265D02*
X1460745D01*
X1458515Y920072D01*
X1456515Y918918D01*
X1454882Y917285D01*
X1453728Y915285D01*
X1453130Y913055D01*
Y912535D01*
X1461265D01*
Y920670D01*
D02*
G37*
G36*
X1539255D02*
X1536945D01*
X1534715Y920072D01*
X1532715Y918918D01*
X1531082Y917285D01*
X1529928Y915285D01*
X1529330Y913055D01*
Y910745D01*
X1529928Y908515D01*
X1531082Y906515D01*
X1532715Y904882D01*
X1534715Y903728D01*
X1536945Y903130D01*
X1539255D01*
X1541485Y903728D01*
X1543485Y904882D01*
X1545118Y906515D01*
X1546272Y908515D01*
X1546870Y910745D01*
Y913055D01*
X1546272Y915285D01*
X1545118Y917285D01*
X1543485Y918918D01*
X1541485Y920072D01*
X1539255Y920670D01*
D02*
G37*
G36*
X1470670Y911265D02*
X1462535D01*
Y903130D01*
X1463055D01*
X1465285Y903728D01*
X1467285Y904882D01*
X1468918Y906515D01*
X1470072Y908515D01*
X1470670Y910745D01*
Y911265D01*
D02*
G37*
G36*
X1461265D02*
X1453130D01*
Y910745D01*
X1453728Y908515D01*
X1454882Y906515D01*
X1456515Y904882D01*
X1458515Y903728D01*
X1460745Y903130D01*
X1461265D01*
Y911265D01*
D02*
G37*
G36*
X1539255Y856870D02*
X1536945D01*
X1534715Y856272D01*
X1532715Y855118D01*
X1531082Y853485D01*
X1529928Y851485D01*
X1529330Y849255D01*
Y846945D01*
X1529928Y844715D01*
X1531082Y842715D01*
X1532715Y841082D01*
X1534715Y839928D01*
X1536945Y839330D01*
X1539255D01*
X1541485Y839928D01*
X1543485Y841082D01*
X1545118Y842715D01*
X1546272Y844715D01*
X1546870Y846945D01*
Y849255D01*
X1546272Y851485D01*
X1545118Y853485D01*
X1543485Y855118D01*
X1541485Y856272D01*
X1539255Y856870D01*
D02*
G37*
G36*
X1470670D02*
X1453130D01*
Y839330D01*
X1458566D01*
Y830886D01*
X1458515Y830872D01*
X1456515Y829718D01*
X1454882Y828085D01*
X1453728Y826085D01*
X1453130Y823855D01*
Y821545D01*
X1453728Y819315D01*
X1454882Y817315D01*
X1456515Y815682D01*
X1458515Y814528D01*
X1460745Y813930D01*
X1463055D01*
X1465285Y814528D01*
X1467285Y815682D01*
X1468918Y817315D01*
X1470072Y819315D01*
X1470670Y821545D01*
Y823855D01*
X1470072Y826085D01*
X1468918Y828085D01*
X1467285Y829718D01*
X1465285Y830872D01*
X1465234Y830886D01*
Y839330D01*
X1470670D01*
Y856870D01*
D02*
G37*
G36*
Y996870D02*
X1453130D01*
Y979330D01*
X1458566D01*
Y970886D01*
X1458515Y970872D01*
X1456515Y969718D01*
X1454882Y968085D01*
X1453728Y966085D01*
X1453130Y963855D01*
Y961545D01*
X1453728Y959315D01*
X1454882Y957315D01*
X1456515Y955682D01*
X1458515Y954528D01*
X1460745Y953930D01*
X1463055D01*
X1465285Y954528D01*
X1465331Y954554D01*
X1486666Y933219D01*
Y826781D01*
X1465331Y805446D01*
X1465285Y805472D01*
X1463055Y806070D01*
X1460745D01*
X1458515Y805472D01*
X1456515Y804318D01*
X1454882Y802685D01*
X1453728Y800685D01*
X1453130Y798455D01*
Y796145D01*
X1453728Y793915D01*
X1454882Y791915D01*
X1456515Y790282D01*
X1458515Y789128D01*
X1460745Y788530D01*
X1463055D01*
X1465285Y789128D01*
X1467285Y790282D01*
X1468918Y791915D01*
X1470072Y793915D01*
X1470086Y793966D01*
X1511319D01*
X1529954Y775331D01*
X1529928Y775285D01*
X1529330Y773055D01*
Y770745D01*
X1529928Y768515D01*
X1531082Y766515D01*
X1532715Y764882D01*
X1534715Y763728D01*
X1536945Y763130D01*
X1539255D01*
X1541485Y763728D01*
X1543485Y764882D01*
X1545118Y766515D01*
X1546272Y768515D01*
X1546870Y770745D01*
Y773055D01*
X1546272Y775285D01*
X1545118Y777285D01*
X1543485Y778918D01*
X1541485Y780072D01*
X1539255Y780670D01*
X1536945D01*
X1534715Y780072D01*
X1534669Y780046D01*
X1515058Y799658D01*
X1513976Y800380D01*
X1512700Y800634D01*
X1471745D01*
X1471219Y801904D01*
X1492357Y823043D01*
X1493080Y824124D01*
X1493334Y825400D01*
Y934600D01*
X1493080Y935876D01*
X1492357Y936957D01*
X1470046Y959269D01*
X1470072Y959315D01*
X1470670Y961545D01*
Y963855D01*
X1470072Y966085D01*
X1468918Y968085D01*
X1467285Y969718D01*
X1465285Y970872D01*
X1465234Y970886D01*
Y979330D01*
X1470670D01*
Y996870D01*
D02*
G37*
G36*
X1463055Y780670D02*
X1462535D01*
Y772535D01*
X1470670D01*
Y773055D01*
X1470072Y775285D01*
X1468918Y777285D01*
X1467285Y778918D01*
X1465285Y780072D01*
X1463055Y780670D01*
D02*
G37*
G36*
X1470670Y771265D02*
X1462535D01*
Y763130D01*
X1463055D01*
X1465285Y763728D01*
X1467285Y764882D01*
X1468918Y766515D01*
X1470072Y768515D01*
X1470670Y770745D01*
Y771265D01*
D02*
G37*
G36*
X1214955Y894170D02*
X1212645D01*
X1210415Y893572D01*
X1208415Y892418D01*
X1206782Y890785D01*
X1205628Y888785D01*
X1205030Y886555D01*
Y884245D01*
X1205628Y882015D01*
X1206782Y880015D01*
X1208415Y878382D01*
X1210415Y877228D01*
X1212645Y876630D01*
X1214955D01*
X1217185Y877228D01*
X1219185Y878382D01*
X1220818Y880015D01*
X1221972Y882015D01*
X1222570Y884245D01*
Y886555D01*
X1221972Y888785D01*
X1220818Y890785D01*
X1219185Y892418D01*
X1217185Y893572D01*
X1214955Y894170D01*
D02*
G37*
G36*
Y868770D02*
X1212645D01*
X1210415Y868172D01*
X1208415Y867018D01*
X1206782Y865385D01*
X1205628Y863385D01*
X1205030Y861155D01*
Y858845D01*
X1205628Y856615D01*
X1206782Y854615D01*
X1208415Y852982D01*
X1210415Y851828D01*
X1212645Y851230D01*
X1214955D01*
X1217185Y851828D01*
X1219185Y852982D01*
X1220818Y854615D01*
X1221972Y856615D01*
X1222570Y858845D01*
Y861155D01*
X1221972Y863385D01*
X1220818Y865385D01*
X1219185Y867018D01*
X1217185Y868172D01*
X1214955Y868770D01*
D02*
G37*
G36*
Y843370D02*
X1214435D01*
Y835235D01*
X1222570D01*
Y835755D01*
X1221972Y837985D01*
X1220818Y839985D01*
X1219185Y841618D01*
X1217185Y842772D01*
X1214955Y843370D01*
D02*
G37*
G36*
X1213165D02*
X1212645D01*
X1210415Y842772D01*
X1208415Y841618D01*
X1206782Y839985D01*
X1205628Y837985D01*
X1205030Y835755D01*
Y835235D01*
X1213165D01*
Y843370D01*
D02*
G37*
G36*
X1222570Y833965D02*
X1214435D01*
Y825830D01*
X1214955D01*
X1217185Y826428D01*
X1219185Y827582D01*
X1220818Y829215D01*
X1221972Y831215D01*
X1222570Y833445D01*
Y833965D01*
D02*
G37*
G36*
X1213165D02*
X1205030D01*
Y833445D01*
X1205628Y831215D01*
X1206782Y829215D01*
X1208415Y827582D01*
X1210415Y826428D01*
X1212645Y825830D01*
X1213165D01*
Y833965D01*
D02*
G37*
G36*
X1012216Y792500D02*
X1007784D01*
X1003437Y791635D01*
X999342Y789939D01*
X995657Y787477D01*
X992523Y784343D01*
X990061Y780658D01*
X988365Y776563D01*
X987500Y772216D01*
Y767784D01*
X988365Y763437D01*
X990061Y759342D01*
X992523Y755657D01*
X995657Y752523D01*
X999342Y750061D01*
X1003437Y748365D01*
X1007784Y747500D01*
X1012216D01*
X1016563Y748365D01*
X1020658Y750061D01*
X1024343Y752523D01*
X1027477Y755657D01*
X1029939Y759342D01*
X1031635Y763437D01*
X1032500Y767784D01*
Y772216D01*
X1031635Y776563D01*
X1029939Y780658D01*
X1027477Y784343D01*
X1024343Y787477D01*
X1020658Y789939D01*
X1016563Y791635D01*
X1012216Y792500D01*
D02*
G37*
G36*
X1821155Y1264970D02*
X1818845D01*
X1816615Y1264372D01*
X1814615Y1263218D01*
X1812982Y1261585D01*
X1811828Y1259585D01*
X1811230Y1257355D01*
Y1255045D01*
X1811828Y1252815D01*
X1812982Y1250815D01*
X1814615Y1249182D01*
X1816615Y1248028D01*
X1818845Y1247430D01*
X1821155D01*
X1823385Y1248028D01*
X1825385Y1249182D01*
X1827018Y1250815D01*
X1828172Y1252815D01*
X1828770Y1255045D01*
Y1257355D01*
X1828172Y1259585D01*
X1827018Y1261585D01*
X1825385Y1263218D01*
X1823385Y1264372D01*
X1821155Y1264970D01*
D02*
G37*
G36*
X1752570D02*
X1735030D01*
Y1247430D01*
X1752570D01*
Y1264970D01*
D02*
G37*
G36*
X1701270Y1252270D02*
X1678730D01*
Y1229730D01*
X1701270D01*
Y1252270D01*
D02*
G37*
G36*
X1821155Y1239570D02*
X1818845D01*
X1816615Y1238972D01*
X1814615Y1237818D01*
X1812982Y1236185D01*
X1811828Y1234185D01*
X1811230Y1231955D01*
Y1229645D01*
X1811828Y1227415D01*
X1812982Y1225415D01*
X1814615Y1223782D01*
X1816615Y1222628D01*
X1818845Y1222030D01*
X1821155D01*
X1823385Y1222628D01*
X1825385Y1223782D01*
X1827018Y1225415D01*
X1828172Y1227415D01*
X1828770Y1229645D01*
Y1231955D01*
X1828172Y1234185D01*
X1827018Y1236185D01*
X1825385Y1237818D01*
X1823385Y1238972D01*
X1821155Y1239570D01*
D02*
G37*
G36*
X1744955D02*
X1742645D01*
X1740415Y1238972D01*
X1738415Y1237818D01*
X1736782Y1236185D01*
X1735628Y1234185D01*
X1735030Y1231955D01*
Y1229645D01*
X1735628Y1227415D01*
X1736782Y1225415D01*
X1738415Y1223782D01*
X1740415Y1222628D01*
X1742645Y1222030D01*
X1744955D01*
X1747185Y1222628D01*
X1749185Y1223782D01*
X1750818Y1225415D01*
X1751972Y1227415D01*
X1752570Y1229645D01*
Y1231955D01*
X1751972Y1234185D01*
X1750818Y1236185D01*
X1749185Y1237818D01*
X1747185Y1238972D01*
X1744955Y1239570D01*
D02*
G37*
G36*
X1691484Y1226770D02*
X1690635D01*
Y1216135D01*
X1701270D01*
Y1216984D01*
X1700502Y1219850D01*
X1699018Y1222420D01*
X1696920Y1224518D01*
X1694350Y1226002D01*
X1691484Y1226770D01*
D02*
G37*
G36*
X1689365D02*
X1688516D01*
X1685650Y1226002D01*
X1683080Y1224518D01*
X1680982Y1222420D01*
X1679498Y1219850D01*
X1678730Y1216984D01*
Y1216135D01*
X1689365D01*
Y1226770D01*
D02*
G37*
G36*
X1701270Y1214865D02*
X1690635D01*
Y1204230D01*
X1691484D01*
X1694350Y1204998D01*
X1696920Y1206482D01*
X1699018Y1208580D01*
X1700502Y1211150D01*
X1701270Y1214016D01*
Y1214865D01*
D02*
G37*
G36*
X1689365D02*
X1678730D01*
Y1214016D01*
X1679498Y1211150D01*
X1680982Y1208580D01*
X1683080Y1206482D01*
X1685650Y1204998D01*
X1688516Y1204230D01*
X1689365D01*
Y1214865D01*
D02*
G37*
G36*
X1821155Y1214170D02*
X1818845D01*
X1816615Y1213572D01*
X1814615Y1212418D01*
X1812982Y1210785D01*
X1811828Y1208785D01*
X1811230Y1206555D01*
Y1204245D01*
X1811828Y1202015D01*
X1812982Y1200015D01*
X1814615Y1198382D01*
X1816615Y1197228D01*
X1818845Y1196630D01*
X1821155D01*
X1823385Y1197228D01*
X1825385Y1198382D01*
X1827018Y1200015D01*
X1828172Y1202015D01*
X1828770Y1204245D01*
Y1206555D01*
X1828172Y1208785D01*
X1827018Y1210785D01*
X1825385Y1212418D01*
X1823385Y1213572D01*
X1821155Y1214170D01*
D02*
G37*
G36*
X1744955Y1188770D02*
X1744435D01*
Y1180635D01*
X1752570D01*
Y1181155D01*
X1751972Y1183385D01*
X1750818Y1185385D01*
X1749185Y1187018D01*
X1747185Y1188172D01*
X1744955Y1188770D01*
D02*
G37*
G36*
X1743165D02*
X1742645D01*
X1740415Y1188172D01*
X1738415Y1187018D01*
X1736782Y1185385D01*
X1735628Y1183385D01*
X1735030Y1181155D01*
Y1180635D01*
X1743165D01*
Y1188770D01*
D02*
G37*
G36*
X1691484Y1201270D02*
X1688516D01*
X1685650Y1200502D01*
X1683080Y1199018D01*
X1680982Y1196920D01*
X1679498Y1194350D01*
X1678730Y1191484D01*
Y1188516D01*
X1679498Y1185650D01*
X1680024Y1184739D01*
X1667643Y1172357D01*
X1666920Y1171276D01*
X1666666Y1170000D01*
Y974943D01*
X1666144Y974421D01*
X1665421Y973340D01*
X1665167Y972064D01*
Y844564D01*
X1665421Y843288D01*
X1666144Y842207D01*
X1686207Y822144D01*
X1685721Y820970D01*
X1671731D01*
Y810587D01*
X1656922Y795778D01*
X1655978Y794365D01*
X1655646Y792699D01*
Y659210D01*
X1655978Y657544D01*
X1656922Y656132D01*
X1693146Y619907D01*
Y604270D01*
X1688480D01*
Y586230D01*
X1706520D01*
Y604270D01*
X1701854D01*
Y621710D01*
X1701522Y623376D01*
X1700578Y624789D01*
X1664354Y661013D01*
Y765376D01*
X1665624Y765717D01*
X1666082Y764922D01*
X1667622Y763382D01*
X1669508Y762294D01*
X1671611Y761730D01*
X1673789D01*
X1675892Y762294D01*
X1677778Y763382D01*
X1679318Y764922D01*
X1680406Y766808D01*
X1680970Y768911D01*
Y771089D01*
X1680406Y773192D01*
X1679318Y775078D01*
X1677778Y776618D01*
X1675892Y777706D01*
X1673789Y778270D01*
X1671611D01*
X1669508Y777706D01*
X1667622Y776618D01*
X1666082Y775078D01*
X1665624Y774283D01*
X1664354Y774624D01*
Y790896D01*
X1677888Y804430D01*
X1688271D01*
Y818420D01*
X1689444Y818906D01*
X1701166Y807184D01*
Y722270D01*
X1678730D01*
Y699730D01*
X1701166D01*
Y691240D01*
X1699896Y690900D01*
X1699018Y692420D01*
X1696920Y694518D01*
X1694350Y696002D01*
X1691484Y696770D01*
X1688516D01*
X1685650Y696002D01*
X1683080Y694518D01*
X1680982Y692420D01*
X1679498Y689850D01*
X1678730Y686984D01*
Y684016D01*
X1679498Y681150D01*
X1680982Y678580D01*
X1683080Y676482D01*
X1685650Y674998D01*
X1688516Y674230D01*
X1691484D01*
X1694350Y674998D01*
X1696920Y676482D01*
X1699018Y678580D01*
X1699896Y680100D01*
X1701166Y679760D01*
Y675881D01*
X1695261Y669976D01*
X1694350Y670502D01*
X1691484Y671270D01*
X1688516D01*
X1685650Y670502D01*
X1683080Y669018D01*
X1680982Y666920D01*
X1679498Y664350D01*
X1678730Y661484D01*
Y658516D01*
X1679498Y655650D01*
X1680982Y653080D01*
X1683080Y650982D01*
X1685650Y649498D01*
X1688516Y648730D01*
X1691484D01*
X1694350Y649498D01*
X1695261Y650024D01*
X1719166Y626119D01*
Y603695D01*
X1719018Y603655D01*
X1716962Y602468D01*
X1715282Y600788D01*
X1714095Y598732D01*
X1713480Y596437D01*
Y594062D01*
X1714095Y591768D01*
X1715282Y589712D01*
X1716962Y588032D01*
X1719018Y586845D01*
X1721313Y586230D01*
X1723687D01*
X1725982Y586845D01*
X1728038Y588032D01*
X1729718Y589712D01*
X1730905Y591768D01*
X1731520Y594062D01*
Y596437D01*
X1730905Y598732D01*
X1729718Y600788D01*
X1728038Y602468D01*
X1725982Y603655D01*
X1725834Y603695D01*
Y627500D01*
X1725580Y628776D01*
X1724857Y629857D01*
X1699976Y654739D01*
X1700502Y655650D01*
X1701270Y658516D01*
Y661484D01*
X1700502Y664350D01*
X1699976Y665261D01*
X1706857Y672142D01*
X1707580Y673224D01*
X1707834Y674500D01*
Y808565D01*
X1707580Y809841D01*
X1706857Y810923D01*
X1671835Y845945D01*
Y962364D01*
X1673105Y962704D01*
X1673383Y962222D01*
X1674923Y960683D01*
X1676809Y959594D01*
X1678912Y959030D01*
X1681090D01*
X1683193Y959594D01*
X1685079Y960683D01*
X1686619Y962222D01*
X1687708Y964108D01*
X1688271Y966211D01*
Y968389D01*
X1687708Y970492D01*
X1686619Y972378D01*
X1685079Y973918D01*
X1683193Y975007D01*
X1681090Y975570D01*
X1678912D01*
X1676809Y975007D01*
X1674923Y973918D01*
X1674604Y973599D01*
X1673334Y974125D01*
Y1168619D01*
X1684739Y1180024D01*
X1685650Y1179498D01*
X1688516Y1178730D01*
X1691484D01*
X1694350Y1179498D01*
X1696920Y1180982D01*
X1699018Y1183080D01*
X1700502Y1185650D01*
X1701270Y1188516D01*
Y1191484D01*
X1700502Y1194350D01*
X1699018Y1196920D01*
X1696920Y1199018D01*
X1694350Y1200502D01*
X1691484Y1201270D01*
D02*
G37*
G36*
X1821155Y1188770D02*
X1818845D01*
X1816615Y1188172D01*
X1814615Y1187018D01*
X1812982Y1185385D01*
X1811828Y1183385D01*
X1811230Y1181155D01*
Y1178845D01*
X1811828Y1176615D01*
X1812982Y1174615D01*
X1814615Y1172982D01*
X1816615Y1171828D01*
X1818845Y1171230D01*
X1821155D01*
X1823385Y1171828D01*
X1825385Y1172982D01*
X1827018Y1174615D01*
X1828172Y1176615D01*
X1828770Y1178845D01*
Y1181155D01*
X1828172Y1183385D01*
X1827018Y1185385D01*
X1825385Y1187018D01*
X1823385Y1188172D01*
X1821155Y1188770D01*
D02*
G37*
G36*
X1752570Y1179365D02*
X1744435D01*
Y1171230D01*
X1744955D01*
X1747185Y1171828D01*
X1749185Y1172982D01*
X1750818Y1174615D01*
X1751972Y1176615D01*
X1752570Y1178845D01*
Y1179365D01*
D02*
G37*
G36*
X1743165D02*
X1735030D01*
Y1178845D01*
X1735628Y1176615D01*
X1736782Y1174615D01*
X1738415Y1172982D01*
X1740415Y1171828D01*
X1742645Y1171230D01*
X1743165D01*
Y1179365D01*
D02*
G37*
G36*
X1819255Y1116870D02*
X1816945D01*
X1814715Y1116272D01*
X1812715Y1115118D01*
X1811082Y1113485D01*
X1809928Y1111485D01*
X1809330Y1109255D01*
Y1106945D01*
X1809928Y1104715D01*
X1811082Y1102715D01*
X1812715Y1101082D01*
X1814715Y1099928D01*
X1816945Y1099330D01*
X1819255D01*
X1821485Y1099928D01*
X1823485Y1101082D01*
X1825118Y1102715D01*
X1826272Y1104715D01*
X1826870Y1106945D01*
Y1109255D01*
X1826272Y1111485D01*
X1825118Y1113485D01*
X1823485Y1115118D01*
X1821485Y1116272D01*
X1819255Y1116870D01*
D02*
G37*
G36*
X1750670D02*
X1733130D01*
Y1099330D01*
X1750670D01*
Y1116870D01*
D02*
G37*
G36*
X1744955Y1214170D02*
X1742645D01*
X1740415Y1213572D01*
X1738415Y1212418D01*
X1736782Y1210785D01*
X1735628Y1208785D01*
X1735030Y1206555D01*
Y1204245D01*
X1735628Y1202015D01*
X1736782Y1200015D01*
X1738415Y1198382D01*
X1740415Y1197228D01*
X1742645Y1196630D01*
X1744955D01*
X1747185Y1197228D01*
X1747231Y1197254D01*
X1777616Y1166869D01*
Y1119850D01*
X1777870Y1118574D01*
X1778593Y1117493D01*
X1809954Y1086131D01*
X1809928Y1086085D01*
X1809330Y1083855D01*
Y1081545D01*
X1809928Y1079315D01*
X1811082Y1077315D01*
X1812715Y1075682D01*
X1814715Y1074528D01*
X1816945Y1073930D01*
X1819255D01*
X1821485Y1074528D01*
X1823485Y1075682D01*
X1825118Y1077315D01*
X1826272Y1079315D01*
X1826870Y1081545D01*
Y1083855D01*
X1826272Y1086085D01*
X1825118Y1088085D01*
X1823485Y1089718D01*
X1821485Y1090872D01*
X1819255Y1091470D01*
X1816945D01*
X1814715Y1090872D01*
X1814669Y1090846D01*
X1784284Y1121231D01*
Y1168250D01*
X1784030Y1169526D01*
X1783307Y1170608D01*
X1751946Y1201969D01*
X1751972Y1202015D01*
X1752570Y1204245D01*
Y1206555D01*
X1751972Y1208785D01*
X1750818Y1210785D01*
X1749185Y1212418D01*
X1747185Y1213572D01*
X1744955Y1214170D01*
D02*
G37*
G36*
X1819255Y1066070D02*
X1816945D01*
X1814715Y1065472D01*
X1812715Y1064318D01*
X1811082Y1062685D01*
X1809928Y1060685D01*
X1809330Y1058455D01*
Y1056145D01*
X1809928Y1053915D01*
X1811082Y1051915D01*
X1812715Y1050282D01*
X1814715Y1049128D01*
X1816945Y1048530D01*
X1819255D01*
X1821485Y1049128D01*
X1823485Y1050282D01*
X1825118Y1051915D01*
X1826272Y1053915D01*
X1826870Y1056145D01*
Y1058455D01*
X1826272Y1060685D01*
X1825118Y1062685D01*
X1823485Y1064318D01*
X1821485Y1065472D01*
X1819255Y1066070D01*
D02*
G37*
G36*
X1743055D02*
X1740745D01*
X1738515Y1065472D01*
X1736515Y1064318D01*
X1734882Y1062685D01*
X1733728Y1060685D01*
X1733130Y1058455D01*
Y1056145D01*
X1733728Y1053915D01*
X1734882Y1051915D01*
X1736515Y1050282D01*
X1738515Y1049128D01*
X1740745Y1048530D01*
X1743055D01*
X1745285Y1049128D01*
X1747285Y1050282D01*
X1748918Y1051915D01*
X1750072Y1053915D01*
X1750670Y1056145D01*
Y1058455D01*
X1750072Y1060685D01*
X1748918Y1062685D01*
X1747285Y1064318D01*
X1745285Y1065472D01*
X1743055Y1066070D01*
D02*
G37*
G36*
X1693770Y1066520D02*
X1675730D01*
Y1048480D01*
X1693770D01*
Y1066520D01*
D02*
G37*
G36*
X1743055Y1040670D02*
X1742535D01*
Y1032535D01*
X1750670D01*
Y1033055D01*
X1750072Y1035285D01*
X1748918Y1037285D01*
X1747285Y1038918D01*
X1745285Y1040072D01*
X1743055Y1040670D01*
D02*
G37*
G36*
X1741265D02*
X1740745D01*
X1738515Y1040072D01*
X1736515Y1038918D01*
X1734882Y1037285D01*
X1733728Y1035285D01*
X1733130Y1033055D01*
Y1032535D01*
X1741265D01*
Y1040670D01*
D02*
G37*
G36*
X1819255D02*
X1816945D01*
X1814715Y1040072D01*
X1812715Y1038918D01*
X1811082Y1037285D01*
X1809928Y1035285D01*
X1809330Y1033055D01*
Y1030745D01*
X1809928Y1028515D01*
X1811082Y1026515D01*
X1812715Y1024882D01*
X1814715Y1023728D01*
X1816945Y1023130D01*
X1819255D01*
X1821485Y1023728D01*
X1823485Y1024882D01*
X1825118Y1026515D01*
X1826272Y1028515D01*
X1826870Y1030745D01*
Y1033055D01*
X1826272Y1035285D01*
X1825118Y1037285D01*
X1823485Y1038918D01*
X1821485Y1040072D01*
X1819255Y1040670D01*
D02*
G37*
G36*
X1750670Y1031265D02*
X1742535D01*
Y1023130D01*
X1743055D01*
X1745285Y1023728D01*
X1747285Y1024882D01*
X1748918Y1026515D01*
X1750072Y1028515D01*
X1750670Y1030745D01*
Y1031265D01*
D02*
G37*
G36*
X1741265D02*
X1733130D01*
Y1030745D01*
X1733728Y1028515D01*
X1734882Y1026515D01*
X1736515Y1024882D01*
X1738515Y1023728D01*
X1740745Y1023130D01*
X1741265D01*
Y1031265D01*
D02*
G37*
G36*
X1781090Y975570D02*
X1778912D01*
X1776809Y975007D01*
X1774923Y973918D01*
X1773384Y972378D01*
X1772377Y970634D01*
X1737626D01*
X1736619Y972378D01*
X1735079Y973918D01*
X1733193Y975007D01*
X1731090Y975570D01*
X1728912D01*
X1726809Y975007D01*
X1724923Y973918D01*
X1723383Y972378D01*
X1722295Y970492D01*
X1721731Y968389D01*
Y966211D01*
X1722295Y964108D01*
X1723383Y962222D01*
X1724923Y960683D01*
X1726809Y959594D01*
X1728912Y959030D01*
X1731090D01*
X1733193Y959594D01*
X1735079Y960683D01*
X1736619Y962222D01*
X1737626Y963966D01*
X1772377D01*
X1773384Y962222D01*
X1774923Y960683D01*
X1776809Y959594D01*
X1778912Y959030D01*
X1781090D01*
X1783035Y959551D01*
X1838166Y904420D01*
Y820970D01*
X1821730D01*
Y804430D01*
X1826666D01*
Y794445D01*
X1807643Y775422D01*
X1806920Y774340D01*
X1806666Y773064D01*
Y726470D01*
X1805536Y725817D01*
X1804183Y724464D01*
X1803226Y722806D01*
X1802730Y720957D01*
Y719043D01*
X1803226Y717194D01*
X1804183Y715536D01*
X1805536Y714183D01*
X1807194Y713225D01*
X1809043Y712730D01*
X1810957D01*
X1812806Y713225D01*
X1814464Y714183D01*
X1815818Y715536D01*
X1816775Y717194D01*
X1817270Y719043D01*
Y720957D01*
X1816775Y722806D01*
X1815818Y724464D01*
X1814464Y725817D01*
X1813334Y726470D01*
Y771683D01*
X1817857Y776206D01*
X1819030Y775720D01*
Y761730D01*
X1835570D01*
Y773555D01*
X1843858Y781842D01*
X1844580Y782924D01*
X1844834Y784200D01*
Y905801D01*
X1844580Y907077D01*
X1843858Y908159D01*
X1787750Y964267D01*
X1788271Y966211D01*
Y968389D01*
X1787708Y970492D01*
X1786619Y972378D01*
X1785079Y973918D01*
X1783193Y975007D01*
X1781090Y975570D01*
D02*
G37*
G36*
X1685938Y1091520D02*
X1683562D01*
X1681268Y1090905D01*
X1679212Y1089718D01*
X1677532Y1088038D01*
X1676345Y1085982D01*
X1675730Y1083688D01*
Y1081312D01*
X1676345Y1079018D01*
X1677532Y1076962D01*
X1679212Y1075282D01*
X1681268Y1074095D01*
X1683562Y1073480D01*
X1685938D01*
X1688232Y1074095D01*
X1690288Y1075282D01*
X1691968Y1076962D01*
X1693155Y1079018D01*
X1693222Y1079266D01*
X1733756D01*
X1734882Y1077315D01*
X1736515Y1075682D01*
X1738515Y1074528D01*
X1740745Y1073930D01*
X1743055D01*
X1745285Y1074528D01*
X1745331Y1074554D01*
X1826666Y993219D01*
Y974924D01*
X1824922Y973918D01*
X1823382Y972378D01*
X1822294Y970492D01*
X1821730Y968389D01*
Y966211D01*
X1822294Y964108D01*
X1823382Y962222D01*
X1824922Y960682D01*
X1826808Y959594D01*
X1828911Y959030D01*
X1831089D01*
X1833192Y959594D01*
X1835078Y960682D01*
X1836618Y962222D01*
X1837706Y964108D01*
X1838270Y966211D01*
Y968389D01*
X1837706Y970492D01*
X1836618Y972378D01*
X1835078Y973918D01*
X1833334Y974924D01*
Y994600D01*
X1833080Y995876D01*
X1832357Y996957D01*
X1750046Y1079269D01*
X1750072Y1079315D01*
X1750670Y1081545D01*
Y1083855D01*
X1750072Y1086085D01*
X1748918Y1088085D01*
X1747285Y1089718D01*
X1745285Y1090872D01*
X1743055Y1091470D01*
X1740745D01*
X1738515Y1090872D01*
X1736515Y1089718D01*
X1734882Y1088085D01*
X1733728Y1086085D01*
X1733687Y1085934D01*
X1693168D01*
X1693155Y1085982D01*
X1691968Y1088038D01*
X1690288Y1089718D01*
X1688232Y1090905D01*
X1685938Y1091520D01*
D02*
G37*
G36*
X1788271Y820970D02*
X1771731D01*
Y804430D01*
X1788271D01*
Y820970D01*
D02*
G37*
G36*
X1768089Y721127D02*
X1760954D01*
Y713992D01*
X1768089D01*
Y721127D01*
D02*
G37*
G36*
X1759684D02*
X1752549D01*
Y713992D01*
X1759684D01*
Y721127D01*
D02*
G37*
G36*
X1768089Y712722D02*
X1760954D01*
Y705587D01*
X1768089D01*
Y712722D01*
D02*
G37*
G36*
X1738271Y820970D02*
X1721731D01*
Y804430D01*
X1726667D01*
Y723675D01*
X1726921Y722399D01*
X1727644Y721318D01*
X1752978Y695983D01*
X1752549Y694380D01*
Y692335D01*
X1753078Y690358D01*
X1754101Y688587D01*
X1755548Y687140D01*
X1757319Y686117D01*
X1759296Y685587D01*
X1761342D01*
X1763318Y686117D01*
X1765090Y687140D01*
X1766536Y688587D01*
X1767559Y690358D01*
X1768089Y692335D01*
Y694380D01*
X1767559Y696357D01*
X1766536Y698128D01*
X1765090Y699575D01*
X1763318Y700598D01*
X1761342Y701127D01*
X1759296D01*
X1757693Y700698D01*
X1753977Y704414D01*
X1754463Y705587D01*
X1759684D01*
Y712722D01*
X1752549D01*
Y707502D01*
X1751375Y707016D01*
X1733335Y725056D01*
Y804430D01*
X1738271D01*
Y820970D01*
D02*
G37*
G36*
X1061188Y699020D02*
X1058812D01*
X1056518Y698405D01*
X1054462Y697218D01*
X1052782Y695538D01*
X1051595Y693482D01*
X1050980Y691188D01*
Y688812D01*
X1051595Y686518D01*
X1052782Y684462D01*
X1054462Y682782D01*
X1056518Y681595D01*
X1058812Y680980D01*
X1061188D01*
X1063482Y681595D01*
X1065538Y682782D01*
X1067218Y684462D01*
X1068405Y686518D01*
X1069020Y688812D01*
Y691188D01*
X1068405Y693482D01*
X1067218Y695538D01*
X1065538Y697218D01*
X1063482Y698405D01*
X1061188Y699020D01*
D02*
G37*
G36*
X1044020D02*
X1025980D01*
Y680980D01*
X1044020D01*
Y699020D01*
D02*
G37*
G36*
X1810957Y687270D02*
X1809043D01*
X1807194Y686775D01*
X1805536Y685817D01*
X1804183Y684464D01*
X1803226Y682806D01*
X1802730Y680957D01*
Y679043D01*
X1803226Y677194D01*
X1804183Y675536D01*
X1805536Y674183D01*
X1807194Y673225D01*
X1809043Y672730D01*
X1810957D01*
X1812806Y673225D01*
X1814464Y674183D01*
X1815818Y675536D01*
X1816775Y677194D01*
X1817270Y679043D01*
Y680957D01*
X1816775Y682806D01*
X1815818Y684464D01*
X1814464Y685817D01*
X1812806Y686775D01*
X1810957Y687270D01*
D02*
G37*
G36*
X1592216Y712500D02*
X1587784D01*
X1583437Y711635D01*
X1579342Y709939D01*
X1575657Y707477D01*
X1572523Y704343D01*
X1570061Y700658D01*
X1568365Y696563D01*
X1567500Y692216D01*
Y687784D01*
X1568365Y683437D01*
X1570061Y679342D01*
X1572523Y675657D01*
X1575657Y672523D01*
X1579342Y670061D01*
X1583437Y668365D01*
X1587784Y667500D01*
X1592216D01*
X1596563Y668365D01*
X1600658Y670061D01*
X1604343Y672523D01*
X1607477Y675657D01*
X1609939Y679342D01*
X1611635Y683437D01*
X1612500Y687784D01*
Y692216D01*
X1611635Y696563D01*
X1609939Y700658D01*
X1607477Y704343D01*
X1604343Y707477D01*
X1600658Y709939D01*
X1596563Y711635D01*
X1592216Y712500D01*
D02*
G37*
G36*
X1761342Y681127D02*
X1759296D01*
X1757319Y680598D01*
X1755548Y679575D01*
X1754101Y678128D01*
X1753078Y676357D01*
X1752549Y674380D01*
Y672335D01*
X1753078Y670358D01*
X1754101Y668587D01*
X1755548Y667140D01*
X1757319Y666117D01*
X1759296Y665587D01*
X1761342D01*
X1763318Y666117D01*
X1765090Y667140D01*
X1766536Y668587D01*
X1767559Y670358D01*
X1768089Y672335D01*
Y674380D01*
X1767559Y676357D01*
X1766536Y678128D01*
X1765090Y679575D01*
X1763318Y680598D01*
X1761342Y681127D01*
D02*
G37*
G36*
X1491089Y678270D02*
X1488911D01*
X1486808Y677706D01*
X1484922Y676618D01*
X1483382Y675078D01*
X1482294Y673192D01*
X1481730Y671089D01*
Y668911D01*
X1482294Y666808D01*
X1483382Y664922D01*
X1484922Y663382D01*
X1486808Y662294D01*
X1488911Y661730D01*
X1491089D01*
X1493192Y662294D01*
X1495078Y663382D01*
X1496618Y664922D01*
X1497706Y666808D01*
X1498270Y668911D01*
Y671089D01*
X1497706Y673192D01*
X1496618Y675078D01*
X1495078Y676618D01*
X1493192Y677706D01*
X1491089Y678270D01*
D02*
G37*
G36*
X1466089D02*
X1463911D01*
X1461808Y677706D01*
X1459922Y676618D01*
X1458382Y675078D01*
X1457294Y673192D01*
X1456730Y671089D01*
Y668911D01*
X1457294Y666808D01*
X1458382Y664922D01*
X1459922Y663382D01*
X1461808Y662294D01*
X1463911Y661730D01*
X1466089D01*
X1468192Y662294D01*
X1470078Y663382D01*
X1471618Y664922D01*
X1472706Y666808D01*
X1473270Y668911D01*
Y671089D01*
X1472706Y673192D01*
X1471618Y675078D01*
X1470078Y676618D01*
X1468192Y677706D01*
X1466089Y678270D01*
D02*
G37*
G36*
X1441089D02*
X1438911D01*
X1436808Y677706D01*
X1434922Y676618D01*
X1433382Y675078D01*
X1432294Y673192D01*
X1431730Y671089D01*
Y668911D01*
X1432294Y666808D01*
X1433382Y664922D01*
X1434922Y663382D01*
X1436808Y662294D01*
X1438911Y661730D01*
X1441089D01*
X1443192Y662294D01*
X1445078Y663382D01*
X1446618Y664922D01*
X1447706Y666808D01*
X1448270Y668911D01*
Y671089D01*
X1447706Y673192D01*
X1446618Y675078D01*
X1445078Y676618D01*
X1443192Y677706D01*
X1441089Y678270D01*
D02*
G37*
G36*
X1416089D02*
X1413911D01*
X1411808Y677706D01*
X1409922Y676618D01*
X1408382Y675078D01*
X1407294Y673192D01*
X1406730Y671089D01*
Y668911D01*
X1407294Y666808D01*
X1408382Y664922D01*
X1409922Y663382D01*
X1411808Y662294D01*
X1413911Y661730D01*
X1416089D01*
X1418192Y662294D01*
X1420078Y663382D01*
X1421618Y664922D01*
X1422706Y666808D01*
X1423270Y668911D01*
Y671089D01*
X1422706Y673192D01*
X1421618Y675078D01*
X1420078Y676618D01*
X1418192Y677706D01*
X1416089Y678270D01*
D02*
G37*
G36*
X1391089D02*
X1388911D01*
X1386808Y677706D01*
X1384922Y676618D01*
X1383382Y675078D01*
X1382294Y673192D01*
X1381730Y671089D01*
Y668911D01*
X1382294Y666808D01*
X1383382Y664922D01*
X1384922Y663382D01*
X1386808Y662294D01*
X1388911Y661730D01*
X1391089D01*
X1393192Y662294D01*
X1395078Y663382D01*
X1396618Y664922D01*
X1397706Y666808D01*
X1398270Y668911D01*
Y671089D01*
X1397706Y673192D01*
X1396618Y675078D01*
X1395078Y676618D01*
X1393192Y677706D01*
X1391089Y678270D01*
D02*
G37*
G36*
X1366089D02*
X1363911D01*
X1361808Y677706D01*
X1359922Y676618D01*
X1358382Y675078D01*
X1357294Y673192D01*
X1356730Y671089D01*
Y668911D01*
X1357294Y666808D01*
X1358382Y664922D01*
X1359922Y663382D01*
X1361808Y662294D01*
X1363911Y661730D01*
X1366089D01*
X1368192Y662294D01*
X1370078Y663382D01*
X1371618Y664922D01*
X1372706Y666808D01*
X1373270Y668911D01*
Y671089D01*
X1372706Y673192D01*
X1371618Y675078D01*
X1370078Y676618D01*
X1368192Y677706D01*
X1366089Y678270D01*
D02*
G37*
G36*
X1133789D02*
X1131611D01*
X1129508Y677706D01*
X1127622Y676618D01*
X1126082Y675078D01*
X1124994Y673192D01*
X1124430Y671089D01*
Y668911D01*
X1124951Y666966D01*
X1069419Y611434D01*
X1020670D01*
Y616870D01*
X1003130D01*
Y599330D01*
X1020670D01*
Y604766D01*
X1070800D01*
X1072076Y605020D01*
X1073158Y605742D01*
X1078508Y611093D01*
X1079646Y610435D01*
X1079330Y609255D01*
Y606945D01*
X1079928Y604715D01*
X1081082Y602715D01*
X1082715Y601082D01*
X1084061Y600305D01*
X1084062Y600294D01*
X1083775Y599004D01*
X1082904Y598830D01*
X1081822Y598107D01*
X1069749Y586034D01*
X1020086D01*
X1020072Y586085D01*
X1018918Y588085D01*
X1017285Y589718D01*
X1015285Y590872D01*
X1013055Y591470D01*
X1010745D01*
X1008515Y590872D01*
X1006515Y589718D01*
X1004882Y588085D01*
X1003728Y586085D01*
X1003130Y583855D01*
Y581545D01*
X1003728Y579315D01*
X1004882Y577315D01*
X1006515Y575682D01*
X1008515Y574528D01*
X1010745Y573930D01*
X1013055D01*
X1015285Y574528D01*
X1017285Y575682D01*
X1018918Y577315D01*
X1020072Y579315D01*
X1020086Y579366D01*
X1071130D01*
X1072405Y579620D01*
X1073487Y580342D01*
X1078387Y585243D01*
X1079526Y584585D01*
X1079330Y583855D01*
Y581545D01*
X1079928Y579315D01*
X1081082Y577315D01*
X1082715Y575682D01*
X1084715Y574528D01*
X1086945Y573930D01*
X1089255D01*
X1091485Y574528D01*
X1093485Y575682D01*
X1095118Y577315D01*
X1096272Y579315D01*
X1096870Y581545D01*
Y583855D01*
X1096272Y586085D01*
X1095118Y588085D01*
X1093485Y589718D01*
X1091485Y590872D01*
X1090464Y591146D01*
X1090631Y592416D01*
X1148265D01*
X1148605Y591146D01*
X1148383Y591017D01*
X1146982Y589617D01*
X1145993Y587903D01*
X1145480Y585990D01*
Y584010D01*
X1145993Y582097D01*
X1146982Y580383D01*
X1148383Y578983D01*
X1150097Y577993D01*
X1152010Y577480D01*
X1153990D01*
X1155903Y577993D01*
X1157617Y578983D01*
X1159017Y580383D01*
X1160007Y582097D01*
X1160520Y584010D01*
Y585990D01*
X1160007Y587903D01*
X1159017Y589617D01*
X1157617Y591017D01*
X1157395Y591146D01*
X1157735Y592416D01*
X1164869D01*
X1219480Y537805D01*
Y527480D01*
X1234520D01*
Y542520D01*
X1224195D01*
X1168607Y598107D01*
X1167526Y598830D01*
X1166250Y599084D01*
X1092564D01*
X1092224Y600354D01*
X1093485Y601082D01*
X1095118Y602715D01*
X1096272Y604715D01*
X1096870Y606945D01*
Y609255D01*
X1096272Y611485D01*
X1095118Y613485D01*
X1093485Y615118D01*
X1091485Y616272D01*
X1089255Y616870D01*
X1086945D01*
X1085765Y616554D01*
X1085107Y617692D01*
X1129666Y662251D01*
X1131611Y661730D01*
X1133789D01*
X1135892Y662294D01*
X1137778Y663382D01*
X1139318Y664922D01*
X1140406Y666808D01*
X1140970Y668911D01*
Y671089D01*
X1140406Y673192D01*
X1139318Y675078D01*
X1137778Y676618D01*
X1135892Y677706D01*
X1133789Y678270D01*
D02*
G37*
G36*
X1817270Y647270D02*
X1802730D01*
Y632730D01*
X1817270D01*
Y647270D01*
D02*
G37*
G36*
X1348270Y678270D02*
X1331730D01*
Y661730D01*
X1336666D01*
Y633203D01*
X1336920Y631927D01*
X1337643Y630845D01*
X1374895Y593592D01*
X1374238Y592453D01*
X1373990Y592520D01*
X1372010D01*
X1370097Y592007D01*
X1368383Y591017D01*
X1366983Y589617D01*
X1365992Y587903D01*
X1365480Y585990D01*
Y584010D01*
X1365992Y582097D01*
X1366983Y580383D01*
X1368383Y578983D01*
X1370097Y577993D01*
X1372010Y577480D01*
X1373990D01*
X1375903Y577993D01*
X1377617Y578983D01*
X1379017Y580383D01*
X1380008Y582097D01*
X1380520Y584010D01*
Y585990D01*
X1380454Y586238D01*
X1381592Y586895D01*
X1414416Y554072D01*
Y542520D01*
X1399480D01*
Y527480D01*
X1414416D01*
Y519313D01*
X1407643Y512539D01*
X1406920Y511458D01*
X1406666Y510182D01*
Y488270D01*
X1401730D01*
Y471730D01*
X1418270D01*
Y488270D01*
X1413334D01*
Y508801D01*
X1420108Y515574D01*
X1420830Y516656D01*
X1421084Y517932D01*
Y555453D01*
X1420830Y556729D01*
X1420108Y557810D01*
X1343334Y634584D01*
Y661730D01*
X1348270D01*
Y678270D01*
D02*
G37*
G36*
X1553990Y592520D02*
X1552010D01*
X1550097Y592007D01*
X1548383Y591017D01*
X1546983Y589617D01*
X1545992Y587903D01*
X1545480Y585990D01*
Y584010D01*
X1545992Y582097D01*
X1546983Y580383D01*
X1548383Y578983D01*
X1550097Y577993D01*
X1552010Y577480D01*
X1553990D01*
X1555903Y577993D01*
X1557617Y578983D01*
X1559017Y580383D01*
X1560007Y582097D01*
X1560520Y584010D01*
Y585990D01*
X1560007Y587903D01*
X1559017Y589617D01*
X1557617Y591017D01*
X1555903Y592007D01*
X1553990Y592520D01*
D02*
G37*
G36*
X1493990D02*
X1492010D01*
X1490097Y592007D01*
X1488383Y591017D01*
X1486983Y589617D01*
X1485992Y587903D01*
X1485480Y585990D01*
Y584010D01*
X1485992Y582097D01*
X1486983Y580383D01*
X1488383Y578983D01*
X1490097Y577993D01*
X1492010Y577480D01*
X1493990D01*
X1495903Y577993D01*
X1497617Y578983D01*
X1499017Y580383D01*
X1500007Y582097D01*
X1500520Y584010D01*
Y585990D01*
X1500007Y587903D01*
X1499017Y589617D01*
X1497617Y591017D01*
X1495903Y592007D01*
X1493990Y592520D01*
D02*
G37*
G36*
X1433990D02*
X1432010D01*
X1430097Y592007D01*
X1428383Y591017D01*
X1426983Y589617D01*
X1425992Y587903D01*
X1425480Y585990D01*
Y584010D01*
X1425992Y582097D01*
X1426983Y580383D01*
X1428383Y578983D01*
X1430097Y577993D01*
X1432010Y577480D01*
X1433990D01*
X1435903Y577993D01*
X1437617Y578983D01*
X1439017Y580383D01*
X1440007Y582097D01*
X1440520Y584010D01*
Y585990D01*
X1440007Y587903D01*
X1439017Y589617D01*
X1437617Y591017D01*
X1435903Y592007D01*
X1433990Y592520D01*
D02*
G37*
G36*
X1313990D02*
X1312010D01*
X1310097Y592007D01*
X1308383Y591017D01*
X1306983Y589617D01*
X1305992Y587903D01*
X1305480Y585990D01*
Y584010D01*
X1305992Y582097D01*
X1306983Y580383D01*
X1308383Y578983D01*
X1310097Y577993D01*
X1312010Y577480D01*
X1313990D01*
X1315903Y577993D01*
X1317617Y578983D01*
X1319017Y580383D01*
X1320007Y582097D01*
X1320520Y584010D01*
Y585990D01*
X1320007Y587903D01*
X1319017Y589617D01*
X1317617Y591017D01*
X1315903Y592007D01*
X1313990Y592520D01*
D02*
G37*
G36*
X1253990D02*
X1252010D01*
X1250097Y592007D01*
X1248383Y591017D01*
X1246982Y589617D01*
X1245993Y587903D01*
X1245480Y585990D01*
Y584010D01*
X1245993Y582097D01*
X1246982Y580383D01*
X1248383Y578983D01*
X1250097Y577993D01*
X1252010Y577480D01*
X1253990D01*
X1255903Y577993D01*
X1257617Y578983D01*
X1259017Y580383D01*
X1260007Y582097D01*
X1260520Y584010D01*
Y585990D01*
X1260007Y587903D01*
X1259017Y589617D01*
X1257617Y591017D01*
X1255903Y592007D01*
X1253990Y592520D01*
D02*
G37*
G36*
X1013055Y540670D02*
X1012535D01*
Y532535D01*
X1020670D01*
Y533055D01*
X1020072Y535285D01*
X1018918Y537285D01*
X1017285Y538918D01*
X1015285Y540072D01*
X1013055Y540670D01*
D02*
G37*
G36*
X1011265D02*
X1010745D01*
X1008515Y540072D01*
X1006515Y538918D01*
X1004882Y537285D01*
X1003728Y535285D01*
X1003130Y533055D01*
Y532535D01*
X1011265D01*
Y540670D01*
D02*
G37*
G36*
X1534520Y542520D02*
X1519480D01*
Y527480D01*
X1534520D01*
Y542520D01*
D02*
G37*
G36*
X1354520D02*
X1339480D01*
Y527480D01*
X1354520D01*
Y542520D01*
D02*
G37*
G36*
X1295570Y678270D02*
X1279030D01*
Y661730D01*
X1283666D01*
Y542520D01*
X1279480D01*
Y527480D01*
X1294520D01*
Y542520D01*
X1290334D01*
Y661730D01*
X1295570D01*
Y678270D01*
D02*
G37*
G36*
X1134520Y542520D02*
X1119480D01*
Y527480D01*
X1134520D01*
Y542520D01*
D02*
G37*
G36*
X1020670Y531265D02*
X1012535D01*
Y523130D01*
X1013055D01*
X1015285Y523728D01*
X1017285Y524882D01*
X1018918Y526515D01*
X1020072Y528515D01*
X1020670Y530745D01*
Y531265D01*
D02*
G37*
G36*
X1011265D02*
X1003130D01*
Y530745D01*
X1003728Y528515D01*
X1004882Y526515D01*
X1006515Y524882D01*
X1008515Y523728D01*
X1010745Y523130D01*
X1011265D01*
Y531265D01*
D02*
G37*
G36*
X1474520Y542520D02*
X1459480D01*
Y527480D01*
X1463666D01*
Y488387D01*
X1463549Y488270D01*
X1461611D01*
X1459508Y487706D01*
X1457622Y486618D01*
X1456082Y485078D01*
X1454994Y483192D01*
X1454430Y481089D01*
Y478911D01*
X1454994Y476808D01*
X1456082Y474922D01*
X1457622Y473382D01*
X1459508Y472294D01*
X1461611Y471730D01*
X1463789D01*
X1465892Y472294D01*
X1467778Y473382D01*
X1469318Y474922D01*
X1470406Y476808D01*
X1470970Y478911D01*
Y481089D01*
X1470406Y483192D01*
X1469469Y484815D01*
X1470080Y485730D01*
X1470334Y487006D01*
Y527480D01*
X1474520D01*
Y542520D01*
D02*
G37*
%LPD*%
G36*
X1838166Y785581D02*
X1830855Y778270D01*
X1821580D01*
X1821094Y779443D01*
X1832357Y790706D01*
X1833080Y791788D01*
X1833334Y793064D01*
Y804430D01*
X1838166D01*
Y785581D01*
D02*
G37*
D12*
X770000Y870000D02*
X783883Y883883D01*
X800000D01*
Y830000D02*
Y883883D01*
Y920000D01*
X570000Y1050000D02*
X640000D01*
X670000Y1020000D01*
X540000D02*
X570000Y1050000D01*
X590000Y901835D02*
X593515Y905350D01*
X590000Y820000D02*
X600000Y810000D01*
X593515Y905350D02*
X678350D01*
X590000Y820000D02*
Y901835D01*
X414650Y1000000D02*
X434650Y1020000D01*
X540000D01*
X520000Y810000D02*
X540000Y790000D01*
X440000Y820000D02*
X508787D01*
X518787Y810000D01*
X520000D01*
X510000Y820000D02*
Y980000D01*
X980000Y589200D02*
X1011900Y557300D01*
X980000Y860000D02*
X1010000Y890000D01*
X980000Y589200D02*
Y860000D01*
X1011900Y557300D02*
X1037300Y531900D01*
X1022730Y1027809D02*
X1057520Y993019D01*
X1039574Y1079856D02*
X1053156D01*
X1057520Y957239D02*
Y993019D01*
X1010000Y890000D02*
Y909719D01*
X1053156Y1079856D02*
X1070000Y1096700D01*
Y1112700D01*
X1022730Y1063011D02*
X1039574Y1079856D01*
X1010000Y909719D02*
X1057520Y957239D01*
X1022730Y1027809D02*
Y1063011D01*
X1660000Y659210D02*
X1697500Y621710D01*
X1660000Y659210D02*
Y792699D01*
X1680001Y812700D01*
X1697500Y595250D02*
Y621710D01*
X1037300Y531900D02*
X1088100D01*
X1140000Y480000D02*
X1197300D01*
X1088100Y531900D02*
X1140000Y480000D01*
X800000Y830000D02*
X830000Y800000D01*
X800000Y920000D02*
X830000Y950000D01*
X870000D02*
X930000Y890000D01*
X830000Y950000D02*
X870000D01*
X930000Y890000D02*
X1010000D01*
X510000Y980000D02*
X540000Y1010000D01*
Y1012337D01*
X678350Y905350D02*
X693800Y920800D01*
X580000Y790000D02*
X600000Y810000D01*
X540000Y790000D02*
X580000D01*
X744600Y870000D02*
X770000D01*
X693800Y920800D02*
X744600Y870000D01*
X541500Y1012337D02*
Y1018500D01*
X540000Y1020000D02*
X541500Y1018500D01*
D15*
X1776500Y510000D02*
D03*
X1020000Y1267300D02*
D03*
X1320000Y1226500D02*
D03*
X1232700Y1270000D02*
D03*
X1070000Y1267300D02*
D03*
X1672700Y770000D02*
D03*
X1830000Y967300D02*
D03*
X1780001Y967300D02*
D03*
X1730001D02*
D03*
X1680001D02*
D03*
X1170000Y1267300D02*
D03*
X1370000Y1226500D02*
D03*
X1120000Y1267300D02*
D03*
X1270000Y1226500D02*
D03*
X1220000D02*
D03*
X1490000Y670000D02*
D03*
X1465000D02*
D03*
X1440000D02*
D03*
X1415000D02*
D03*
X1390000D02*
D03*
X1365000D02*
D03*
X1132700D02*
D03*
X1462700Y480000D02*
D03*
X1255400D02*
D03*
X1042700D02*
D03*
X1617300Y1060000D02*
D03*
X1590000Y862700D02*
D03*
X1235000Y780000D02*
D03*
X1260000D02*
D03*
X1285000D02*
D03*
X1310000D02*
D03*
X1335000D02*
D03*
X1360000D02*
D03*
X1160000Y927300D02*
D03*
X1110000D02*
D03*
X1060000D02*
D03*
X663500Y830000D02*
D03*
X780000Y1010000D02*
D03*
X663500Y790000D02*
D03*
D16*
X1663500Y510000D02*
D03*
X1387300Y1270000D02*
D03*
X1827300Y770000D02*
D03*
X1340000Y670000D02*
D03*
X1287300D02*
D03*
X1617300Y480000D02*
D03*
X1410000D02*
D03*
X1197300D02*
D03*
X1462700Y1060000D02*
D03*
X1385000Y780000D02*
D03*
X776500Y830000D02*
D03*
X745000Y1010000D02*
D03*
X776500Y790000D02*
D03*
D17*
X440000Y1000000D02*
D03*
X414650D02*
D03*
D18*
X389300D02*
D03*
D21*
X640000Y880000D02*
D03*
X1047000Y985000D02*
D03*
X1347000Y535000D02*
D03*
X1527000D02*
D03*
X1467000D02*
D03*
X1407000D02*
D03*
X1287000D02*
D03*
X1227000D02*
D03*
X1127000D02*
D03*
X1347000Y985000D02*
D03*
X1287000D02*
D03*
X1227000D02*
D03*
X1167000D02*
D03*
X1107000D02*
D03*
D22*
X666000Y930000D02*
D03*
X1073000Y1035000D02*
D03*
X1373000Y585000D02*
D03*
X1553000D02*
D03*
X1493000D02*
D03*
X1433000D02*
D03*
X1313000D02*
D03*
X1253000D02*
D03*
X1153000D02*
D03*
X1373000Y1035000D02*
D03*
X1313000D02*
D03*
X1253000D02*
D03*
X1193000D02*
D03*
X1133000D02*
D03*
D23*
X1496000Y1266200D02*
D03*
X1470000D02*
D03*
D24*
X1444000D02*
D03*
D25*
X1010000Y770000D02*
D03*
X1590000Y690000D02*
D03*
X1850000Y1280000D02*
D03*
Y470000D02*
D03*
X920000Y770000D02*
D03*
Y1060000D02*
D03*
X495037Y770845D02*
D03*
X500000Y1060000D02*
D03*
D26*
X1020000Y1112700D02*
D03*
X1320000Y1113500D02*
D03*
X1070000Y1112700D02*
D03*
X1830000Y812700D02*
D03*
X1780001Y812700D02*
D03*
X1730001D02*
D03*
X1680001D02*
D03*
X1170000Y1112700D02*
D03*
X1370000Y1113500D02*
D03*
X1120000Y1112700D02*
D03*
X1270000Y1113500D02*
D03*
X1220000D02*
D03*
X1590000Y1017300D02*
D03*
X1160000Y772700D02*
D03*
X1110000D02*
D03*
X1060000D02*
D03*
D27*
X1545000Y1140000D02*
D03*
X1697500Y595250D02*
D03*
X1035000Y690000D02*
D03*
D28*
X1570000Y1140000D02*
D03*
X1722500Y595250D02*
D03*
X1684750Y1082500D02*
D03*
X1060000Y690000D02*
D03*
X1340000Y900000D02*
D03*
D31*
X1810000Y720000D02*
D03*
Y700000D02*
D03*
Y680000D02*
D03*
Y660000D02*
D03*
X560000Y1020000D02*
D03*
X580000Y810000D02*
D03*
X670000Y1020000D02*
D03*
X520000Y810000D02*
D03*
D32*
X1810000Y640000D02*
D03*
D33*
X1684750Y1057500D02*
D03*
X1340000Y875000D02*
D03*
D34*
X1690000Y660000D02*
D03*
Y685500D02*
D03*
X830000Y825500D02*
D03*
Y800000D02*
D03*
X1690000Y1190000D02*
D03*
Y1215500D02*
D03*
X830000Y950000D02*
D03*
Y975500D02*
D03*
D35*
X1690000Y711000D02*
D03*
X830000Y851000D02*
D03*
X1690000Y1241000D02*
D03*
X830000Y1001000D02*
D03*
D38*
X1760319Y673357D02*
D03*
Y693357D02*
D03*
X1580000Y1210000D02*
D03*
X1560000D02*
D03*
D39*
X1760319Y713357D02*
D03*
D40*
X1540000Y1210000D02*
D03*
D41*
X540000Y1020000D02*
D03*
X600000Y810000D02*
D03*
X650000Y1020000D02*
D03*
X540000Y810000D02*
D03*
D47*
X1826333Y1273668D02*
G03*
X1843667Y1256332I23668J6333D01*
G01*
X1550000Y1000000D02*
X1660000D01*
X532343Y980000D02*
X590000D01*
X640000Y930000D02*
X666000D01*
X590000Y980000D02*
X640000Y930000D01*
X1535757Y998870D02*
X1538100Y1001213D01*
X1533639Y998870D02*
X1535757D01*
Y977330D02*
X1538100Y974987D01*
Y1001213D02*
Y1021900D01*
Y962700D02*
Y974987D01*
X1527330Y992561D02*
X1533639Y998870D01*
X1481750Y1078250D02*
X1538100Y1021900D01*
X1527330Y983639D02*
Y992561D01*
Y983639D02*
X1533639Y977330D01*
X1154450Y1078250D02*
X1481750D01*
X1533639Y977330D02*
X1535757D01*
X530000Y820000D02*
Y977657D01*
Y820000D02*
X540000Y810000D01*
X530000Y977657D02*
X532343Y980000D01*
X1060000Y822700D02*
X1110000Y772700D01*
X1060000Y822700D02*
Y927300D01*
X1011900Y608100D02*
X1070800D01*
X1132700Y670000D01*
X1810000Y1290000D02*
X1826333Y1273668D01*
X1843667Y1256332D02*
X1870000Y1230000D01*
Y720000D02*
Y1230000D01*
X1192700Y1290000D02*
X1810000D01*
X1069235Y968065D02*
Y1020765D01*
Y968065D02*
X1110000Y927300D01*
X1030000Y1060000D02*
X1069235Y1020765D01*
X1010000Y940000D02*
Y980000D01*
X990000Y1000000D02*
X1010000Y980000D01*
X990000Y1200000D02*
Y1297657D01*
Y1000000D02*
Y1110000D01*
X1167300Y1120000D02*
X1170000D01*
X1020000Y1267300D02*
X1167300Y1120000D01*
X1233876Y1198100D02*
X1411900D01*
X1171913Y1260063D02*
X1233876Y1198100D01*
X1171913Y1260063D02*
Y1265387D01*
X1170000Y1267300D02*
X1171913Y1265387D01*
X1488100Y1147300D02*
X1537700D01*
X1545000Y1140000D01*
X1542424Y1250000D02*
X1548756Y1256332D01*
X1496000Y1266200D02*
X1512200Y1250000D01*
X1542424D01*
X1548756Y1256332D02*
Y1258756D01*
X1550000Y1260000D01*
X1411900Y1149724D02*
X1502176Y1240000D01*
X1542700D02*
X1562700Y1260000D01*
X1502176Y1240000D02*
X1542700D01*
X1401620Y1255680D02*
X1485480D01*
X1496000Y1266200D01*
X1387300Y1270000D02*
X1401620Y1255680D01*
X1537300Y1260000D02*
Y1271275D01*
X1527305Y1281270D02*
X1537300Y1271275D01*
X1232700Y1270000D02*
X1309832D01*
X1321102Y1281270D01*
X1527305D01*
X1562700Y1260000D02*
X1562700D01*
X1411900Y1147300D02*
Y1149724D01*
X1240000Y1147300D02*
X1411900D01*
X1120000Y1267300D02*
X1240000Y1147300D01*
X1488701Y1158070D02*
X1535500Y1204869D01*
X1483639Y1158070D02*
X1488701D01*
X1462099Y1136530D02*
X1483639Y1158070D01*
X1535500Y1205500D02*
X1540000Y1210000D01*
X1393030Y1136530D02*
X1462099D01*
X1370000Y1113500D02*
X1393030Y1136530D01*
X1535500Y1204869D02*
Y1205500D01*
X1471129Y1121900D02*
X1483129Y1109900D01*
X1411900Y1121900D02*
X1471129D01*
X1320000Y1113500D02*
X1370000D01*
X1810000Y660000D02*
X1870000Y720000D01*
X1042700Y480000D02*
X1080000D01*
X1100000Y460000D01*
X1787657D01*
X1790000Y462343D01*
Y680000D01*
X1459393Y700000D02*
X1490000D01*
X1400000Y759393D02*
X1459393Y700000D01*
X1400000Y759393D02*
Y780000D01*
X1627300Y490000D02*
Y722700D01*
X1552700Y797300D02*
X1627300Y722700D01*
X1617300Y480000D02*
X1627300Y490000D01*
X1450000Y720000D02*
Y749950D01*
X1420000Y780000D02*
X1450000D01*
X1385000Y735000D02*
Y780000D01*
Y735000D02*
X1400000Y720000D01*
X1170000Y1267300D02*
X1192700Y1290000D01*
X1315047Y1052250D02*
X1380145D01*
X1385530Y1065250D02*
X1403250Y1047530D01*
X1383750Y887694D02*
Y1039453D01*
X1177797Y1035000D02*
X1208047Y1065250D01*
X1741900Y1082700D02*
X1830000Y994600D01*
X1377453Y1045750D02*
X1383750Y1039453D01*
X1403250Y848250D02*
Y1047530D01*
X1668501Y972064D02*
X1670000Y973562D01*
X1117797Y1035000D02*
X1154547Y1071750D01*
X1780001Y967300D02*
X1841500Y905801D01*
X1409750Y829750D02*
Y1050222D01*
X1351751Y1045750D02*
X1377453D01*
X1388222Y1071750D02*
X1409750Y1050222D01*
X1483129Y1109900D02*
X1659900D01*
X1660000Y1110000D01*
X1462700Y1012700D02*
X1538100Y937300D01*
X1841500Y784200D02*
Y905801D01*
X1380145Y1052250D02*
X1390250Y1042145D01*
X1154547Y1071750D02*
X1388222D01*
X1237797Y1035000D02*
X1261547Y1058750D01*
X1341001Y1035000D02*
X1351751Y1045750D01*
X1396750Y866750D02*
Y1044837D01*
X1261547Y1058750D02*
X1382838D01*
X1390250Y880250D02*
Y1042145D01*
X1208047Y1065250D02*
X1385530D01*
X1462700Y1012700D02*
Y1060000D01*
X1670000Y973562D02*
Y1170000D01*
X1668501Y844564D02*
Y972064D01*
X1382838Y1058750D02*
X1396750Y1044837D01*
X1313000Y1035000D02*
X1341001D01*
X1827300Y770000D02*
X1841500Y784200D01*
X1790000Y680000D02*
X1810000Y700000D01*
X1780950Y1119850D02*
Y1168250D01*
X1743800Y1205400D02*
X1780950Y1168250D01*
Y1119850D02*
X1818100Y1082700D01*
X1830000Y967300D02*
Y994600D01*
X1704500Y674500D02*
Y808565D01*
X1668501Y844564D02*
X1704500Y808565D01*
X1538100Y988100D02*
X1550000Y1000000D01*
X1670000Y1170000D02*
X1690000Y1190000D01*
X1730001Y723675D02*
X1760319Y693357D01*
X1730001Y723675D02*
Y812700D01*
X1690000Y660000D02*
X1704500Y674500D01*
X1722500Y595250D02*
Y627500D01*
X1690000Y660000D02*
X1722500Y627500D01*
X1830000Y793064D02*
Y812700D01*
X1810000Y773064D02*
X1830000Y793064D01*
X1810000Y720000D02*
Y773064D01*
X1741800Y1082600D02*
X1741900Y1082700D01*
X1684850Y1082600D02*
X1741800D01*
X1684750Y1082500D02*
X1684850Y1082600D01*
X1730001Y967300D02*
X1780001D01*
X1160000Y772700D02*
X1192700D01*
X1213800Y910800D02*
X1260000Y864600D01*
Y840000D02*
Y864600D01*
X1192700Y772700D02*
X1260000Y840000D01*
X1208800Y915800D02*
X1213800Y910800D01*
X1385000Y780000D02*
X1424898Y819898D01*
Y900298D02*
X1461900Y937300D01*
X1424898Y819898D02*
Y900298D01*
X1461900Y797300D02*
X1490000Y825400D01*
X1461900Y962700D02*
X1490000Y934600D01*
Y825400D02*
Y934600D01*
X1461900Y962700D02*
Y988100D01*
X1120000Y1112700D02*
X1154450Y1078250D01*
X1073000Y1035000D02*
X1117797D01*
X1467000Y487006D02*
Y535000D01*
X1462700Y482706D02*
X1467000Y487006D01*
X1462700Y480000D02*
Y482706D01*
X1449900Y779900D02*
X1450000Y780000D01*
X1449900Y750050D02*
Y779900D01*
Y750050D02*
X1450000Y749950D01*
X1011900Y582700D02*
X1071130D01*
X1084179Y595750D02*
X1166250D01*
X1071130Y582700D02*
X1084179Y595750D01*
X1166250D02*
X1227000Y535000D01*
X1287000D02*
Y669700D01*
X1287300Y670000D01*
X1140364Y557300D02*
X1217664Y480000D01*
X1255400D01*
X1088100Y557300D02*
X1140364D01*
X1340000Y633203D02*
X1417750Y555453D01*
Y517932D02*
Y555453D01*
X1340000Y633203D02*
Y670000D01*
X1410000Y510182D02*
X1417750Y517932D01*
X1410000Y480000D02*
Y510182D01*
X1538100Y797300D02*
X1552700D01*
X1360000Y780000D02*
X1409750Y829750D01*
X1373000Y886136D02*
Y1035000D01*
X1296100Y816100D02*
X1312156D01*
X1383750Y887694D01*
X1309464Y822600D02*
X1373000Y886136D01*
X1160000Y927300D02*
X1312700D01*
X1340000Y900000D01*
X1538100Y797300D02*
Y822700D01*
X1461900Y797300D02*
X1512700D01*
X1538100Y771900D01*
X1461900Y822700D02*
Y848100D01*
X1538100Y937300D02*
X1590000Y885400D01*
Y862700D02*
Y885400D01*
X781632Y1030000D02*
X850000D01*
X940000Y940000D02*
X1010000D01*
X850000Y1030000D02*
X940000Y940000D01*
X761632Y1010000D02*
X781632Y1030000D01*
X745000Y1010000D02*
X761632D01*
X1290000Y860000D02*
X1325000D01*
X1340000Y875000D01*
X1366200Y761200D02*
X1385000Y780000D01*
X1101136Y761200D02*
X1366200D01*
X1065000Y767700D02*
X1094636D01*
X1101136Y761200D01*
X1060000Y772700D02*
X1065000Y767700D01*
X1110000Y927300D02*
X1143736D01*
X1155237Y915800D01*
X1208800D01*
X1282600Y822600D02*
X1309464D01*
X1235000Y780000D02*
X1236913Y781913D01*
X1241913D01*
X1282600Y822600D01*
X1285000Y780000D02*
X1286913Y781913D01*
X1291913D01*
X1390250Y880250D01*
X1335000Y780000D02*
X1403250Y848250D01*
X1133000Y1035000D02*
X1177797D01*
X1310000Y780000D02*
X1396750Y866750D01*
X1193000Y1035000D02*
X1237797D01*
X1297797D02*
X1315047Y1052250D01*
X1253000Y1035000D02*
X1297797D01*
X1260000Y780000D02*
X1296100Y816100D01*
X666000Y930000D02*
X667626Y931626D01*
Y941390D02*
X708061Y981825D01*
X667626Y931626D02*
Y941390D01*
X751825Y981825D02*
X780000Y1010000D01*
X708061Y981825D02*
X751825D01*
D48*
X560000Y878250D02*
D03*
D49*
Y941750D02*
D03*
D50*
X1537300Y1260000D02*
D03*
X1594600D02*
D03*
D51*
X1550000D02*
D03*
X1562700D02*
D03*
X1607300D02*
D03*
X1620000D02*
D03*
D52*
X1741900Y1108100D02*
D03*
X1743800Y1256200D02*
D03*
X1411900Y1198100D02*
D03*
X1011900Y608100D02*
D03*
X1461900Y988100D02*
D03*
Y848100D02*
D03*
X1213800Y910800D02*
D03*
X693800Y946200D02*
D03*
D53*
X1741900Y1082700D02*
D03*
Y1057300D02*
D03*
Y1031900D02*
D03*
X1818100Y1108100D02*
D03*
Y1082700D02*
D03*
Y1057300D02*
D03*
Y1031900D02*
D03*
X1743800Y1230800D02*
D03*
Y1205400D02*
D03*
Y1180000D02*
D03*
X1820000Y1256200D02*
D03*
Y1230800D02*
D03*
Y1205400D02*
D03*
Y1180000D02*
D03*
X1411900Y1172700D02*
D03*
Y1147300D02*
D03*
Y1121900D02*
D03*
X1488100Y1198100D02*
D03*
Y1172700D02*
D03*
Y1147300D02*
D03*
Y1121900D02*
D03*
X1011900Y582700D02*
D03*
Y557300D02*
D03*
Y531900D02*
D03*
X1088100Y608100D02*
D03*
Y582700D02*
D03*
Y557300D02*
D03*
Y531900D02*
D03*
X1461900Y962700D02*
D03*
Y937300D02*
D03*
Y911900D02*
D03*
X1538100Y988100D02*
D03*
Y962700D02*
D03*
Y937300D02*
D03*
Y911900D02*
D03*
X1461900Y822700D02*
D03*
Y797300D02*
D03*
Y771900D02*
D03*
X1538100Y848100D02*
D03*
Y822700D02*
D03*
Y797300D02*
D03*
Y771900D02*
D03*
X1213800Y885400D02*
D03*
Y860000D02*
D03*
Y834600D02*
D03*
X1290000Y910800D02*
D03*
Y885400D02*
D03*
Y860000D02*
D03*
Y834600D02*
D03*
X693800Y920800D02*
D03*
Y895400D02*
D03*
Y870000D02*
D03*
X770000Y946200D02*
D03*
Y920800D02*
D03*
Y895400D02*
D03*
Y870000D02*
D03*
D54*
X440000Y820000D02*
D03*
D55*
X414600D02*
D03*
X389200D02*
D03*
D56*
X1660000Y1000000D02*
D03*
X990000Y1297657D02*
D03*
Y1200000D02*
D03*
Y1110000D02*
D03*
Y1130000D02*
D03*
X1030000Y1060000D02*
D03*
X1490000Y700000D02*
D03*
X1450000Y720000D02*
D03*
X1400000Y780000D02*
D03*
X1420000D02*
D03*
X1400000Y720000D02*
D03*
X1660000Y1110000D02*
D03*
X1460000Y720000D02*
D03*
Y750000D02*
D03*
X1450000Y780000D02*
D03*
X1010000Y920000D02*
D03*
Y890000D02*
D03*
Y940000D02*
D03*
M02*
