G04*
G04 #@! TF.GenerationSoftware,Altium Limited,Altium Designer,23.5.1 (21)*
G04*
G04 Layer_Physical_Order=1*
G04 Layer_Color=255*
%FSLAX44Y44*%
%MOMM*%
G71*
G04*
G04 #@! TF.SameCoordinates,CC7C8F1B-8EDA-4CA8-81C5-A987C7989BB4*
G04*
G04*
G04 #@! TF.FilePolarity,Positive*
G04*
G01*
G75*
%ADD12C,0.6000*%
%ADD15C,1.4000*%
%ADD16R,1.4000X1.4000*%
%ADD17C,2.0500*%
%ADD18R,2.0500X2.0500*%
%ADD21R,1.2500X1.2500*%
%ADD22C,1.2500*%
%ADD23C,1.4500*%
%ADD24R,1.4500X1.4500*%
%ADD25C,4.0000*%
%ADD26R,1.4000X1.4000*%
%ADD27R,1.5500X1.5500*%
%ADD28C,1.5500*%
%ADD31C,1.2000*%
%ADD32R,1.2000X1.2000*%
%ADD33R,1.5500X1.5500*%
%ADD34C,2.0000*%
%ADD35R,2.0000X2.0000*%
%ADD38C,1.3000*%
%ADD39R,1.3000X1.3000*%
%ADD40R,1.3000X1.3000*%
%ADD41R,1.2000X1.2000*%
%ADD47C,0.4000*%
%ADD48C,1.8000*%
%ADD49R,1.8000X1.8000*%
%ADD50R,1.0500X1.0500*%
%ADD51C,1.0500*%
%ADD52R,1.5000X1.5000*%
%ADD53C,1.5000*%
%ADD54R,1.6000X1.6000*%
%ADD55C,1.6000*%
%ADD56C,0.6000*%
G36*
X1510000Y1223104D02*
X1443540D01*
X1442264Y1222850D01*
X1441183Y1222128D01*
X1438619Y1219564D01*
X1376556D01*
X1376030Y1220834D01*
X1376618Y1221422D01*
X1377706Y1223308D01*
X1378270Y1225411D01*
Y1225865D01*
X1370000D01*
X1361730D01*
Y1225411D01*
X1362294Y1223308D01*
X1363382Y1221422D01*
X1363970Y1220834D01*
X1363444Y1219564D01*
X1326556D01*
X1326030Y1220834D01*
X1326618Y1221422D01*
X1327706Y1223308D01*
X1328270Y1225411D01*
Y1225865D01*
X1320000D01*
X1311730D01*
Y1225411D01*
X1312294Y1223308D01*
X1313382Y1221422D01*
X1313970Y1220834D01*
X1313444Y1219564D01*
X1281651D01*
X1277749Y1223466D01*
X1278270Y1225411D01*
Y1227589D01*
X1277706Y1229692D01*
X1276618Y1231578D01*
X1275078Y1233118D01*
X1273192Y1234206D01*
X1271089Y1234770D01*
X1268911D01*
X1266808Y1234206D01*
X1264922Y1233118D01*
X1263382Y1231578D01*
X1262376Y1229834D01*
X1227624D01*
X1226618Y1231578D01*
X1225078Y1233118D01*
X1223192Y1234206D01*
X1221089Y1234770D01*
X1218911D01*
X1216808Y1234206D01*
X1214922Y1233118D01*
X1213382Y1231578D01*
X1212294Y1229692D01*
X1211730Y1227589D01*
Y1225411D01*
X1212294Y1223308D01*
X1213382Y1221422D01*
X1214922Y1219882D01*
X1216808Y1218794D01*
X1218911Y1218230D01*
X1221089D01*
X1223192Y1218794D01*
X1225078Y1219882D01*
X1226618Y1221422D01*
X1227624Y1223166D01*
X1262376D01*
X1263382Y1221422D01*
X1264922Y1219882D01*
X1266808Y1218794D01*
X1268911Y1218230D01*
X1271089D01*
X1273034Y1218751D01*
X1277913Y1213873D01*
X1278994Y1213150D01*
X1280270Y1212896D01*
X1440000D01*
X1441276Y1213150D01*
X1442358Y1213873D01*
X1444921Y1216436D01*
X1510000D01*
Y1100000D01*
X1491434D01*
Y1113714D01*
X1491485Y1113728D01*
X1493485Y1114882D01*
X1495118Y1116515D01*
X1496272Y1118515D01*
X1496870Y1120745D01*
Y1123055D01*
X1496272Y1125285D01*
X1495118Y1127285D01*
X1493485Y1128918D01*
X1491485Y1130072D01*
X1489255Y1130670D01*
X1486945D01*
X1484715Y1130072D01*
X1482715Y1128918D01*
X1481082Y1127285D01*
X1479928Y1125285D01*
X1479330Y1123055D01*
Y1120745D01*
X1479928Y1118515D01*
X1481082Y1116515D01*
X1482715Y1114882D01*
X1484715Y1113728D01*
X1484766Y1113714D01*
Y1100000D01*
X1421774D01*
X1421288Y1101173D01*
X1484669Y1164554D01*
X1484715Y1164528D01*
X1486945Y1163930D01*
X1489255D01*
X1491485Y1164528D01*
X1493485Y1165682D01*
X1495118Y1167315D01*
X1496272Y1169315D01*
X1496870Y1171545D01*
Y1173855D01*
X1496272Y1176085D01*
X1495118Y1178085D01*
X1493485Y1179718D01*
X1491485Y1180872D01*
X1489255Y1181470D01*
X1486945D01*
X1484715Y1180872D01*
X1482715Y1179718D01*
X1481082Y1178085D01*
X1479928Y1176085D01*
X1479330Y1173855D01*
Y1171545D01*
X1479928Y1169315D01*
X1479954Y1169269D01*
X1410685Y1100000D01*
X1018791D01*
X1015534Y1103257D01*
X1016020Y1104430D01*
X1028270D01*
Y1116255D01*
X1032881Y1120866D01*
X1061730D01*
Y1104430D01*
X1078270D01*
Y1120866D01*
X1111730D01*
Y1104430D01*
X1128270D01*
Y1120970D01*
X1123141D01*
X1123080Y1121276D01*
X1122357Y1122357D01*
X1118158Y1126557D01*
X1117076Y1127280D01*
X1115800Y1127534D01*
X1031500D01*
X1030224Y1127280D01*
X1029143Y1126557D01*
X1023555Y1120970D01*
X1011730D01*
Y1108720D01*
X1010557Y1108234D01*
X1008413Y1110378D01*
Y1184921D01*
X1008159Y1186197D01*
X1007436Y1187279D01*
X994270Y1200445D01*
Y1200849D01*
X993620Y1202419D01*
X992419Y1203620D01*
X990849Y1204270D01*
X989151D01*
X987581Y1203620D01*
X986380Y1202419D01*
X985730Y1200849D01*
Y1199151D01*
X986380Y1197581D01*
X987581Y1196380D01*
X989151Y1195730D01*
X989555D01*
X1001745Y1183540D01*
Y1124630D01*
X1000571Y1124144D01*
X994270Y1130445D01*
Y1130849D01*
X993620Y1132419D01*
X992419Y1133620D01*
X990849Y1134270D01*
X989151D01*
X987581Y1133620D01*
X986380Y1132419D01*
X985730Y1130849D01*
Y1129151D01*
X986380Y1127581D01*
X987581Y1126380D01*
X989151Y1125730D01*
X989555D01*
X996475Y1118810D01*
Y1100000D01*
X980000D01*
Y1260000D01*
X1016104D01*
X1016808Y1259594D01*
X1018911Y1259030D01*
X1019154D01*
X1019556Y1258429D01*
X1020638Y1257706D01*
X1021913Y1257452D01*
X1023189Y1257706D01*
X1024271Y1258429D01*
X1024994Y1259511D01*
X1025091Y1260000D01*
X1066104D01*
X1066808Y1259594D01*
X1068911Y1259030D01*
X1071089D01*
X1073192Y1259594D01*
X1073896Y1260000D01*
X1108061D01*
X1130418Y1237643D01*
X1131500Y1236920D01*
X1132776Y1236666D01*
X1443800D01*
X1445076Y1236920D01*
X1446158Y1237643D01*
X1466762Y1258247D01*
X1468878Y1257680D01*
X1471122D01*
X1473289Y1258261D01*
X1475231Y1259382D01*
X1475849Y1260000D01*
X1490151D01*
X1490769Y1259382D01*
X1492711Y1258261D01*
X1494878Y1257680D01*
X1497122D01*
X1499289Y1258261D01*
X1501231Y1259382D01*
X1501849Y1260000D01*
X1510000D01*
Y1223104D01*
D02*
G37*
G36*
X1457912Y1258827D02*
X1442419Y1243334D01*
X1134157D01*
X1119731Y1257760D01*
X1120257Y1259030D01*
X1121089D01*
X1123192Y1259594D01*
X1123896Y1260000D01*
X1166104D01*
X1166808Y1259594D01*
X1168911Y1259030D01*
X1171089D01*
X1173192Y1259594D01*
X1173896Y1260000D01*
X1435480D01*
Y1257680D01*
X1452520D01*
Y1260000D01*
X1457426D01*
X1457912Y1258827D01*
D02*
G37*
G36*
X1880000Y530000D02*
X1779834D01*
Y575119D01*
X1821628Y616912D01*
X1822350Y617994D01*
X1822604Y619270D01*
Y670730D01*
X1822350Y672006D01*
X1821628Y673087D01*
X1816932Y677783D01*
X1817270Y679043D01*
Y680957D01*
X1816775Y682806D01*
X1815818Y684464D01*
X1814464Y685817D01*
X1812806Y686775D01*
X1810957Y687270D01*
X1809043D01*
X1807194Y686775D01*
X1805536Y685817D01*
X1804183Y684464D01*
X1803226Y682806D01*
X1802730Y680957D01*
Y679043D01*
X1803226Y677194D01*
X1804183Y675536D01*
X1805536Y674183D01*
X1807194Y673225D01*
X1809043Y672730D01*
X1810957D01*
X1812217Y673068D01*
X1815936Y669349D01*
Y666141D01*
X1814666Y665615D01*
X1814464Y665817D01*
X1812806Y666775D01*
X1810957Y667270D01*
X1809043D01*
X1807194Y666775D01*
X1805536Y665817D01*
X1804183Y664464D01*
X1803226Y662806D01*
X1802730Y660957D01*
Y659043D01*
X1803226Y657194D01*
X1804183Y655536D01*
X1805536Y654183D01*
X1807194Y653225D01*
X1809043Y652730D01*
X1810957D01*
X1812806Y653225D01*
X1814464Y654183D01*
X1814666Y654385D01*
X1815936Y653859D01*
Y647270D01*
X1802730D01*
Y636322D01*
X1802666Y636000D01*
Y617381D01*
X1715285Y530000D01*
X1664715D01*
X1650000Y544715D01*
Y808347D01*
X1671731D01*
Y804430D01*
X1688271D01*
Y820970D01*
X1684355D01*
Y892333D01*
X1684023Y893999D01*
X1683080Y895412D01*
X1671855Y906636D01*
Y962330D01*
X1673125Y962671D01*
X1673383Y962222D01*
X1674923Y960683D01*
X1676809Y959594D01*
X1678912Y959030D01*
X1681090D01*
X1683193Y959594D01*
X1685079Y960683D01*
X1686619Y962222D01*
X1687626Y963966D01*
X1713738D01*
X1715014Y964220D01*
X1716095Y964943D01*
X1720737Y969584D01*
X1721875Y968927D01*
X1721731Y968389D01*
Y966211D01*
X1722295Y964108D01*
X1723383Y962222D01*
X1724923Y960683D01*
X1726809Y959594D01*
X1728912Y959030D01*
X1731090D01*
X1733193Y959594D01*
X1735079Y960683D01*
X1736619Y962222D01*
X1737708Y964108D01*
X1738271Y966211D01*
Y968389D01*
X1737708Y970492D01*
X1736619Y972378D01*
X1735079Y973918D01*
X1733193Y975007D01*
X1731090Y975570D01*
X1728912D01*
X1728375Y975426D01*
X1727717Y976565D01*
X1779718Y1028566D01*
X1809914D01*
X1809928Y1028515D01*
X1811082Y1026515D01*
X1812715Y1024882D01*
X1814715Y1023728D01*
X1816945Y1023130D01*
X1819255D01*
X1821485Y1023728D01*
X1823485Y1024882D01*
X1825118Y1026515D01*
X1826272Y1028515D01*
X1826870Y1030745D01*
Y1033055D01*
X1826272Y1035285D01*
X1825118Y1037285D01*
X1823485Y1038918D01*
X1821485Y1040072D01*
X1819255Y1040670D01*
X1816945D01*
X1814715Y1040072D01*
X1812715Y1038918D01*
X1811082Y1037285D01*
X1809928Y1035285D01*
X1809914Y1035234D01*
X1778338D01*
X1777062Y1034980D01*
X1775980Y1034258D01*
X1712357Y970634D01*
X1687626D01*
X1686619Y972378D01*
X1685079Y973918D01*
X1683193Y975007D01*
X1681090Y975570D01*
X1678912D01*
X1676809Y975007D01*
X1674923Y973918D01*
X1673383Y972378D01*
X1673125Y971930D01*
X1671855Y972270D01*
Y981098D01*
X1739595Y1048838D01*
X1740745Y1048530D01*
X1743055D01*
X1745285Y1049128D01*
X1747285Y1050282D01*
X1748918Y1051915D01*
X1750072Y1053915D01*
X1750670Y1056145D01*
Y1058455D01*
X1750072Y1060685D01*
X1748918Y1062685D01*
X1747285Y1064318D01*
X1745285Y1065472D01*
X1743055Y1066070D01*
X1740745D01*
X1738515Y1065472D01*
X1736515Y1064318D01*
X1734882Y1062685D01*
X1733728Y1060685D01*
X1733130Y1058455D01*
Y1056145D01*
X1733438Y1054995D01*
X1692300Y1013857D01*
X1675854Y1030303D01*
Y1048480D01*
X1693770D01*
Y1061805D01*
X1711556Y1079591D01*
X1716725D01*
X1718001Y1079845D01*
X1719082Y1080567D01*
X1737845Y1099330D01*
X1750670D01*
Y1112155D01*
X1765181Y1126666D01*
X1826276D01*
X1844166Y1108776D01*
Y1080608D01*
X1842896Y1080082D01*
X1837921Y1085058D01*
X1836839Y1085780D01*
X1835563Y1086034D01*
X1826286D01*
X1826272Y1086085D01*
X1825118Y1088085D01*
X1823485Y1089718D01*
X1821485Y1090872D01*
X1819255Y1091470D01*
X1816945D01*
X1814715Y1090872D01*
X1812715Y1089718D01*
X1811082Y1088085D01*
X1809928Y1086085D01*
X1809330Y1083855D01*
Y1081545D01*
X1809928Y1079315D01*
X1811082Y1077315D01*
X1812715Y1075682D01*
X1814715Y1074528D01*
X1816945Y1073930D01*
X1819255D01*
X1821485Y1074528D01*
X1823485Y1075682D01*
X1825118Y1077315D01*
X1826272Y1079315D01*
X1826286Y1079366D01*
X1834182D01*
X1837666Y1075882D01*
Y1069045D01*
X1836396Y1068519D01*
X1834514Y1070401D01*
X1833433Y1071124D01*
X1832157Y1071377D01*
X1828843D01*
X1827567Y1071124D01*
X1826486Y1070401D01*
X1821531Y1065446D01*
X1821485Y1065472D01*
X1819255Y1066070D01*
X1816945D01*
X1814715Y1065472D01*
X1812715Y1064318D01*
X1811082Y1062685D01*
X1809928Y1060685D01*
X1809330Y1058455D01*
Y1056145D01*
X1809928Y1053915D01*
X1811082Y1051915D01*
X1812715Y1050282D01*
X1814715Y1049128D01*
X1816945Y1048530D01*
X1819255D01*
X1821485Y1049128D01*
X1823485Y1050282D01*
X1825118Y1051915D01*
X1826272Y1053915D01*
X1826870Y1056145D01*
Y1058455D01*
X1826272Y1060685D01*
X1826246Y1060731D01*
X1829940Y1064425D01*
X1831166Y1063917D01*
Y1001465D01*
X1800335Y970634D01*
X1787626D01*
X1786619Y972378D01*
X1785079Y973918D01*
X1783193Y975007D01*
X1781090Y975570D01*
X1778912D01*
X1776809Y975007D01*
X1774923Y973918D01*
X1773384Y972378D01*
X1772295Y970492D01*
X1771731Y968389D01*
Y966211D01*
X1772295Y964108D01*
X1773384Y962222D01*
X1774923Y960683D01*
X1776809Y959594D01*
X1778912Y959030D01*
X1781090D01*
X1783193Y959594D01*
X1785079Y960683D01*
X1786619Y962222D01*
X1787626Y963966D01*
X1801716D01*
X1802666Y964155D01*
X1803366Y963059D01*
X1715144Y874836D01*
X1714421Y873755D01*
X1714167Y872479D01*
Y816182D01*
X1675734Y777749D01*
X1673789Y778270D01*
X1671611D01*
X1669508Y777706D01*
X1667622Y776618D01*
X1666082Y775078D01*
X1664994Y773192D01*
X1664430Y771089D01*
Y768911D01*
X1664994Y766808D01*
X1666082Y764922D01*
X1667622Y763382D01*
X1669508Y762294D01*
X1671611Y761730D01*
X1673789D01*
X1675892Y762294D01*
X1677778Y763382D01*
X1679318Y764922D01*
X1680406Y766808D01*
X1680970Y768911D01*
Y771089D01*
X1680449Y773034D01*
X1719859Y812444D01*
X1720461Y813345D01*
X1721203Y813314D01*
X1721731Y813134D01*
Y804430D01*
X1738271D01*
Y820970D01*
X1722105D01*
X1721731Y820970D01*
X1720835Y821869D01*
Y871098D01*
X1821644Y971906D01*
X1822660Y971126D01*
X1822294Y970492D01*
X1821730Y968389D01*
Y966211D01*
X1822294Y964108D01*
X1823382Y962222D01*
X1824922Y960682D01*
X1826808Y959594D01*
X1828911Y959030D01*
X1831089D01*
X1833192Y959594D01*
X1834881Y960569D01*
X1835601Y960302D01*
X1836118Y959927D01*
Y880833D01*
X1777644Y822359D01*
X1776921Y821277D01*
X1776860Y820970D01*
X1771731D01*
Y804430D01*
X1788271D01*
Y820970D01*
X1787345D01*
X1786859Y822144D01*
X1841810Y877095D01*
X1842532Y878176D01*
X1842786Y879452D01*
Y959108D01*
X1849858Y966179D01*
X1850396Y966985D01*
X1851666Y966704D01*
Y743724D01*
X1841776Y733834D01*
X1805651D01*
X1804375Y733580D01*
X1803293Y732858D01*
X1768961Y698525D01*
X1768324Y697572D01*
X1767671Y697437D01*
X1766940Y697428D01*
X1766536Y698128D01*
X1765090Y699575D01*
X1763318Y700598D01*
X1761342Y701127D01*
X1759296D01*
X1757319Y700598D01*
X1755548Y699575D01*
X1754101Y698128D01*
X1753078Y696357D01*
X1752549Y694380D01*
Y692335D01*
X1753078Y690358D01*
X1754101Y688587D01*
X1755548Y687140D01*
X1757319Y686117D01*
X1759296Y685587D01*
X1761342D01*
X1763318Y686117D01*
X1765090Y687140D01*
X1766536Y688587D01*
X1766715Y688896D01*
X1767985Y688555D01*
Y678160D01*
X1766715Y677819D01*
X1766536Y678128D01*
X1765090Y679575D01*
X1763318Y680598D01*
X1761342Y681127D01*
X1760954D01*
Y673357D01*
X1760319D01*
Y672722D01*
X1752549D01*
Y672335D01*
X1753078Y670358D01*
X1754101Y668587D01*
X1755548Y667140D01*
X1756204Y666761D01*
X1755864Y665491D01*
X1740224D01*
X1701270Y704445D01*
Y722270D01*
X1678730D01*
Y699730D01*
X1696555D01*
X1736486Y659799D01*
X1737567Y659077D01*
X1738843Y658823D01*
X1764674D01*
X1765950Y659077D01*
X1767032Y659799D01*
X1773676Y666444D01*
X1774399Y667525D01*
X1774653Y668801D01*
Y694787D01*
X1801632Y721766D01*
X1802771Y721109D01*
X1802730Y720957D01*
Y719043D01*
X1803226Y717194D01*
X1804183Y715536D01*
X1805536Y714183D01*
X1807194Y713225D01*
X1809043Y712730D01*
X1810957D01*
X1812806Y713225D01*
X1814464Y714183D01*
X1815818Y715536D01*
X1816775Y717194D01*
X1817270Y719043D01*
Y720957D01*
X1816775Y722806D01*
X1815818Y724464D01*
X1814464Y725817D01*
X1814328Y725896D01*
X1814668Y727166D01*
X1843157D01*
X1844433Y727420D01*
X1845515Y728142D01*
X1857358Y739986D01*
X1858080Y741067D01*
X1858334Y742343D01*
Y1239585D01*
X1858080Y1240861D01*
X1857358Y1241942D01*
X1841513Y1257787D01*
X1842232Y1258864D01*
X1843437Y1258365D01*
X1847784Y1257500D01*
X1852216D01*
X1856563Y1258365D01*
X1860658Y1260061D01*
X1864343Y1262523D01*
X1867477Y1265657D01*
X1869939Y1269342D01*
X1871635Y1273437D01*
X1872500Y1277784D01*
Y1282216D01*
X1871635Y1286563D01*
X1869939Y1290658D01*
X1867477Y1294343D01*
X1864343Y1297477D01*
X1860658Y1299939D01*
X1856563Y1301635D01*
X1852216Y1302500D01*
X1847784D01*
X1843437Y1301635D01*
X1839342Y1299939D01*
X1835657Y1297477D01*
X1832523Y1294343D01*
X1830061Y1290658D01*
X1828365Y1286563D01*
X1827500Y1282216D01*
Y1277784D01*
X1828365Y1273437D01*
X1828864Y1272232D01*
X1827787Y1271513D01*
X1827742Y1271557D01*
X1826661Y1272280D01*
X1825385Y1272534D01*
X1718200D01*
X1716924Y1272280D01*
X1715842Y1271557D01*
X1696555Y1252270D01*
X1678730D01*
Y1229730D01*
X1701270D01*
Y1237666D01*
X1728600D01*
X1729876Y1237920D01*
X1730957Y1238643D01*
X1739745Y1247430D01*
X1752570D01*
Y1264970D01*
X1753469Y1265866D01*
X1817282D01*
X1817449Y1264596D01*
X1816615Y1264372D01*
X1814615Y1263218D01*
X1812982Y1261585D01*
X1811828Y1259585D01*
X1811230Y1257355D01*
Y1256835D01*
X1828770D01*
Y1257355D01*
X1828172Y1259585D01*
X1827740Y1260333D01*
X1828757Y1261113D01*
X1851666Y1238204D01*
Y1111989D01*
X1850396Y1111709D01*
X1849858Y1112514D01*
X1830014Y1132357D01*
X1828933Y1133080D01*
X1827657Y1133334D01*
X1763800D01*
X1762524Y1133080D01*
X1761443Y1132357D01*
X1745955Y1116870D01*
X1733130D01*
Y1104045D01*
X1715344Y1086259D01*
X1710175D01*
X1708899Y1086005D01*
X1707817Y1085283D01*
X1689055Y1066520D01*
X1675854D01*
Y1077329D01*
X1677124Y1077669D01*
X1677532Y1076962D01*
X1679212Y1075282D01*
X1681268Y1074095D01*
X1683562Y1073480D01*
X1685938D01*
X1688232Y1074095D01*
X1690288Y1075282D01*
X1691968Y1076962D01*
X1693155Y1079018D01*
X1693770Y1081312D01*
Y1083688D01*
X1693155Y1085982D01*
X1691968Y1088038D01*
X1690288Y1089718D01*
X1688232Y1090905D01*
X1685938Y1091520D01*
X1683562D01*
X1682773Y1091309D01*
X1682116Y1092447D01*
X1765315Y1175646D01*
X1812387D01*
X1812982Y1174615D01*
X1814615Y1172982D01*
X1816615Y1171828D01*
X1818845Y1171230D01*
X1821155D01*
X1823385Y1171828D01*
X1825385Y1172982D01*
X1827018Y1174615D01*
X1828172Y1176615D01*
X1828770Y1178845D01*
Y1181155D01*
X1828172Y1183385D01*
X1827018Y1185385D01*
X1825385Y1187018D01*
X1823385Y1188172D01*
X1821155Y1188770D01*
X1818845D01*
X1816615Y1188172D01*
X1814615Y1187018D01*
X1812982Y1185385D01*
X1812387Y1184354D01*
X1763512D01*
X1761846Y1184022D01*
X1760433Y1183079D01*
X1752714Y1175359D01*
X1751697Y1176139D01*
X1751972Y1176615D01*
X1752570Y1178845D01*
Y1181155D01*
X1751972Y1183385D01*
X1750818Y1185385D01*
X1749185Y1187018D01*
X1747185Y1188172D01*
X1744955Y1188770D01*
X1742645D01*
X1740415Y1188172D01*
X1738415Y1187018D01*
X1736782Y1185385D01*
X1735628Y1183385D01*
X1735030Y1181155D01*
Y1178845D01*
X1735628Y1176615D01*
X1736782Y1174615D01*
X1738415Y1172982D01*
X1740415Y1171828D01*
X1742645Y1171230D01*
X1744955D01*
X1747185Y1171828D01*
X1747661Y1172103D01*
X1748441Y1171086D01*
X1668421Y1091067D01*
X1667478Y1089654D01*
X1667146Y1087988D01*
Y1028500D01*
X1667478Y1026834D01*
X1668421Y1025422D01*
X1686143Y1007700D01*
X1664423Y985980D01*
X1663479Y984567D01*
X1663147Y982901D01*
Y904833D01*
X1663479Y903167D01*
X1664423Y901755D01*
X1675647Y890530D01*
Y820970D01*
X1671731D01*
Y817054D01*
X1650000D01*
Y1310000D01*
X1880000D01*
Y530000D01*
D02*
G37*
G36*
X1735030Y1264970D02*
Y1252145D01*
X1727219Y1244334D01*
X1701270D01*
Y1247555D01*
X1719581Y1265866D01*
X1734131D01*
X1735030Y1264970D01*
D02*
G37*
G36*
X935239Y1087271D02*
X938508Y1085917D01*
X941450Y1083952D01*
X943952Y1081450D01*
X945917Y1078508D01*
X947271Y1075239D01*
X947961Y1071769D01*
X947961Y1070000D01*
X947961Y1070000D01*
X947961Y1070000D01*
X947961Y1050000D01*
X948116Y1049220D01*
X948558Y1048558D01*
X949220Y1048116D01*
X950000Y1047961D01*
X960000D01*
Y923334D01*
X938745D01*
X839722Y1022357D01*
X838640Y1023080D01*
X837364Y1023334D01*
X790000D01*
X788724Y1023080D01*
X787642Y1022357D01*
X783034Y1017749D01*
X781089Y1018270D01*
X778911D01*
X776808Y1017706D01*
X774922Y1016618D01*
X773382Y1015078D01*
X772294Y1013192D01*
X771730Y1011089D01*
Y1008911D01*
X772294Y1006808D01*
X773382Y1004922D01*
X774922Y1003382D01*
X776808Y1002294D01*
X778911Y1001730D01*
X781089D01*
X782701Y1002162D01*
X783358Y1001023D01*
X731869Y949534D01*
X702570D01*
Y954970D01*
X685030D01*
Y937430D01*
X702570D01*
Y942866D01*
X733250D01*
X734526Y943120D01*
X735608Y943842D01*
X789431Y997666D01*
X818730D01*
Y989730D01*
X836555D01*
X846666Y979619D01*
Y934744D01*
X827643Y915721D01*
X826920Y914639D01*
X826666Y913363D01*
Y862270D01*
X818730D01*
Y839730D01*
X841270D01*
Y862270D01*
X833334D01*
Y911982D01*
X852358Y931006D01*
X853080Y932087D01*
X853334Y933363D01*
Y981000D01*
X853080Y982276D01*
X852358Y983357D01*
X841270Y994445D01*
Y1009719D01*
X842443Y1010206D01*
X935006Y917643D01*
X936088Y916920D01*
X937364Y916666D01*
X960000D01*
Y782039D01*
X950000D01*
X949220Y781884D01*
X948558Y781442D01*
X948116Y780780D01*
X947961Y780000D01*
Y760000D01*
X947961Y758231D01*
X947271Y754761D01*
X945917Y751492D01*
X943951Y748550D01*
X941450Y746049D01*
X938508Y744083D01*
X935239Y742729D01*
X931769Y742039D01*
X930000Y742039D01*
X370000Y742039D01*
X368231Y742039D01*
X364761Y742729D01*
X361492Y744083D01*
X358550Y746049D01*
X356049Y748550D01*
X354083Y751492D01*
X352729Y754761D01*
X352039Y758231D01*
X352039Y760000D01*
X352039Y847961D01*
X470000D01*
X470780Y848116D01*
X471442Y848558D01*
X471884Y849220D01*
X472039Y850000D01*
Y970000D01*
X471884Y970780D01*
X471442Y971442D01*
X470780Y971884D01*
X470000Y972039D01*
X352039D01*
X352039Y1070000D01*
X352039Y1071769D01*
X352729Y1075239D01*
X354083Y1078508D01*
X356049Y1081449D01*
X358550Y1083951D01*
X361492Y1085917D01*
X364761Y1087271D01*
X368231Y1087961D01*
X370000Y1087961D01*
X930000Y1087961D01*
X930000Y1087961D01*
X930000Y1087961D01*
X931769Y1087961D01*
X935239Y1087271D01*
D02*
G37*
G36*
X839206Y1013443D02*
X838719Y1012270D01*
X818730D01*
Y1004334D01*
X788050D01*
X787684Y1004261D01*
X786893Y1005399D01*
X787706Y1006808D01*
X788270Y1008911D01*
Y1011089D01*
X787749Y1013034D01*
X791381Y1016666D01*
X835983D01*
X839206Y1013443D01*
D02*
G37*
G36*
X1487815Y1018730D02*
X1465955Y996870D01*
X1455680D01*
X1455194Y998043D01*
X1477151Y1020000D01*
X1487289D01*
X1487815Y1018730D01*
D02*
G37*
G36*
X1466548Y1018827D02*
X1447543Y999821D01*
X1446820Y998740D01*
X1446566Y997464D01*
Y860100D01*
X1446820Y858824D01*
X1447543Y857742D01*
X1453130Y852155D01*
Y839330D01*
X1470670D01*
Y856870D01*
X1457845D01*
X1453234Y861481D01*
Y906830D01*
X1454504Y907170D01*
X1454882Y906515D01*
X1456515Y904882D01*
X1458515Y903728D01*
X1460745Y903130D01*
X1463055D01*
X1465285Y903728D01*
X1467285Y904882D01*
X1468918Y906515D01*
X1470072Y908515D01*
X1470670Y910745D01*
Y913055D01*
X1470072Y915285D01*
X1468918Y917285D01*
X1467285Y918918D01*
X1465285Y920072D01*
X1463055Y920670D01*
X1460745D01*
X1458515Y920072D01*
X1456515Y918918D01*
X1454882Y917285D01*
X1454504Y916630D01*
X1453234Y916970D01*
Y932230D01*
X1454504Y932570D01*
X1454882Y931915D01*
X1456515Y930282D01*
X1458515Y929128D01*
X1460745Y928530D01*
X1463055D01*
X1465285Y929128D01*
X1467285Y930282D01*
X1468918Y931915D01*
X1470072Y933915D01*
X1470670Y936145D01*
Y938455D01*
X1470072Y940685D01*
X1468918Y942685D01*
X1467285Y944318D01*
X1465285Y945472D01*
X1463055Y946070D01*
X1460745D01*
X1458515Y945472D01*
X1456515Y944318D01*
X1454882Y942685D01*
X1454504Y942030D01*
X1453234Y942370D01*
Y957630D01*
X1454504Y957970D01*
X1454882Y957315D01*
X1456515Y955682D01*
X1458515Y954528D01*
X1460745Y953930D01*
X1463055D01*
X1465285Y954528D01*
X1467285Y955682D01*
X1468918Y957315D01*
X1470072Y959315D01*
X1470670Y961545D01*
Y963855D01*
X1470072Y966085D01*
X1468918Y968085D01*
X1467285Y969718D01*
X1465285Y970872D01*
X1463055Y971470D01*
X1460745D01*
X1458515Y970872D01*
X1456515Y969718D01*
X1454882Y968085D01*
X1454504Y967430D01*
X1453234Y967770D01*
Y979330D01*
X1470670D01*
Y992155D01*
X1492481Y1013966D01*
X1560000D01*
Y971651D01*
X1554383Y966034D01*
X1546286D01*
X1546272Y966085D01*
X1545118Y968085D01*
X1543485Y969718D01*
X1541485Y970872D01*
X1539255Y971470D01*
X1536945D01*
X1534715Y970872D01*
X1532715Y969718D01*
X1531082Y968085D01*
X1529928Y966085D01*
X1529330Y963855D01*
Y961545D01*
X1529928Y959315D01*
X1531082Y957315D01*
X1532715Y955682D01*
X1534715Y954528D01*
X1536945Y953930D01*
X1539255D01*
X1541485Y954528D01*
X1543485Y955682D01*
X1545118Y957315D01*
X1546272Y959315D01*
X1546286Y959366D01*
X1555764D01*
X1557040Y959620D01*
X1558121Y960342D01*
X1558827Y961048D01*
X1560000Y960562D01*
Y939957D01*
X1540405Y920362D01*
X1539255Y920670D01*
X1536945D01*
X1534715Y920072D01*
X1532715Y918918D01*
X1531082Y917285D01*
X1529928Y915285D01*
X1529330Y913055D01*
Y910745D01*
X1529928Y908515D01*
X1531082Y906515D01*
X1532715Y904882D01*
X1534715Y903728D01*
X1536945Y903130D01*
X1539255D01*
X1540405Y903438D01*
X1546746Y897097D01*
Y860000D01*
Y853204D01*
X1545476Y852864D01*
X1545118Y853485D01*
X1543485Y855118D01*
X1541485Y856272D01*
X1539255Y856870D01*
X1538735D01*
Y848100D01*
Y839330D01*
X1539255D01*
X1541485Y839928D01*
X1543485Y841082D01*
X1545118Y842715D01*
X1545476Y843336D01*
X1546746Y842996D01*
Y827804D01*
X1545476Y827464D01*
X1545118Y828085D01*
X1543485Y829718D01*
X1541485Y830872D01*
X1539255Y831470D01*
X1536945D01*
X1534715Y830872D01*
X1532715Y829718D01*
X1531082Y828085D01*
X1529928Y826085D01*
X1529330Y823855D01*
Y821545D01*
X1529928Y819315D01*
X1531082Y817315D01*
X1532715Y815682D01*
X1534715Y814528D01*
X1536945Y813930D01*
X1539255D01*
X1541485Y814528D01*
X1543485Y815682D01*
X1545118Y817315D01*
X1545476Y817936D01*
X1546746Y817596D01*
Y802404D01*
X1545476Y802064D01*
X1545118Y802685D01*
X1543485Y804318D01*
X1541485Y805472D01*
X1539255Y806070D01*
X1536945D01*
X1534715Y805472D01*
X1532715Y804318D01*
X1531082Y802685D01*
X1529928Y800685D01*
X1529330Y798455D01*
Y796145D01*
X1529928Y793915D01*
X1531082Y791915D01*
X1532715Y790282D01*
X1534715Y789128D01*
X1536945Y788530D01*
X1539255D01*
X1541485Y789128D01*
X1543485Y790282D01*
X1545118Y791915D01*
X1545476Y792536D01*
X1546746Y792196D01*
Y777004D01*
X1545476Y776664D01*
X1545118Y777285D01*
X1543485Y778918D01*
X1541485Y780072D01*
X1539255Y780670D01*
X1536945D01*
X1534715Y780072D01*
X1532715Y778918D01*
X1531082Y777285D01*
X1529928Y775285D01*
X1529330Y773055D01*
Y770745D01*
X1529928Y768515D01*
X1531082Y766515D01*
X1532715Y764882D01*
X1533336Y764524D01*
X1532996Y763254D01*
X1467004D01*
X1466664Y764524D01*
X1467285Y764882D01*
X1468918Y766515D01*
X1470072Y768515D01*
X1470670Y770745D01*
Y773055D01*
X1470072Y775285D01*
X1468918Y777285D01*
X1467285Y778918D01*
X1465285Y780072D01*
X1463055Y780670D01*
X1460745D01*
X1458515Y780072D01*
X1456515Y778918D01*
X1454882Y777285D01*
X1453728Y775285D01*
X1453130Y773055D01*
Y770745D01*
X1453728Y768515D01*
X1454882Y766515D01*
X1456515Y764882D01*
X1457136Y764524D01*
X1456796Y763254D01*
X1440000D01*
Y1020000D01*
X1466062D01*
X1466548Y1018827D01*
D02*
G37*
G36*
X1844166Y992633D02*
Y969918D01*
X1839265Y965016D01*
X1838126Y965674D01*
X1838270Y966211D01*
Y968389D01*
X1837706Y970492D01*
X1836618Y972378D01*
X1835078Y973918D01*
X1833192Y975006D01*
X1831089Y975570D01*
X1828911D01*
X1826808Y975006D01*
X1826174Y974640D01*
X1825394Y975657D01*
X1842896Y993159D01*
X1844166Y992633D01*
D02*
G37*
G36*
X1388827Y998827D02*
X1351507Y961507D01*
X1350334Y961993D01*
Y977480D01*
X1354520D01*
Y984365D01*
X1347000D01*
X1339480D01*
Y977480D01*
X1343666D01*
Y960000D01*
X1050000D01*
X1011173Y998827D01*
X1011659Y1000000D01*
X1388341D01*
X1388827Y998827D01*
D02*
G37*
G36*
X1560000Y925984D02*
Y858916D01*
X1558827Y858430D01*
X1555454Y861803D01*
Y898900D01*
X1555122Y900566D01*
X1554178Y901979D01*
X1546562Y909595D01*
X1546870Y910745D01*
Y913055D01*
X1546562Y914205D01*
X1558827Y926470D01*
X1560000Y925984D01*
D02*
G37*
G36*
X1430000Y763254D02*
X1240226D01*
X1232754Y770725D01*
X1233411Y771864D01*
X1233911Y771730D01*
X1236089D01*
X1238192Y772294D01*
X1240078Y773382D01*
X1241618Y774922D01*
X1242706Y776808D01*
X1243270Y778911D01*
Y781089D01*
X1242706Y783192D01*
X1241618Y785078D01*
X1240078Y786618D01*
X1238192Y787706D01*
X1236089Y788270D01*
X1233911D01*
X1231808Y787706D01*
X1229922Y786618D01*
X1228382Y785078D01*
X1228124Y784630D01*
X1226854Y784970D01*
Y800697D01*
X1248079Y821921D01*
X1248079Y821922D01*
X1256403Y830246D01*
X1282387D01*
X1282982Y829215D01*
X1284615Y827582D01*
X1286615Y826428D01*
X1288845Y825830D01*
X1291155D01*
X1293385Y826428D01*
X1295385Y827582D01*
X1297018Y829215D01*
X1298172Y831215D01*
X1298770Y833445D01*
Y835755D01*
X1298172Y837985D01*
X1297018Y839985D01*
X1295385Y841618D01*
X1293385Y842772D01*
X1291155Y843370D01*
X1288845D01*
X1286615Y842772D01*
X1284615Y841618D01*
X1282982Y839985D01*
X1282387Y838954D01*
X1254600D01*
X1252934Y838622D01*
X1251522Y837679D01*
X1245000Y831157D01*
X1229924Y846233D01*
Y878806D01*
X1229592Y880472D01*
X1228649Y881885D01*
X1223777Y886756D01*
X1222364Y887700D01*
X1222257Y887721D01*
X1221972Y888785D01*
X1220818Y890785D01*
X1219185Y892418D01*
X1217185Y893572D01*
X1214955Y894170D01*
X1212645D01*
X1210415Y893572D01*
X1208415Y892418D01*
X1206782Y890785D01*
X1206187Y889754D01*
X1016403D01*
X1013079Y893079D01*
X1012722Y893317D01*
X1012419Y893620D01*
X1012023Y893784D01*
X1011666Y894022D01*
X1011245Y894106D01*
X1010849Y894270D01*
X1010421D01*
X1010000Y894354D01*
X1009579Y894270D01*
X1009151D01*
X1008755Y894106D01*
X1008334Y894022D01*
X1007977Y893784D01*
X1007581Y893620D01*
X1007278Y893317D01*
X1006921Y893079D01*
X1006683Y892722D01*
X1006380Y892419D01*
X1006216Y892023D01*
X1005978Y891666D01*
X1005894Y891245D01*
X1005730Y890849D01*
Y890421D01*
X1005646Y890000D01*
X1005730Y889579D01*
Y889151D01*
X1005894Y888755D01*
X1005978Y888334D01*
X1006216Y887977D01*
X1006380Y887581D01*
X1006683Y887278D01*
X1006921Y886921D01*
X1011522Y882321D01*
X1012934Y881378D01*
X1014600Y881046D01*
X1206187D01*
X1206782Y880015D01*
X1208415Y878382D01*
X1210415Y877228D01*
X1212645Y876630D01*
X1214955D01*
X1217185Y877228D01*
X1219185Y878382D01*
X1219511Y878708D01*
X1221216Y877003D01*
Y866782D01*
X1219946Y866256D01*
X1219185Y867018D01*
X1217185Y868172D01*
X1214955Y868770D01*
X1212645D01*
X1210415Y868172D01*
X1208415Y867018D01*
X1206782Y865385D01*
X1205628Y863385D01*
X1205030Y861155D01*
Y858845D01*
X1205628Y856615D01*
X1205654Y856569D01*
X1125119Y776034D01*
X1118270D01*
Y780970D01*
X1101730D01*
Y764430D01*
X1118270D01*
Y769366D01*
X1126500D01*
X1127776Y769620D01*
X1128857Y770342D01*
X1210369Y851854D01*
X1210415Y851828D01*
X1212645Y851230D01*
X1214955D01*
X1217185Y851828D01*
X1219185Y852982D01*
X1219946Y853744D01*
X1221216Y853218D01*
Y844430D01*
X1221548Y842764D01*
X1222492Y841351D01*
X1238843Y825000D01*
X1219421Y805579D01*
X1218478Y804166D01*
X1218404Y803796D01*
X1217134Y803921D01*
Y826414D01*
X1217185Y826428D01*
X1219185Y827582D01*
X1220818Y829215D01*
X1221972Y831215D01*
X1222570Y833445D01*
Y835755D01*
X1221972Y837985D01*
X1220818Y839985D01*
X1219185Y841618D01*
X1217185Y842772D01*
X1214955Y843370D01*
X1212645D01*
X1210415Y842772D01*
X1208415Y841618D01*
X1206782Y839985D01*
X1205628Y837985D01*
X1205030Y835755D01*
Y833445D01*
X1205628Y831215D01*
X1206782Y829215D01*
X1208415Y827582D01*
X1210415Y826428D01*
X1210466Y826414D01*
Y772916D01*
X1210720Y771640D01*
X1211442Y770558D01*
X1234358Y747643D01*
X1235440Y746920D01*
X1236716Y746666D01*
X1430000D01*
Y740000D01*
X980000D01*
Y916666D01*
X1007295D01*
X1007581Y916380D01*
X1009151Y915730D01*
X1010849D01*
X1012419Y916380D01*
X1013620Y917581D01*
X1014270Y919151D01*
Y920849D01*
X1013620Y922419D01*
X1012419Y923620D01*
X1010849Y924270D01*
X1010445D01*
X1003143Y931572D01*
Y950000D01*
X1343666D01*
Y936625D01*
X1343920Y935349D01*
X1344642Y934268D01*
X1348916Y929994D01*
Y905137D01*
X1347646Y904797D01*
X1347218Y905538D01*
X1345538Y907218D01*
X1343482Y908405D01*
X1341187Y909020D01*
X1338813D01*
X1336518Y908405D01*
X1334462Y907218D01*
X1332782Y905538D01*
X1331595Y903482D01*
X1330980Y901188D01*
Y898812D01*
X1331595Y896518D01*
X1332782Y894462D01*
X1334462Y892782D01*
X1336518Y891595D01*
X1338813Y890980D01*
X1341187D01*
X1343482Y891595D01*
X1345538Y892782D01*
X1347218Y894462D01*
X1347646Y895203D01*
X1348916Y894863D01*
Y888631D01*
X1344305Y884020D01*
X1330980D01*
Y865980D01*
X1349020D01*
Y879305D01*
X1354608Y884893D01*
X1355330Y885974D01*
X1355584Y887250D01*
Y931375D01*
X1355330Y932651D01*
X1354608Y933733D01*
X1350334Y938006D01*
Y950000D01*
X1396666D01*
Y782705D01*
X1396380Y782419D01*
X1395730Y780849D01*
Y779151D01*
X1396380Y777581D01*
X1397581Y776380D01*
X1399151Y775730D01*
X1400849D01*
X1402419Y776380D01*
X1403620Y777581D01*
X1404270Y779151D01*
Y780849D01*
X1403620Y782419D01*
X1403334Y782705D01*
Y950000D01*
X1430000D01*
Y763254D01*
D02*
G37*
G36*
X1560000Y844943D02*
Y740000D01*
X1463334D01*
Y747295D01*
X1463620Y747581D01*
X1464270Y749151D01*
Y750849D01*
X1463620Y752419D01*
X1462762Y753276D01*
X1463248Y754546D01*
X1543485D01*
X1545151Y754878D01*
X1546563Y755822D01*
X1554178Y763437D01*
X1555122Y764849D01*
X1555454Y766515D01*
Y847830D01*
X1556627Y848316D01*
X1560000Y844943D01*
D02*
G37*
G36*
X1520000Y690000D02*
X1504715D01*
X1494270Y700445D01*
Y700849D01*
X1493620Y702419D01*
X1492419Y703620D01*
X1490849Y704270D01*
X1489151D01*
X1487581Y703620D01*
X1486380Y702419D01*
X1485730Y700849D01*
Y699151D01*
X1486380Y697581D01*
X1487581Y696380D01*
X1489151Y695730D01*
X1489555D01*
X1494112Y691173D01*
X1493626Y690000D01*
X1434715D01*
X1404270Y720445D01*
Y720849D01*
X1403620Y722419D01*
X1402419Y723620D01*
X1400849Y724270D01*
X1399151D01*
X1397581Y723620D01*
X1396380Y722419D01*
X1395730Y720849D01*
Y719151D01*
X1396380Y717581D01*
X1397581Y716380D01*
X1399151Y715730D01*
X1399555D01*
X1424112Y691173D01*
X1423626Y690000D01*
X1170000D01*
Y673334D01*
X1140324D01*
X1139318Y675078D01*
X1137778Y676618D01*
X1135892Y677706D01*
X1133789Y678270D01*
X1131611D01*
X1129508Y677706D01*
X1127622Y676618D01*
X1126082Y675078D01*
X1124994Y673192D01*
X1124430Y671089D01*
Y668911D01*
X1124994Y666808D01*
X1126082Y664922D01*
X1127622Y663382D01*
X1129508Y662294D01*
X1131611Y661730D01*
X1133789D01*
X1135892Y662294D01*
X1137778Y663382D01*
X1139318Y664922D01*
X1140324Y666666D01*
X1170000D01*
Y440000D01*
X980000D01*
Y730000D01*
X1456666D01*
Y722705D01*
X1456380Y722419D01*
X1455730Y720849D01*
Y719151D01*
X1456380Y717581D01*
X1457581Y716380D01*
X1459151Y715730D01*
X1460849D01*
X1462419Y716380D01*
X1463620Y717581D01*
X1464270Y719151D01*
Y720849D01*
X1463620Y722419D01*
X1463334Y722705D01*
Y730000D01*
X1520000D01*
Y690000D01*
D02*
G37*
G36*
X1773204Y576693D02*
X1773166Y576500D01*
Y530000D01*
X1726374D01*
X1725888Y531173D01*
X1772034Y577319D01*
X1773204Y576693D01*
D02*
G37*
G36*
X1566307Y556307D02*
X1527480Y517480D01*
X1225480D01*
X1186653Y556307D01*
X1187139Y557480D01*
X1565821D01*
X1566307Y556307D01*
D02*
G37*
%LPC*%
G36*
X1321089Y1234770D02*
X1320635D01*
Y1227135D01*
X1328270D01*
Y1227589D01*
X1327706Y1229692D01*
X1326618Y1231578D01*
X1325078Y1233118D01*
X1323192Y1234206D01*
X1321089Y1234770D01*
D02*
G37*
G36*
X1319365D02*
X1318911D01*
X1316808Y1234206D01*
X1314922Y1233118D01*
X1313382Y1231578D01*
X1312294Y1229692D01*
X1311730Y1227589D01*
Y1227135D01*
X1319365D01*
Y1234770D01*
D02*
G37*
G36*
X1371089D02*
X1370635D01*
Y1227135D01*
X1378270D01*
Y1227589D01*
X1377706Y1229692D01*
X1376618Y1231578D01*
X1375078Y1233118D01*
X1373192Y1234206D01*
X1371089Y1234770D01*
D02*
G37*
G36*
X1369365D02*
X1368911D01*
X1366808Y1234206D01*
X1364922Y1233118D01*
X1363382Y1231578D01*
X1362294Y1229692D01*
X1361730Y1227589D01*
Y1227135D01*
X1369365D01*
Y1234770D01*
D02*
G37*
G36*
X1489255Y1206870D02*
X1488735D01*
Y1198735D01*
X1496870D01*
Y1199255D01*
X1496272Y1201485D01*
X1495118Y1203485D01*
X1493485Y1205118D01*
X1491485Y1206272D01*
X1489255Y1206870D01*
D02*
G37*
G36*
X1487465D02*
X1486945D01*
X1484715Y1206272D01*
X1482715Y1205118D01*
X1481082Y1203485D01*
X1479928Y1201485D01*
X1479330Y1199255D01*
Y1198735D01*
X1487465D01*
Y1206870D01*
D02*
G37*
G36*
X1496870Y1197465D02*
X1488735D01*
Y1189330D01*
X1489255D01*
X1491485Y1189928D01*
X1493485Y1191082D01*
X1495118Y1192715D01*
X1496272Y1194715D01*
X1496870Y1196945D01*
Y1197465D01*
D02*
G37*
G36*
X1487465D02*
X1479330D01*
Y1196945D01*
X1479928Y1194715D01*
X1481082Y1192715D01*
X1482715Y1191082D01*
X1484715Y1189928D01*
X1486945Y1189330D01*
X1487465D01*
Y1197465D01*
D02*
G37*
G36*
X1420670Y1206870D02*
X1403130D01*
Y1189330D01*
X1420670D01*
Y1206870D01*
D02*
G37*
G36*
X1413055Y1181470D02*
X1410745D01*
X1408515Y1180872D01*
X1406515Y1179718D01*
X1404882Y1178085D01*
X1403728Y1176085D01*
X1403130Y1173855D01*
Y1171545D01*
X1403728Y1169315D01*
X1403754Y1169269D01*
X1361589Y1127104D01*
X1211646D01*
X1210370Y1126850D01*
X1209288Y1126127D01*
X1199194Y1116034D01*
X1178270D01*
Y1120970D01*
X1161730D01*
Y1104430D01*
X1178270D01*
Y1109366D01*
X1200575D01*
X1201851Y1109620D01*
X1202933Y1110342D01*
X1210557Y1117966D01*
X1211730Y1117480D01*
Y1105230D01*
X1228270D01*
Y1120436D01*
X1261730D01*
Y1105230D01*
X1278270D01*
Y1120436D01*
X1311730D01*
Y1105230D01*
X1328270D01*
Y1120436D01*
X1361730D01*
Y1105230D01*
X1378270D01*
Y1121770D01*
X1367344D01*
X1366858Y1122943D01*
X1408469Y1164554D01*
X1408515Y1164528D01*
X1410745Y1163930D01*
X1413055D01*
X1415285Y1164528D01*
X1417285Y1165682D01*
X1418918Y1167315D01*
X1420072Y1169315D01*
X1420670Y1171545D01*
Y1173855D01*
X1420072Y1176085D01*
X1418918Y1178085D01*
X1417285Y1179718D01*
X1415285Y1180872D01*
X1413055Y1181470D01*
D02*
G37*
G36*
X1489255Y1156070D02*
X1486945D01*
X1484715Y1155472D01*
X1482715Y1154318D01*
X1481082Y1152685D01*
X1479928Y1150685D01*
X1479330Y1148455D01*
Y1146145D01*
X1479928Y1143915D01*
X1481082Y1141915D01*
X1482715Y1140282D01*
X1484715Y1139128D01*
X1486945Y1138530D01*
X1489255D01*
X1491485Y1139128D01*
X1493485Y1140282D01*
X1495118Y1141915D01*
X1496272Y1143915D01*
X1496870Y1146145D01*
Y1148455D01*
X1496272Y1150685D01*
X1495118Y1152685D01*
X1493485Y1154318D01*
X1491485Y1155472D01*
X1489255Y1156070D01*
D02*
G37*
G36*
X1413055D02*
X1410745D01*
X1408515Y1155472D01*
X1406515Y1154318D01*
X1404882Y1152685D01*
X1403728Y1150685D01*
X1403130Y1148455D01*
Y1146145D01*
X1403728Y1143915D01*
X1404882Y1141915D01*
X1406515Y1140282D01*
X1408515Y1139128D01*
X1410745Y1138530D01*
X1413055D01*
X1415285Y1139128D01*
X1417285Y1140282D01*
X1418918Y1141915D01*
X1420072Y1143915D01*
X1420670Y1146145D01*
Y1148455D01*
X1420072Y1150685D01*
X1418918Y1152685D01*
X1417285Y1154318D01*
X1415285Y1155472D01*
X1413055Y1156070D01*
D02*
G37*
G36*
Y1130670D02*
X1410745D01*
X1408515Y1130072D01*
X1406515Y1128918D01*
X1404882Y1127285D01*
X1403728Y1125285D01*
X1403130Y1123055D01*
Y1120745D01*
X1403728Y1118515D01*
X1404882Y1116515D01*
X1406515Y1114882D01*
X1408515Y1113728D01*
X1410745Y1113130D01*
X1413055D01*
X1415285Y1113728D01*
X1417285Y1114882D01*
X1418918Y1116515D01*
X1420072Y1118515D01*
X1420670Y1120745D01*
Y1123055D01*
X1420072Y1125285D01*
X1418918Y1127285D01*
X1417285Y1128918D01*
X1415285Y1130072D01*
X1413055Y1130670D01*
D02*
G37*
G36*
X1828770Y1255565D02*
X1820635D01*
Y1247430D01*
X1821155D01*
X1823385Y1248028D01*
X1825385Y1249182D01*
X1827018Y1250815D01*
X1828172Y1252815D01*
X1828770Y1255045D01*
Y1255565D01*
D02*
G37*
G36*
X1819365D02*
X1811230D01*
Y1255045D01*
X1811828Y1252815D01*
X1812982Y1250815D01*
X1814615Y1249182D01*
X1816615Y1248028D01*
X1818845Y1247430D01*
X1819365D01*
Y1255565D01*
D02*
G37*
G36*
X1744955Y1239570D02*
X1742645D01*
X1740415Y1238972D01*
X1738415Y1237818D01*
X1736782Y1236185D01*
X1735628Y1234185D01*
X1735030Y1231955D01*
Y1229645D01*
X1735628Y1227415D01*
X1735654Y1227369D01*
X1704619Y1196334D01*
X1699357D01*
X1699018Y1196920D01*
X1696920Y1199018D01*
X1694350Y1200502D01*
X1691484Y1201270D01*
X1688516D01*
X1685650Y1200502D01*
X1683080Y1199018D01*
X1680982Y1196920D01*
X1679498Y1194350D01*
X1678730Y1191484D01*
Y1188516D01*
X1679498Y1185650D01*
X1680982Y1183080D01*
X1683080Y1180982D01*
X1685650Y1179498D01*
X1688516Y1178730D01*
X1691484D01*
X1694350Y1179498D01*
X1696920Y1180982D01*
X1699018Y1183080D01*
X1700502Y1185650D01*
X1701270Y1188516D01*
Y1189666D01*
X1706000D01*
X1707276Y1189920D01*
X1708358Y1190642D01*
X1740369Y1222654D01*
X1740415Y1222628D01*
X1742645Y1222030D01*
X1744955D01*
X1747185Y1222628D01*
X1749185Y1223782D01*
X1750818Y1225415D01*
X1751972Y1227415D01*
X1752570Y1229645D01*
Y1231955D01*
X1751972Y1234185D01*
X1750818Y1236185D01*
X1749185Y1237818D01*
X1747185Y1238972D01*
X1744955Y1239570D01*
D02*
G37*
G36*
X1691484Y1226770D02*
X1688516D01*
X1685650Y1226002D01*
X1683080Y1224518D01*
X1680982Y1222420D01*
X1679498Y1219850D01*
X1678730Y1216984D01*
Y1214016D01*
X1679498Y1211150D01*
X1680982Y1208580D01*
X1683080Y1206482D01*
X1685650Y1204998D01*
X1688516Y1204230D01*
X1691484D01*
X1694350Y1204998D01*
X1696920Y1206482D01*
X1699018Y1208580D01*
X1700502Y1211150D01*
X1701270Y1214016D01*
Y1216984D01*
X1700502Y1219850D01*
X1699018Y1222420D01*
X1696920Y1224518D01*
X1694350Y1226002D01*
X1691484Y1226770D01*
D02*
G37*
G36*
X1821155Y1239570D02*
X1818845D01*
X1816615Y1238972D01*
X1814615Y1237818D01*
X1812982Y1236185D01*
X1811828Y1234185D01*
X1811230Y1231955D01*
Y1229645D01*
X1811828Y1227415D01*
X1812982Y1225415D01*
X1814615Y1223782D01*
X1815646Y1223187D01*
Y1213013D01*
X1814615Y1212418D01*
X1812982Y1210785D01*
X1811828Y1208785D01*
X1811230Y1206555D01*
Y1204245D01*
X1811828Y1202015D01*
X1812982Y1200015D01*
X1814615Y1198382D01*
X1816615Y1197228D01*
X1818845Y1196630D01*
X1821155D01*
X1823385Y1197228D01*
X1825385Y1198382D01*
X1827018Y1200015D01*
X1828172Y1202015D01*
X1828770Y1204245D01*
Y1206555D01*
X1828172Y1208785D01*
X1827018Y1210785D01*
X1825385Y1212418D01*
X1824354Y1213013D01*
Y1223187D01*
X1825385Y1223782D01*
X1827018Y1225415D01*
X1828172Y1227415D01*
X1828770Y1229645D01*
Y1231955D01*
X1828172Y1234185D01*
X1827018Y1236185D01*
X1825385Y1237818D01*
X1823385Y1238972D01*
X1821155Y1239570D01*
D02*
G37*
G36*
X1744955Y1214170D02*
X1742645D01*
X1740415Y1213572D01*
X1738415Y1212418D01*
X1736782Y1210785D01*
X1735628Y1208785D01*
X1735030Y1206555D01*
Y1204245D01*
X1735628Y1202015D01*
X1736782Y1200015D01*
X1738415Y1198382D01*
X1740415Y1197228D01*
X1742645Y1196630D01*
X1744955D01*
X1747185Y1197228D01*
X1749185Y1198382D01*
X1750818Y1200015D01*
X1751972Y1202015D01*
X1752570Y1204245D01*
Y1206555D01*
X1751972Y1208785D01*
X1750818Y1210785D01*
X1749185Y1212418D01*
X1747185Y1213572D01*
X1744955Y1214170D01*
D02*
G37*
G36*
X1819255Y1116870D02*
X1818735D01*
Y1108735D01*
X1826870D01*
Y1109255D01*
X1826272Y1111485D01*
X1825118Y1113485D01*
X1823485Y1115118D01*
X1821485Y1116272D01*
X1819255Y1116870D01*
D02*
G37*
G36*
X1817465D02*
X1816945D01*
X1814715Y1116272D01*
X1812715Y1115118D01*
X1811082Y1113485D01*
X1809928Y1111485D01*
X1809330Y1109255D01*
Y1108735D01*
X1817465D01*
Y1116870D01*
D02*
G37*
G36*
X1660849Y1114270D02*
X1659151D01*
X1657581Y1113620D01*
X1656380Y1112419D01*
X1655730Y1110849D01*
Y1109151D01*
X1656380Y1107581D01*
X1657581Y1106380D01*
X1659151Y1105730D01*
X1660849D01*
X1662419Y1106380D01*
X1663620Y1107581D01*
X1664270Y1109151D01*
Y1110849D01*
X1663620Y1112419D01*
X1662419Y1113620D01*
X1660849Y1114270D01*
D02*
G37*
G36*
X1826870Y1107465D02*
X1818735D01*
Y1099330D01*
X1819255D01*
X1821485Y1099928D01*
X1823485Y1101082D01*
X1825118Y1102715D01*
X1826272Y1104715D01*
X1826870Y1106945D01*
Y1107465D01*
D02*
G37*
G36*
X1817465D02*
X1809330D01*
Y1106945D01*
X1809928Y1104715D01*
X1811082Y1102715D01*
X1812715Y1101082D01*
X1814715Y1099928D01*
X1816945Y1099330D01*
X1817465D01*
Y1107465D01*
D02*
G37*
G36*
X1743055Y1091470D02*
X1740745D01*
X1738515Y1090872D01*
X1736515Y1089718D01*
X1734882Y1088085D01*
X1733728Y1086085D01*
X1733130Y1083855D01*
Y1081545D01*
X1733728Y1079315D01*
X1734882Y1077315D01*
X1736515Y1075682D01*
X1738515Y1074528D01*
X1740745Y1073930D01*
X1743055D01*
X1745285Y1074528D01*
X1747285Y1075682D01*
X1748918Y1077315D01*
X1750072Y1079315D01*
X1750670Y1081545D01*
Y1083855D01*
X1750072Y1086085D01*
X1748918Y1088085D01*
X1747285Y1089718D01*
X1745285Y1090872D01*
X1743055Y1091470D01*
D02*
G37*
G36*
Y1040670D02*
X1740745D01*
X1738515Y1040072D01*
X1736515Y1038918D01*
X1734882Y1037285D01*
X1733728Y1035285D01*
X1733130Y1033055D01*
Y1030745D01*
X1733728Y1028515D01*
X1734882Y1026515D01*
X1736515Y1024882D01*
X1738515Y1023728D01*
X1740745Y1023130D01*
X1743055D01*
X1745285Y1023728D01*
X1747285Y1024882D01*
X1748918Y1026515D01*
X1750072Y1028515D01*
X1750670Y1030745D01*
Y1033055D01*
X1750072Y1035285D01*
X1748918Y1037285D01*
X1747285Y1038918D01*
X1745285Y1040072D01*
X1743055Y1040670D01*
D02*
G37*
G36*
X1838270Y820970D02*
X1821730D01*
Y804430D01*
X1838270D01*
Y820970D01*
D02*
G37*
G36*
X1835570Y778270D02*
X1819030D01*
Y761730D01*
X1835570D01*
Y778270D01*
D02*
G37*
G36*
X1768089Y721127D02*
X1752549D01*
Y705587D01*
X1768089D01*
Y721127D01*
D02*
G37*
G36*
X1810957Y707270D02*
X1809043D01*
X1807194Y706775D01*
X1805536Y705817D01*
X1804183Y704464D01*
X1803226Y702806D01*
X1802730Y700957D01*
Y699043D01*
X1803226Y697194D01*
X1804183Y695536D01*
X1805536Y694183D01*
X1807194Y693225D01*
X1809043Y692730D01*
X1810957D01*
X1812806Y693225D01*
X1814464Y694183D01*
X1815818Y695536D01*
X1816775Y697194D01*
X1817270Y699043D01*
Y700957D01*
X1816775Y702806D01*
X1815818Y704464D01*
X1814464Y705817D01*
X1812806Y706775D01*
X1810957Y707270D01*
D02*
G37*
G36*
X1691484Y696770D02*
X1690635D01*
Y686135D01*
X1701270D01*
Y686984D01*
X1700502Y689850D01*
X1699018Y692420D01*
X1696920Y694518D01*
X1694350Y696002D01*
X1691484Y696770D01*
D02*
G37*
G36*
X1689365D02*
X1688516D01*
X1685650Y696002D01*
X1683080Y694518D01*
X1680982Y692420D01*
X1679498Y689850D01*
X1678730Y686984D01*
Y686135D01*
X1689365D01*
Y696770D01*
D02*
G37*
G36*
X1701270Y684865D02*
X1690635D01*
Y674230D01*
X1691484D01*
X1694350Y674998D01*
X1696920Y676482D01*
X1699018Y678580D01*
X1700502Y681150D01*
X1701270Y684016D01*
Y684865D01*
D02*
G37*
G36*
X1689365D02*
X1678730D01*
Y684016D01*
X1679498Y681150D01*
X1680982Y678580D01*
X1683080Y676482D01*
X1685650Y674998D01*
X1688516Y674230D01*
X1689365D01*
Y684865D01*
D02*
G37*
G36*
X1759684Y681127D02*
X1759296D01*
X1757319Y680598D01*
X1755548Y679575D01*
X1754101Y678128D01*
X1753078Y676357D01*
X1752549Y674380D01*
Y673992D01*
X1759684D01*
Y681127D01*
D02*
G37*
G36*
X1691484Y671270D02*
X1688516D01*
X1685650Y670502D01*
X1683080Y669018D01*
X1680982Y666920D01*
X1679498Y664350D01*
X1678730Y661484D01*
Y658516D01*
X1679498Y655650D01*
X1680982Y653080D01*
X1683080Y650982D01*
X1685650Y649498D01*
X1688516Y648730D01*
X1691484D01*
X1694350Y649498D01*
X1696920Y650982D01*
X1699018Y653080D01*
X1700502Y655650D01*
X1701270Y658516D01*
Y661484D01*
X1700502Y664350D01*
X1699018Y666920D01*
X1696920Y669018D01*
X1694350Y670502D01*
X1691484Y671270D01*
D02*
G37*
G36*
X1723687Y604270D02*
X1721313D01*
X1719018Y603655D01*
X1716962Y602468D01*
X1715282Y600788D01*
X1714095Y598732D01*
X1713480Y596437D01*
Y594062D01*
X1714095Y591768D01*
X1715282Y589712D01*
X1716962Y588032D01*
X1719018Y586845D01*
X1721313Y586230D01*
X1723687D01*
X1725982Y586845D01*
X1728038Y588032D01*
X1729718Y589712D01*
X1730905Y591768D01*
X1731520Y594062D01*
Y596437D01*
X1730905Y598732D01*
X1729718Y600788D01*
X1728038Y602468D01*
X1725982Y603655D01*
X1723687Y604270D01*
D02*
G37*
G36*
X1706520D02*
X1688480D01*
Y586230D01*
X1706520D01*
Y604270D01*
D02*
G37*
G36*
X922216Y1082500D02*
X917784D01*
X913437Y1081635D01*
X909342Y1079939D01*
X905657Y1077477D01*
X902523Y1074343D01*
X900061Y1070658D01*
X898365Y1066563D01*
X897500Y1062216D01*
Y1057784D01*
X898365Y1053437D01*
X900061Y1049342D01*
X902523Y1045657D01*
X905657Y1042523D01*
X909342Y1040061D01*
X913437Y1038365D01*
X917784Y1037500D01*
X922216D01*
X926563Y1038365D01*
X930658Y1040061D01*
X934343Y1042523D01*
X937477Y1045657D01*
X939939Y1049342D01*
X941635Y1053437D01*
X942500Y1057784D01*
Y1062216D01*
X941635Y1066563D01*
X939939Y1070658D01*
X937477Y1074343D01*
X934343Y1077477D01*
X930658Y1079939D01*
X926563Y1081635D01*
X922216Y1082500D01*
D02*
G37*
G36*
X502216D02*
X497784D01*
X493437Y1081635D01*
X489342Y1079939D01*
X485657Y1077477D01*
X482523Y1074343D01*
X480061Y1070658D01*
X478365Y1066563D01*
X477500Y1062216D01*
Y1057784D01*
X478365Y1053437D01*
X480061Y1049342D01*
X482523Y1045657D01*
X485657Y1042523D01*
X489342Y1040061D01*
X493437Y1038365D01*
X497784Y1037500D01*
X502216D01*
X506563Y1038365D01*
X510658Y1040061D01*
X514343Y1042523D01*
X517477Y1045657D01*
X519939Y1049342D01*
X521635Y1053437D01*
X522500Y1057784D01*
Y1062216D01*
X521635Y1066563D01*
X519939Y1070658D01*
X517477Y1074343D01*
X514343Y1077477D01*
X510658Y1079939D01*
X506563Y1081635D01*
X502216Y1082500D01*
D02*
G37*
G36*
X560957Y1027270D02*
X560635D01*
Y1020635D01*
X567270D01*
Y1020957D01*
X566775Y1022806D01*
X565817Y1024464D01*
X564464Y1025817D01*
X562806Y1026775D01*
X560957Y1027270D01*
D02*
G37*
G36*
X559365D02*
X559043D01*
X557194Y1026775D01*
X555536Y1025817D01*
X554183Y1024464D01*
X553225Y1022806D01*
X552730Y1020957D01*
Y1020635D01*
X559365D01*
Y1027270D01*
D02*
G37*
G36*
X670957D02*
X669043D01*
X667194Y1026775D01*
X665536Y1025817D01*
X664183Y1024464D01*
X663225Y1022806D01*
X662730Y1020957D01*
Y1019043D01*
X663225Y1017194D01*
X664183Y1015536D01*
X665536Y1014183D01*
X667194Y1013225D01*
X669043Y1012730D01*
X670957D01*
X672806Y1013225D01*
X674464Y1014183D01*
X675817Y1015536D01*
X676775Y1017194D01*
X677270Y1019043D01*
Y1020957D01*
X676775Y1022806D01*
X675817Y1024464D01*
X674464Y1025817D01*
X672806Y1026775D01*
X670957Y1027270D01*
D02*
G37*
G36*
X657270D02*
X642730D01*
Y1012730D01*
X657270D01*
Y1027270D01*
D02*
G37*
G36*
X567270Y1019365D02*
X560635D01*
Y1012730D01*
X560957D01*
X562806Y1013225D01*
X564464Y1014183D01*
X565817Y1015536D01*
X566775Y1017194D01*
X567270Y1019043D01*
Y1019365D01*
D02*
G37*
G36*
X559365D02*
X552730D01*
Y1019043D01*
X553225Y1017194D01*
X554183Y1015536D01*
X555536Y1014183D01*
X557194Y1013225D01*
X559043Y1012730D01*
X559365D01*
Y1019365D01*
D02*
G37*
G36*
X547270Y1027270D02*
X532730D01*
Y1012730D01*
X547270D01*
Y1027270D01*
D02*
G37*
G36*
X400820Y1011520D02*
X389935D01*
Y1000635D01*
X400820D01*
Y1011520D01*
D02*
G37*
G36*
X388665D02*
X377780D01*
Y1000635D01*
X388665D01*
Y1011520D01*
D02*
G37*
G36*
X416167D02*
X413133D01*
X410204Y1010735D01*
X407577Y1009218D01*
X405432Y1007073D01*
X403915Y1004447D01*
X403130Y1001517D01*
Y998483D01*
X403915Y995554D01*
X405432Y992927D01*
X407577Y990782D01*
X410204Y989265D01*
X413133Y988480D01*
X416167D01*
X419097Y989265D01*
X421724Y990782D01*
X423868Y992927D01*
X425385Y995554D01*
X426170Y998483D01*
Y1001517D01*
X425385Y1004447D01*
X423868Y1007073D01*
X421724Y1009218D01*
X419097Y1010735D01*
X416167Y1011520D01*
D02*
G37*
G36*
X400820Y999365D02*
X389935D01*
Y988480D01*
X400820D01*
Y999365D01*
D02*
G37*
G36*
X388665D02*
X377780D01*
Y988480D01*
X388665D01*
Y999365D01*
D02*
G37*
G36*
X831484Y986770D02*
X830635D01*
Y976135D01*
X841270D01*
Y976984D01*
X840502Y979850D01*
X839018Y982420D01*
X836920Y984518D01*
X834350Y986002D01*
X831484Y986770D01*
D02*
G37*
G36*
X829365D02*
X828516D01*
X825650Y986002D01*
X823080Y984518D01*
X820982Y982420D01*
X819498Y979850D01*
X818730Y976984D01*
Y976135D01*
X829365D01*
Y986770D01*
D02*
G37*
G36*
X841270Y974865D02*
X830635D01*
Y964230D01*
X831484D01*
X834350Y964998D01*
X836920Y966482D01*
X839018Y968580D01*
X840502Y971150D01*
X841270Y974016D01*
Y974865D01*
D02*
G37*
G36*
X829365D02*
X818730D01*
Y974016D01*
X819498Y971150D01*
X820982Y968580D01*
X823080Y966482D01*
X825650Y964998D01*
X828516Y964230D01*
X829365D01*
Y974865D01*
D02*
G37*
G36*
X771155Y954970D02*
X770635D01*
Y946835D01*
X778770D01*
Y947355D01*
X778172Y949585D01*
X777018Y951585D01*
X775385Y953218D01*
X773385Y954372D01*
X771155Y954970D01*
D02*
G37*
G36*
X769365D02*
X768845D01*
X766615Y954372D01*
X764615Y953218D01*
X762982Y951585D01*
X761828Y949585D01*
X761230Y947355D01*
Y946835D01*
X769365D01*
Y954970D01*
D02*
G37*
G36*
X831484Y961270D02*
X828516D01*
X825650Y960502D01*
X823080Y959018D01*
X820982Y956920D01*
X819498Y954350D01*
X818730Y951484D01*
Y948516D01*
X819498Y945650D01*
X820982Y943080D01*
X823080Y940982D01*
X825650Y939498D01*
X828516Y938730D01*
X831484D01*
X834350Y939498D01*
X836920Y940982D01*
X839018Y943080D01*
X840502Y945650D01*
X841270Y948516D01*
Y951484D01*
X840502Y954350D01*
X839018Y956920D01*
X836920Y959018D01*
X834350Y960502D01*
X831484Y961270D01*
D02*
G37*
G36*
X778770Y945565D02*
X770635D01*
Y937430D01*
X771155D01*
X773385Y938028D01*
X775385Y939182D01*
X777018Y940815D01*
X778172Y942815D01*
X778770Y945045D01*
Y945565D01*
D02*
G37*
G36*
X769365D02*
X761230D01*
Y945045D01*
X761828Y942815D01*
X762982Y940815D01*
X764615Y939182D01*
X766615Y938028D01*
X768845Y937430D01*
X769365D01*
Y945565D01*
D02*
G37*
G36*
X694955Y929570D02*
X692645D01*
X690415Y928972D01*
X688415Y927818D01*
X686782Y926185D01*
X685628Y924185D01*
X685030Y921955D01*
Y919645D01*
X685628Y917415D01*
X686782Y915415D01*
X688415Y913782D01*
X690415Y912628D01*
X692645Y912030D01*
X694955D01*
X697185Y912628D01*
X699185Y913782D01*
X700818Y915415D01*
X701972Y917415D01*
X702570Y919645D01*
Y921955D01*
X701972Y924185D01*
X700818Y926185D01*
X699185Y927818D01*
X697185Y928972D01*
X694955Y929570D01*
D02*
G37*
G36*
X753270Y1018270D02*
X736730D01*
Y1006445D01*
X703345Y973060D01*
X690524D01*
X689248Y972807D01*
X688166Y972084D01*
X652893Y936810D01*
X652170Y935729D01*
X651916Y934453D01*
Y896631D01*
X642805Y887520D01*
X637195D01*
X592878Y931837D01*
X591796Y932560D01*
X590520Y932814D01*
X570270D01*
Y952020D01*
X549730D01*
Y935770D01*
X548557Y935284D01*
X481483Y1002357D01*
X480401Y1003080D01*
X479126Y1003334D01*
X451033D01*
X450735Y1004447D01*
X449218Y1007073D01*
X447074Y1009218D01*
X444447Y1010735D01*
X441517Y1011520D01*
X438483D01*
X435554Y1010735D01*
X432927Y1009218D01*
X430782Y1007073D01*
X429265Y1004447D01*
X428480Y1001517D01*
Y998483D01*
X429265Y995554D01*
X430782Y992927D01*
X432927Y990782D01*
X435554Y989265D01*
X438483Y988480D01*
X441517D01*
X444447Y989265D01*
X447074Y990782D01*
X449218Y992927D01*
X450735Y995554D01*
X451033Y996666D01*
X477744D01*
X547288Y927122D01*
X548370Y926400D01*
X549646Y926146D01*
X589139D01*
X632480Y882805D01*
Y872480D01*
X636666D01*
Y841381D01*
X617889Y822604D01*
X592645D01*
X591370Y822350D01*
X590288Y821628D01*
X588372Y819712D01*
X587650Y818630D01*
X587396Y817355D01*
Y815457D01*
X586948Y815046D01*
X585817Y814464D01*
X584464Y815817D01*
X582806Y816775D01*
X580957Y817270D01*
X579043D01*
X577194Y816775D01*
X575536Y815817D01*
X574183Y814464D01*
X573225Y812806D01*
X572730Y810957D01*
Y809043D01*
X573225Y807194D01*
X574183Y805536D01*
X575536Y804183D01*
X577194Y803225D01*
X579043Y802730D01*
X580957D01*
X582806Y803225D01*
X584464Y804183D01*
X585817Y805536D01*
X586774Y807194D01*
X586790Y807250D01*
X588387D01*
X589663Y807503D01*
X590744Y808226D01*
X591557Y809038D01*
X592730Y808552D01*
Y802730D01*
X607270D01*
Y815936D01*
X619270D01*
X620546Y816190D01*
X621628Y816913D01*
X642357Y837643D01*
X643080Y838724D01*
X643334Y840000D01*
Y872480D01*
X647520D01*
Y882805D01*
X657607Y892893D01*
X658330Y893974D01*
X658584Y895250D01*
Y925265D01*
X659854Y925605D01*
X659983Y925383D01*
X661383Y923982D01*
X663097Y922992D01*
X665010Y922480D01*
X666990D01*
X668903Y922992D01*
X670617Y923982D01*
X672018Y925383D01*
X673008Y927097D01*
X673520Y929010D01*
Y930990D01*
X673008Y932903D01*
X672018Y934617D01*
X670617Y936018D01*
X668903Y937008D01*
X666990Y937520D01*
X665010D01*
X664762Y937454D01*
X664105Y938592D01*
X691905Y966392D01*
X704726D01*
X706002Y966646D01*
X707084Y967369D01*
X741445Y1001730D01*
X753270D01*
Y1018270D01*
D02*
G37*
G36*
X771155Y929570D02*
X768845D01*
X766615Y928972D01*
X764615Y927818D01*
X762982Y926185D01*
X761828Y924185D01*
X761230Y921955D01*
Y919645D01*
X761828Y917415D01*
X762982Y915415D01*
X764615Y913782D01*
X766615Y912628D01*
X766666Y912614D01*
Y903586D01*
X766615Y903572D01*
X764615Y902418D01*
X762982Y900785D01*
X761828Y898785D01*
X761230Y896555D01*
Y894245D01*
X761828Y892015D01*
X762982Y890015D01*
X764615Y888382D01*
X766615Y887228D01*
X768845Y886630D01*
X771155D01*
X773385Y887228D01*
X775385Y888382D01*
X777018Y890015D01*
X778172Y892015D01*
X778770Y894245D01*
Y896555D01*
X778172Y898785D01*
X777018Y900785D01*
X775385Y902418D01*
X773385Y903572D01*
X773334Y903586D01*
Y912614D01*
X773385Y912628D01*
X775385Y913782D01*
X777018Y915415D01*
X778172Y917415D01*
X778770Y919645D01*
Y921955D01*
X778172Y924185D01*
X777018Y926185D01*
X775385Y927818D01*
X773385Y928972D01*
X771155Y929570D01*
D02*
G37*
G36*
X561352Y888520D02*
X560635D01*
Y878885D01*
X570270D01*
Y879602D01*
X569570Y882214D01*
X568218Y884556D01*
X566306Y886468D01*
X563964Y887820D01*
X561352Y888520D01*
D02*
G37*
G36*
X559365D02*
X558648D01*
X556036Y887820D01*
X553694Y886468D01*
X551782Y884556D01*
X550430Y882214D01*
X549730Y879602D01*
Y878885D01*
X559365D01*
Y888520D01*
D02*
G37*
G36*
X570270Y877615D02*
X560635D01*
Y867980D01*
X561352D01*
X563964Y868680D01*
X566306Y870032D01*
X568218Y871944D01*
X569570Y874286D01*
X570270Y876898D01*
Y877615D01*
D02*
G37*
G36*
X559365D02*
X549730D01*
Y876898D01*
X550430Y874286D01*
X551782Y871944D01*
X553694Y870032D01*
X556036Y868680D01*
X558648Y867980D01*
X559365D01*
Y877615D01*
D02*
G37*
G36*
X771155Y878770D02*
X768845D01*
X766615Y878172D01*
X764615Y877018D01*
X762982Y875385D01*
X761828Y873385D01*
X761230Y871155D01*
Y868845D01*
X761828Y866615D01*
X762982Y864615D01*
X764615Y862982D01*
X766615Y861828D01*
X768845Y861230D01*
X771155D01*
X773385Y861828D01*
X775385Y862982D01*
X777018Y864615D01*
X778172Y866615D01*
X778770Y868845D01*
Y871155D01*
X778172Y873385D01*
X777018Y875385D01*
X775385Y877018D01*
X773385Y878172D01*
X771155Y878770D01*
D02*
G37*
G36*
X694955D02*
X692645D01*
X690415Y878172D01*
X688415Y877018D01*
X686782Y875385D01*
X685628Y873385D01*
X685030Y871155D01*
Y868845D01*
X685628Y866615D01*
X686782Y864615D01*
X688415Y862982D01*
X690415Y861828D01*
X692645Y861230D01*
X694955D01*
X697185Y861828D01*
X699185Y862982D01*
X700818Y864615D01*
X701972Y866615D01*
X702570Y868845D01*
Y871155D01*
X701972Y873385D01*
X700818Y875385D01*
X699185Y877018D01*
X697185Y878172D01*
X694955Y878770D01*
D02*
G37*
G36*
X664589Y838270D02*
X664135D01*
Y830635D01*
X671770D01*
Y831089D01*
X671206Y833192D01*
X670118Y835078D01*
X668578Y836618D01*
X666692Y837706D01*
X664589Y838270D01*
D02*
G37*
G36*
X662865D02*
X662411D01*
X660308Y837706D01*
X658422Y836618D01*
X656882Y835078D01*
X655794Y833192D01*
X655230Y831089D01*
Y830635D01*
X662865D01*
Y838270D01*
D02*
G37*
G36*
X663500Y830000D02*
D01*
D01*
D01*
D02*
G37*
G36*
X694955Y904170D02*
X692645D01*
X690415Y903572D01*
X688415Y902418D01*
X686782Y900785D01*
X685628Y898785D01*
X685030Y896555D01*
Y894245D01*
X685628Y892015D01*
X686782Y890015D01*
X688415Y888382D01*
X690415Y887228D01*
X692645Y886630D01*
X694955D01*
X697185Y887228D01*
X697231Y887254D01*
X734225Y850260D01*
X677299Y793334D01*
X671124D01*
X670118Y795078D01*
X668578Y796618D01*
X666692Y797706D01*
X664589Y798270D01*
X662411D01*
X660308Y797706D01*
X658422Y796618D01*
X656882Y795078D01*
X655794Y793192D01*
X655230Y791089D01*
Y788911D01*
X655794Y786808D01*
X656882Y784922D01*
X658422Y783382D01*
X660308Y782294D01*
X662411Y781730D01*
X664589D01*
X666692Y782294D01*
X668578Y783382D01*
X670118Y784922D01*
X671124Y786666D01*
X678680D01*
X679956Y786920D01*
X681038Y787642D01*
X738940Y845545D01*
X756842Y827642D01*
X757924Y826920D01*
X759200Y826666D01*
X768230D01*
Y821730D01*
X784770D01*
Y838270D01*
X768230D01*
Y833334D01*
X760581D01*
X741298Y852617D01*
X701946Y891969D01*
X701972Y892015D01*
X702570Y894245D01*
Y896555D01*
X701972Y898785D01*
X700818Y900785D01*
X699185Y902418D01*
X697185Y903572D01*
X694955Y904170D01*
D02*
G37*
G36*
X671770Y829365D02*
X664135D01*
Y821730D01*
X664589D01*
X666692Y822294D01*
X668578Y823382D01*
X670118Y824922D01*
X671206Y826808D01*
X671770Y828911D01*
Y829365D01*
D02*
G37*
G36*
X662865D02*
X655230D01*
Y828911D01*
X655794Y826808D01*
X656882Y824922D01*
X658422Y823382D01*
X660308Y822294D01*
X662411Y821730D01*
X662865D01*
Y829365D01*
D02*
G37*
G36*
X831484Y836770D02*
X828516D01*
X825650Y836002D01*
X823080Y834518D01*
X820982Y832420D01*
X819498Y829850D01*
X818730Y826984D01*
Y824016D01*
X819498Y821150D01*
X820982Y818580D01*
X823080Y816482D01*
X825650Y814998D01*
X828516Y814230D01*
X831484D01*
X834350Y814998D01*
X836920Y816482D01*
X839018Y818580D01*
X840502Y821150D01*
X841270Y824016D01*
Y826984D01*
X840502Y829850D01*
X839018Y832420D01*
X836920Y834518D01*
X834350Y836002D01*
X831484Y836770D01*
D02*
G37*
G36*
X449270Y829270D02*
X430730D01*
Y810730D01*
X449270D01*
Y829270D01*
D02*
G37*
G36*
X415820D02*
X413380D01*
X411022Y828638D01*
X408908Y827418D01*
X407182Y825692D01*
X405962Y823578D01*
X405330Y821220D01*
Y818780D01*
X405962Y816422D01*
X407182Y814308D01*
X408908Y812582D01*
X411022Y811362D01*
X413380Y810730D01*
X415820D01*
X418178Y811362D01*
X420292Y812582D01*
X422018Y814308D01*
X423238Y816422D01*
X423870Y818780D01*
Y821220D01*
X423238Y823578D01*
X422018Y825692D01*
X420292Y827418D01*
X418178Y828638D01*
X415820Y829270D01*
D02*
G37*
G36*
X390420D02*
X387980D01*
X385622Y828638D01*
X383508Y827418D01*
X381782Y825692D01*
X380562Y823578D01*
X379930Y821220D01*
Y818780D01*
X380562Y816422D01*
X381782Y814308D01*
X383508Y812582D01*
X385622Y811362D01*
X387980Y810730D01*
X390420D01*
X392778Y811362D01*
X392997Y811488D01*
X406113Y798372D01*
X407194Y797650D01*
X408470Y797396D01*
X530730D01*
X532006Y797650D01*
X533088Y798372D01*
X537445Y802730D01*
X547270D01*
Y817270D01*
X532730D01*
Y807445D01*
X529349Y804064D01*
X526141D01*
X525615Y805334D01*
X525817Y805536D01*
X526774Y807194D01*
X527270Y809043D01*
Y810957D01*
X526774Y812806D01*
X525817Y814464D01*
X524464Y815817D01*
X522806Y816775D01*
X520957Y817270D01*
X519043D01*
X517194Y816775D01*
X515536Y815817D01*
X514183Y814464D01*
X513225Y812806D01*
X512730Y810957D01*
Y809043D01*
X513225Y807194D01*
X514183Y805536D01*
X514385Y805334D01*
X513859Y804064D01*
X409851D01*
X397712Y816203D01*
X397838Y816422D01*
X398470Y818780D01*
Y821220D01*
X397838Y823578D01*
X396618Y825692D01*
X394892Y827418D01*
X392778Y828638D01*
X390420Y829270D01*
D02*
G37*
G36*
X831484Y811270D02*
X828516D01*
X825650Y810502D01*
X823080Y809018D01*
X820982Y806920D01*
X819498Y804350D01*
X818730Y801484D01*
Y798516D01*
X819498Y795650D01*
X820982Y793080D01*
X823080Y790982D01*
X825650Y789498D01*
X828516Y788730D01*
X831484D01*
X834350Y789498D01*
X836920Y790982D01*
X839018Y793080D01*
X840502Y795650D01*
X841270Y798516D01*
Y801484D01*
X840502Y804350D01*
X839018Y806920D01*
X836920Y809018D01*
X834350Y810502D01*
X831484Y811270D01*
D02*
G37*
G36*
X784770Y798270D02*
X768230D01*
Y781730D01*
X784770D01*
Y798270D01*
D02*
G37*
G36*
X497253Y793345D02*
X492821D01*
X488474Y792480D01*
X484379Y790784D01*
X480694Y788322D01*
X477560Y785188D01*
X475098Y781502D01*
X473402Y777408D01*
X472537Y773061D01*
Y768629D01*
X473402Y764282D01*
X475098Y760187D01*
X477560Y756502D01*
X480694Y753368D01*
X484379Y750906D01*
X488474Y749209D01*
X492821Y748345D01*
X497253D01*
X501600Y749209D01*
X505695Y750906D01*
X509380Y753368D01*
X512514Y756502D01*
X514976Y760187D01*
X516672Y764282D01*
X517537Y768629D01*
Y773061D01*
X516672Y777408D01*
X514976Y781502D01*
X512514Y785188D01*
X509380Y788322D01*
X505695Y790784D01*
X501600Y792480D01*
X497253Y793345D01*
D02*
G37*
G36*
X922216Y792500D02*
X917784D01*
X913437Y791635D01*
X909342Y789939D01*
X905657Y787477D01*
X902523Y784343D01*
X900061Y780658D01*
X898365Y776563D01*
X897500Y772216D01*
Y767784D01*
X898365Y763437D01*
X900061Y759342D01*
X902523Y755657D01*
X905657Y752523D01*
X909342Y750061D01*
X913437Y748365D01*
X917784Y747500D01*
X922216D01*
X926563Y748365D01*
X930658Y750061D01*
X934343Y752523D01*
X937477Y755657D01*
X939939Y759342D01*
X941635Y763437D01*
X942500Y767784D01*
Y772216D01*
X941635Y776563D01*
X939939Y780658D01*
X937477Y784343D01*
X934343Y787477D01*
X930658Y789939D01*
X926563Y791635D01*
X922216Y792500D01*
D02*
G37*
G36*
X1539255Y996870D02*
X1538735D01*
Y988735D01*
X1546870D01*
Y989255D01*
X1546272Y991485D01*
X1545118Y993485D01*
X1543485Y995118D01*
X1541485Y996272D01*
X1539255Y996870D01*
D02*
G37*
G36*
X1537465D02*
X1536945D01*
X1534715Y996272D01*
X1532715Y995118D01*
X1531082Y993485D01*
X1529928Y991485D01*
X1529330Y989255D01*
Y988735D01*
X1537465D01*
Y996870D01*
D02*
G37*
G36*
X1546870Y987465D02*
X1538735D01*
Y979330D01*
X1539255D01*
X1541485Y979928D01*
X1543485Y981082D01*
X1545118Y982715D01*
X1546272Y984715D01*
X1546870Y986945D01*
Y987465D01*
D02*
G37*
G36*
X1537465D02*
X1529330D01*
Y986945D01*
X1529928Y984715D01*
X1531082Y982715D01*
X1532715Y981082D01*
X1534715Y979928D01*
X1536945Y979330D01*
X1537465D01*
Y987465D01*
D02*
G37*
G36*
X1539255Y946070D02*
X1536945D01*
X1534715Y945472D01*
X1532715Y944318D01*
X1531082Y942685D01*
X1529928Y940685D01*
X1529330Y938455D01*
Y936145D01*
X1529928Y933915D01*
X1531082Y931915D01*
X1532715Y930282D01*
X1534715Y929128D01*
X1536945Y928530D01*
X1539255D01*
X1541485Y929128D01*
X1543485Y930282D01*
X1545118Y931915D01*
X1546272Y933915D01*
X1546870Y936145D01*
Y938455D01*
X1546272Y940685D01*
X1545118Y942685D01*
X1543485Y944318D01*
X1541485Y945472D01*
X1539255Y946070D01*
D02*
G37*
G36*
X1537465Y856870D02*
X1536945D01*
X1534715Y856272D01*
X1532715Y855118D01*
X1531082Y853485D01*
X1529928Y851485D01*
X1529330Y849255D01*
Y848735D01*
X1537465D01*
Y856870D01*
D02*
G37*
G36*
Y847465D02*
X1529330D01*
Y846945D01*
X1529928Y844715D01*
X1531082Y842715D01*
X1532715Y841082D01*
X1534715Y839928D01*
X1536945Y839330D01*
X1537465D01*
Y847465D01*
D02*
G37*
G36*
X1463055Y831470D02*
X1460745D01*
X1458515Y830872D01*
X1456515Y829718D01*
X1454882Y828085D01*
X1453728Y826085D01*
X1453130Y823855D01*
Y821545D01*
X1453728Y819315D01*
X1454882Y817315D01*
X1456515Y815682D01*
X1458515Y814528D01*
X1460745Y813930D01*
X1463055D01*
X1465285Y814528D01*
X1467285Y815682D01*
X1468918Y817315D01*
X1470072Y819315D01*
X1470670Y821545D01*
Y823855D01*
X1470072Y826085D01*
X1468918Y828085D01*
X1467285Y829718D01*
X1465285Y830872D01*
X1463055Y831470D01*
D02*
G37*
G36*
Y806070D02*
X1460745D01*
X1458515Y805472D01*
X1456515Y804318D01*
X1454882Y802685D01*
X1453728Y800685D01*
X1453130Y798455D01*
Y796145D01*
X1453728Y793915D01*
X1454882Y791915D01*
X1456515Y790282D01*
X1458515Y789128D01*
X1460745Y788530D01*
X1463055D01*
X1465285Y789128D01*
X1467285Y790282D01*
X1468918Y791915D01*
X1470072Y793915D01*
X1470670Y796145D01*
Y798455D01*
X1470072Y800685D01*
X1468918Y802685D01*
X1467285Y804318D01*
X1465285Y805472D01*
X1463055Y806070D01*
D02*
G37*
G36*
X1174520Y992520D02*
X1167635D01*
Y985635D01*
X1174520D01*
Y992520D01*
D02*
G37*
G36*
X1166365D02*
X1159480D01*
Y985635D01*
X1166365D01*
Y992520D01*
D02*
G37*
G36*
X1114520D02*
X1107635D01*
Y985635D01*
X1114520D01*
Y992520D01*
D02*
G37*
G36*
X1106365D02*
X1099480D01*
Y985635D01*
X1106365D01*
Y992520D01*
D02*
G37*
G36*
X1354520D02*
X1347635D01*
Y985635D01*
X1354520D01*
Y992520D01*
D02*
G37*
G36*
X1054520D02*
X1047635D01*
Y985635D01*
X1054520D01*
Y992520D01*
D02*
G37*
G36*
X1346365D02*
X1339480D01*
Y985635D01*
X1346365D01*
Y992520D01*
D02*
G37*
G36*
X1046365D02*
X1039480D01*
Y985635D01*
X1046365D01*
Y992520D01*
D02*
G37*
G36*
X1294520D02*
X1287635D01*
Y985635D01*
X1294520D01*
Y992520D01*
D02*
G37*
G36*
X1234520D02*
X1227635D01*
Y985635D01*
X1234520D01*
Y992520D01*
D02*
G37*
G36*
X1286365D02*
X1279480D01*
Y985635D01*
X1286365D01*
Y992520D01*
D02*
G37*
G36*
X1226365D02*
X1219480D01*
Y985635D01*
X1226365D01*
Y992520D01*
D02*
G37*
G36*
X1294520Y984365D02*
X1287635D01*
Y977480D01*
X1294520D01*
Y984365D01*
D02*
G37*
G36*
X1286365D02*
X1279480D01*
Y977480D01*
X1286365D01*
Y984365D01*
D02*
G37*
G36*
X1234520D02*
X1227635D01*
Y977480D01*
X1234520D01*
Y984365D01*
D02*
G37*
G36*
X1226365D02*
X1219480D01*
Y977480D01*
X1226365D01*
Y984365D01*
D02*
G37*
G36*
X1174520Y984365D02*
X1167635D01*
Y977480D01*
X1174520D01*
Y984365D01*
D02*
G37*
G36*
X1166365D02*
X1159480D01*
Y977480D01*
X1166365D01*
Y984365D01*
D02*
G37*
G36*
X1114520Y984365D02*
X1107635D01*
Y977480D01*
X1114520D01*
Y984365D01*
D02*
G37*
G36*
X1106365D02*
X1099480D01*
Y977480D01*
X1106365D01*
Y984365D01*
D02*
G37*
G36*
X1054520Y984365D02*
X1047635D01*
Y977480D01*
X1054520D01*
Y984365D01*
D02*
G37*
G36*
X1046365D02*
X1039480D01*
Y977480D01*
X1046365D01*
Y984365D01*
D02*
G37*
G36*
X1161089Y935570D02*
X1158911D01*
X1156808Y935006D01*
X1154922Y933918D01*
X1153382Y932378D01*
X1152294Y930492D01*
X1151730Y928389D01*
Y926211D01*
X1152294Y924108D01*
X1153382Y922222D01*
X1154922Y920682D01*
X1156808Y919594D01*
X1158911Y919030D01*
X1161089D01*
X1163192Y919594D01*
X1165078Y920682D01*
X1166618Y922222D01*
X1167706Y924108D01*
X1168270Y926211D01*
Y928389D01*
X1167706Y930492D01*
X1166618Y932378D01*
X1165078Y933918D01*
X1163192Y935006D01*
X1161089Y935570D01*
D02*
G37*
G36*
X1111089D02*
X1108911D01*
X1106808Y935006D01*
X1104922Y933918D01*
X1103382Y932378D01*
X1102294Y930492D01*
X1101730Y928389D01*
Y926211D01*
X1102294Y924108D01*
X1103382Y922222D01*
X1104922Y920682D01*
X1106808Y919594D01*
X1108911Y919030D01*
X1111089D01*
X1113192Y919594D01*
X1115078Y920682D01*
X1116618Y922222D01*
X1117706Y924108D01*
X1118270Y926211D01*
Y928389D01*
X1117706Y930492D01*
X1116618Y932378D01*
X1115078Y933918D01*
X1113192Y935006D01*
X1111089Y935570D01*
D02*
G37*
G36*
X1061089D02*
X1058911D01*
X1056808Y935006D01*
X1054922Y933918D01*
X1053382Y932378D01*
X1052294Y930492D01*
X1051730Y928389D01*
Y926211D01*
X1052294Y924108D01*
X1053382Y922222D01*
X1054922Y920682D01*
X1056808Y919594D01*
X1058911Y919030D01*
X1061089D01*
X1063192Y919594D01*
X1065078Y920682D01*
X1066618Y922222D01*
X1067706Y924108D01*
X1068270Y926211D01*
Y928389D01*
X1067706Y930492D01*
X1066618Y932378D01*
X1065078Y933918D01*
X1063192Y935006D01*
X1061089Y935570D01*
D02*
G37*
G36*
X1291155Y919570D02*
X1290635D01*
Y911435D01*
X1298770D01*
Y911955D01*
X1298172Y914185D01*
X1297018Y916185D01*
X1295385Y917818D01*
X1293385Y918972D01*
X1291155Y919570D01*
D02*
G37*
G36*
X1289365D02*
X1288845D01*
X1286615Y918972D01*
X1284615Y917818D01*
X1282982Y916185D01*
X1281828Y914185D01*
X1281230Y911955D01*
Y911435D01*
X1289365D01*
Y919570D01*
D02*
G37*
G36*
X1298770Y910165D02*
X1290635D01*
Y902030D01*
X1291155D01*
X1293385Y902628D01*
X1295385Y903782D01*
X1297018Y905415D01*
X1298172Y907415D01*
X1298770Y909645D01*
Y910165D01*
D02*
G37*
G36*
X1289365D02*
X1281230D01*
Y909645D01*
X1281828Y907415D01*
X1282982Y905415D01*
X1284615Y903782D01*
X1286615Y902628D01*
X1288845Y902030D01*
X1289365D01*
Y910165D01*
D02*
G37*
G36*
X1222570Y919570D02*
X1205030D01*
Y902030D01*
X1222570D01*
Y919570D01*
D02*
G37*
G36*
X1291155Y868770D02*
X1288845D01*
X1286615Y868172D01*
X1284615Y867018D01*
X1282982Y865385D01*
X1281828Y863385D01*
X1281230Y861155D01*
Y858845D01*
X1281828Y856615D01*
X1282982Y854615D01*
X1284615Y852982D01*
X1286615Y851828D01*
X1288845Y851230D01*
X1291155D01*
X1293385Y851828D01*
X1295385Y852982D01*
X1297018Y854615D01*
X1298172Y856615D01*
X1298770Y858845D01*
Y861155D01*
X1298172Y863385D01*
X1297018Y865385D01*
X1295385Y867018D01*
X1293385Y868172D01*
X1291155Y868770D01*
D02*
G37*
G36*
Y894170D02*
X1288845D01*
X1286615Y893572D01*
X1284615Y892418D01*
X1282982Y890785D01*
X1281828Y888785D01*
X1281230Y886555D01*
Y884245D01*
X1281828Y882015D01*
X1282982Y880015D01*
X1284615Y878382D01*
X1286615Y877228D01*
X1288845Y876630D01*
X1291155D01*
X1293385Y877228D01*
X1293431Y877254D01*
X1332718Y837967D01*
Y833948D01*
X1332972Y832672D01*
X1333695Y831590D01*
X1376033Y789251D01*
X1376730Y788270D01*
Y771730D01*
X1393270D01*
Y788270D01*
X1383591D01*
Y789743D01*
X1383338Y791019D01*
X1382615Y792100D01*
X1339386Y835329D01*
Y839348D01*
X1339133Y840624D01*
X1338410Y841705D01*
X1298146Y881969D01*
X1298172Y882015D01*
X1298770Y884245D01*
Y886555D01*
X1298172Y888785D01*
X1297018Y890785D01*
X1295385Y892418D01*
X1293385Y893572D01*
X1291155Y894170D01*
D02*
G37*
G36*
X1361089Y788270D02*
X1358911D01*
X1356808Y787706D01*
X1354922Y786618D01*
X1353382Y785078D01*
X1352294Y783192D01*
X1351730Y781089D01*
Y778911D01*
X1352294Y776808D01*
X1353382Y774922D01*
X1354922Y773382D01*
X1356808Y772294D01*
X1358911Y771730D01*
X1361089D01*
X1363192Y772294D01*
X1365078Y773382D01*
X1366618Y774922D01*
X1367706Y776808D01*
X1368270Y778911D01*
Y781089D01*
X1367706Y783192D01*
X1366618Y785078D01*
X1365078Y786618D01*
X1363192Y787706D01*
X1361089Y788270D01*
D02*
G37*
G36*
X1336089D02*
X1333911D01*
X1331808Y787706D01*
X1329922Y786618D01*
X1328382Y785078D01*
X1327294Y783192D01*
X1326730Y781089D01*
Y778911D01*
X1327294Y776808D01*
X1328382Y774922D01*
X1329922Y773382D01*
X1331808Y772294D01*
X1333911Y771730D01*
X1336089D01*
X1338192Y772294D01*
X1340078Y773382D01*
X1341618Y774922D01*
X1342706Y776808D01*
X1343270Y778911D01*
Y781089D01*
X1342706Y783192D01*
X1341618Y785078D01*
X1340078Y786618D01*
X1338192Y787706D01*
X1336089Y788270D01*
D02*
G37*
G36*
X1311089D02*
X1308911D01*
X1306808Y787706D01*
X1304922Y786618D01*
X1303382Y785078D01*
X1302294Y783192D01*
X1301730Y781089D01*
Y778911D01*
X1302294Y776808D01*
X1303382Y774922D01*
X1304922Y773382D01*
X1306808Y772294D01*
X1308911Y771730D01*
X1311089D01*
X1313192Y772294D01*
X1315078Y773382D01*
X1316618Y774922D01*
X1317706Y776808D01*
X1318270Y778911D01*
Y781089D01*
X1317706Y783192D01*
X1316618Y785078D01*
X1315078Y786618D01*
X1313192Y787706D01*
X1311089Y788270D01*
D02*
G37*
G36*
X1286089D02*
X1283911D01*
X1281808Y787706D01*
X1279922Y786618D01*
X1278382Y785078D01*
X1277294Y783192D01*
X1276730Y781089D01*
Y778911D01*
X1277294Y776808D01*
X1278382Y774922D01*
X1279922Y773382D01*
X1281808Y772294D01*
X1283911Y771730D01*
X1286089D01*
X1288192Y772294D01*
X1290078Y773382D01*
X1291618Y774922D01*
X1292706Y776808D01*
X1293270Y778911D01*
Y781089D01*
X1292706Y783192D01*
X1291618Y785078D01*
X1290078Y786618D01*
X1288192Y787706D01*
X1286089Y788270D01*
D02*
G37*
G36*
X1261089D02*
X1258911D01*
X1256808Y787706D01*
X1254922Y786618D01*
X1253382Y785078D01*
X1252294Y783192D01*
X1251730Y781089D01*
Y778911D01*
X1252294Y776808D01*
X1253382Y774922D01*
X1254922Y773382D01*
X1256808Y772294D01*
X1258911Y771730D01*
X1261089D01*
X1263192Y772294D01*
X1265078Y773382D01*
X1266618Y774922D01*
X1267706Y776808D01*
X1268270Y778911D01*
Y781089D01*
X1267706Y783192D01*
X1266618Y785078D01*
X1265078Y786618D01*
X1263192Y787706D01*
X1261089Y788270D01*
D02*
G37*
G36*
X1168270Y780970D02*
X1151730D01*
Y764430D01*
X1168270D01*
Y780970D01*
D02*
G37*
G36*
X1068270D02*
X1051730D01*
Y764430D01*
X1068270D01*
Y780970D01*
D02*
G37*
G36*
X1012216Y792500D02*
X1007784D01*
X1003437Y791635D01*
X999342Y789939D01*
X995657Y787477D01*
X992523Y784343D01*
X990061Y780658D01*
X988365Y776563D01*
X987500Y772216D01*
Y767784D01*
X988365Y763437D01*
X990061Y759342D01*
X992523Y755657D01*
X995657Y752523D01*
X999342Y750061D01*
X1003437Y748365D01*
X1007784Y747500D01*
X1012216D01*
X1016563Y748365D01*
X1020658Y750061D01*
X1024343Y752523D01*
X1027477Y755657D01*
X1029939Y759342D01*
X1031635Y763437D01*
X1032500Y767784D01*
Y772216D01*
X1031635Y776563D01*
X1029939Y780658D01*
X1027477Y784343D01*
X1024343Y787477D01*
X1020658Y789939D01*
X1016563Y791635D01*
X1012216Y792500D01*
D02*
G37*
G36*
X1065074Y705584D02*
X1047250D01*
X1045974Y705330D01*
X1044892Y704607D01*
X1039305Y699020D01*
X1025980D01*
Y680980D01*
X1044020D01*
Y694305D01*
X1048631Y698916D01*
X1054863D01*
X1055203Y697646D01*
X1054462Y697218D01*
X1052782Y695538D01*
X1051595Y693482D01*
X1050980Y691188D01*
Y688812D01*
X1051595Y686518D01*
X1052782Y684462D01*
X1054462Y682782D01*
X1056518Y681595D01*
X1056666Y681555D01*
Y585400D01*
X1056920Y584124D01*
X1057643Y583042D01*
X1079954Y560731D01*
X1079928Y560685D01*
X1079330Y558455D01*
Y556145D01*
X1079928Y553915D01*
X1081082Y551915D01*
X1082715Y550282D01*
X1084715Y549128D01*
X1086945Y548530D01*
X1089255D01*
X1091485Y549128D01*
X1093485Y550282D01*
X1095118Y551915D01*
X1096272Y553915D01*
X1096870Y556145D01*
Y558455D01*
X1096272Y560685D01*
X1095118Y562685D01*
X1093485Y564318D01*
X1091485Y565472D01*
X1089255Y566070D01*
X1086945D01*
X1084715Y565472D01*
X1084669Y565446D01*
X1063334Y586781D01*
Y681555D01*
X1063482Y681595D01*
X1065538Y682782D01*
X1067218Y684462D01*
X1068405Y686518D01*
X1069020Y688812D01*
Y691188D01*
X1068798Y692015D01*
X1069937Y692672D01*
X1096766Y665843D01*
Y613170D01*
X1095496Y612830D01*
X1095118Y613485D01*
X1093485Y615118D01*
X1091485Y616272D01*
X1089255Y616870D01*
X1088735D01*
Y608100D01*
Y599330D01*
X1089255D01*
X1091485Y599928D01*
X1093485Y601082D01*
X1095118Y602715D01*
X1095496Y603370D01*
X1096766Y603030D01*
Y596081D01*
X1091531Y590846D01*
X1091485Y590872D01*
X1089255Y591470D01*
X1086945D01*
X1084715Y590872D01*
X1082715Y589718D01*
X1081082Y588085D01*
X1079928Y586085D01*
X1079330Y583855D01*
Y581545D01*
X1079928Y579315D01*
X1081082Y577315D01*
X1082715Y575682D01*
X1084715Y574528D01*
X1086945Y573930D01*
X1089255D01*
X1091485Y574528D01*
X1091531Y574554D01*
X1103143Y562942D01*
Y555523D01*
X1103397Y554247D01*
X1104120Y553165D01*
X1119480Y537805D01*
Y527480D01*
X1131970D01*
X1132456Y526307D01*
X1089483Y483334D01*
X1050324D01*
X1049318Y485078D01*
X1047778Y486618D01*
X1045892Y487706D01*
X1043789Y488270D01*
X1041611D01*
X1039508Y487706D01*
X1037622Y486618D01*
X1036082Y485078D01*
X1034994Y483192D01*
X1034430Y481089D01*
Y478911D01*
X1034994Y476808D01*
X1036082Y474922D01*
X1037622Y473382D01*
X1039508Y472294D01*
X1041611Y471730D01*
X1043789D01*
X1045892Y472294D01*
X1047778Y473382D01*
X1049318Y474922D01*
X1050324Y476666D01*
X1090864D01*
X1092140Y476920D01*
X1093222Y477643D01*
X1155358Y539779D01*
X1156080Y540860D01*
X1156334Y542136D01*
Y578242D01*
X1157617Y578983D01*
X1159017Y580383D01*
X1160007Y582097D01*
X1160520Y584010D01*
Y585990D01*
X1160007Y587903D01*
X1159017Y589617D01*
X1157617Y591017D01*
X1155903Y592007D01*
X1153990Y592520D01*
X1152010D01*
X1150097Y592007D01*
X1148383Y591017D01*
X1146982Y589617D01*
X1145993Y587903D01*
X1145480Y585990D01*
Y584010D01*
X1145993Y582097D01*
X1146982Y580383D01*
X1148383Y578983D01*
X1149666Y578242D01*
Y543517D01*
X1135693Y529544D01*
X1134520Y530031D01*
Y542520D01*
X1124195D01*
X1109811Y556904D01*
Y564323D01*
X1109558Y565598D01*
X1108835Y566680D01*
X1096246Y579269D01*
X1096272Y579315D01*
X1096870Y581545D01*
Y583855D01*
X1096272Y586085D01*
X1096246Y586131D01*
X1102458Y592342D01*
X1103180Y593424D01*
X1103434Y594700D01*
Y667224D01*
X1103180Y668500D01*
X1102458Y669582D01*
X1067432Y704607D01*
X1066350Y705330D01*
X1065074Y705584D01*
D02*
G37*
G36*
X1087465Y616870D02*
X1086945D01*
X1084715Y616272D01*
X1082715Y615118D01*
X1081082Y613485D01*
X1079928Y611485D01*
X1079330Y609255D01*
Y608735D01*
X1087465D01*
Y616870D01*
D02*
G37*
G36*
Y607465D02*
X1079330D01*
Y606945D01*
X1079928Y604715D01*
X1081082Y602715D01*
X1082715Y601082D01*
X1084715Y599928D01*
X1086945Y599330D01*
X1087465D01*
Y607465D01*
D02*
G37*
G36*
X1020670Y616870D02*
X1003130D01*
Y599330D01*
X1020670D01*
Y616870D01*
D02*
G37*
G36*
X1013055Y591470D02*
X1010745D01*
X1008515Y590872D01*
X1006515Y589718D01*
X1004882Y588085D01*
X1003728Y586085D01*
X1003130Y583855D01*
Y581545D01*
X1003728Y579315D01*
X1004882Y577315D01*
X1006515Y575682D01*
X1008515Y574528D01*
X1010745Y573930D01*
X1013055D01*
X1015285Y574528D01*
X1017285Y575682D01*
X1018918Y577315D01*
X1020072Y579315D01*
X1020670Y581545D01*
Y583855D01*
X1020072Y586085D01*
X1018918Y588085D01*
X1017285Y589718D01*
X1015285Y590872D01*
X1013055Y591470D01*
D02*
G37*
G36*
Y566070D02*
X1010745D01*
X1008515Y565472D01*
X1006515Y564318D01*
X1004882Y562685D01*
X1003728Y560685D01*
X1003130Y558455D01*
Y556145D01*
X1003728Y553915D01*
X1004882Y551915D01*
X1006515Y550282D01*
X1008515Y549128D01*
X1010745Y548530D01*
X1013055D01*
X1015285Y549128D01*
X1017285Y550282D01*
X1018918Y551915D01*
X1020072Y553915D01*
X1020670Y556145D01*
Y558455D01*
X1020072Y560685D01*
X1018918Y562685D01*
X1017285Y564318D01*
X1015285Y565472D01*
X1013055Y566070D01*
D02*
G37*
G36*
X1089255Y540670D02*
X1086945D01*
X1084715Y540072D01*
X1082715Y538918D01*
X1081082Y537285D01*
X1079928Y535285D01*
X1079330Y533055D01*
Y530745D01*
X1079928Y528515D01*
X1081082Y526515D01*
X1082715Y524882D01*
X1084715Y523728D01*
X1086945Y523130D01*
X1089255D01*
X1091485Y523728D01*
X1093485Y524882D01*
X1095118Y526515D01*
X1096272Y528515D01*
X1096870Y530745D01*
Y533055D01*
X1096272Y535285D01*
X1095118Y537285D01*
X1093485Y538918D01*
X1091485Y540072D01*
X1089255Y540670D01*
D02*
G37*
G36*
X1013055D02*
X1010745D01*
X1008515Y540072D01*
X1006515Y538918D01*
X1004882Y537285D01*
X1003728Y535285D01*
X1003130Y533055D01*
Y530745D01*
X1003728Y528515D01*
X1004882Y526515D01*
X1006515Y524882D01*
X1008515Y523728D01*
X1010745Y523130D01*
X1013055D01*
X1015285Y523728D01*
X1017285Y524882D01*
X1018918Y526515D01*
X1020072Y528515D01*
X1020670Y530745D01*
Y533055D01*
X1020072Y535285D01*
X1018918Y537285D01*
X1017285Y538918D01*
X1015285Y540072D01*
X1013055Y540670D01*
D02*
G37*
G36*
X1474520Y542520D02*
X1467635D01*
Y535635D01*
X1474520D01*
Y542520D01*
D02*
G37*
G36*
X1466365D02*
X1459480D01*
Y535635D01*
X1466365D01*
Y542520D01*
D02*
G37*
G36*
X1414520D02*
X1407635D01*
Y535635D01*
X1414520D01*
Y542520D01*
D02*
G37*
G36*
X1354520D02*
X1347635D01*
Y535635D01*
X1354520D01*
Y542520D01*
D02*
G37*
G36*
X1406365D02*
X1399480D01*
Y535635D01*
X1406365D01*
Y542520D01*
D02*
G37*
G36*
X1346365D02*
X1339480D01*
Y535635D01*
X1346365D01*
Y542520D01*
D02*
G37*
G36*
X1294520D02*
X1287635D01*
Y535635D01*
X1294520D01*
Y542520D01*
D02*
G37*
G36*
X1286365D02*
X1279480D01*
Y535635D01*
X1286365D01*
Y542520D01*
D02*
G37*
G36*
X1534520D02*
X1527635D01*
Y535635D01*
X1534520D01*
Y542520D01*
D02*
G37*
G36*
X1234520D02*
X1227635D01*
Y535635D01*
X1234520D01*
Y542520D01*
D02*
G37*
G36*
X1526365D02*
X1519480D01*
Y535635D01*
X1526365D01*
Y542520D01*
D02*
G37*
G36*
X1226365D02*
X1219480D01*
Y535635D01*
X1226365D01*
Y542520D01*
D02*
G37*
G36*
X1534520Y534365D02*
X1527635D01*
Y527480D01*
X1534520D01*
Y534365D01*
D02*
G37*
G36*
X1526365D02*
X1519480D01*
Y527480D01*
X1526365D01*
Y534365D01*
D02*
G37*
G36*
X1474520Y534365D02*
X1467635D01*
Y527480D01*
X1474520D01*
Y534365D01*
D02*
G37*
G36*
X1466365D02*
X1459480D01*
Y527480D01*
X1466365D01*
Y534365D01*
D02*
G37*
G36*
X1414520Y534365D02*
X1407635D01*
Y527480D01*
X1414520D01*
Y534365D01*
D02*
G37*
G36*
X1406365D02*
X1399480D01*
Y527480D01*
X1406365D01*
Y534365D01*
D02*
G37*
G36*
X1354520D02*
X1347635D01*
Y527480D01*
X1354520D01*
Y534365D01*
D02*
G37*
G36*
X1346365D02*
X1339480D01*
Y527480D01*
X1346365D01*
Y534365D01*
D02*
G37*
G36*
X1294520Y534365D02*
X1287635D01*
Y527480D01*
X1294520D01*
Y534365D01*
D02*
G37*
G36*
X1286365D02*
X1279480D01*
Y527480D01*
X1286365D01*
Y534365D01*
D02*
G37*
G36*
X1234520Y534365D02*
X1227635D01*
Y527480D01*
X1234520D01*
Y534365D01*
D02*
G37*
G36*
X1226365D02*
X1219480D01*
Y527480D01*
X1226365D01*
Y534365D01*
D02*
G37*
%LPD*%
D12*
X1671500Y1028500D02*
Y1087988D01*
Y1028500D02*
X1690000Y1010000D01*
X1763512Y1180000D02*
X1820000D01*
X1671500Y1087988D02*
X1763512Y1180000D01*
X1667501Y982901D02*
X1741900Y1057300D01*
X1213800Y885400D02*
X1215522Y883678D01*
X1220698D01*
X1225570Y878806D01*
Y844430D02*
Y878806D01*
Y844430D02*
X1245000Y825000D01*
X1222500Y802500D02*
X1245000Y825000D01*
X1254600Y834600D01*
X1290000D01*
X1222500Y774822D02*
Y802500D01*
Y774822D02*
X1238422Y758900D01*
X1543485D01*
X1620000Y1225676D02*
Y1260000D01*
X1570000Y1175676D02*
X1620000Y1225676D01*
X1570000Y1140000D02*
Y1175676D01*
Y1124978D02*
Y1140000D01*
X1551100Y766515D02*
Y860000D01*
X1820000Y1205400D02*
Y1230800D01*
X1667501Y904833D02*
Y982901D01*
Y904833D02*
X1680001Y892333D01*
Y812700D02*
Y892333D01*
X1551100Y860000D02*
Y898900D01*
X1598400Y812700D02*
X1680001D01*
X1551100Y860000D02*
X1598400Y812700D01*
X1570000Y1124978D02*
X1629800Y1065178D01*
Y1003600D02*
Y1065178D01*
X1538100Y911900D02*
X1629800Y1003600D01*
X1543485Y758900D02*
X1551100Y766515D01*
X1538100Y911900D02*
X1551100Y898900D01*
X1014600Y885400D02*
X1213800D01*
X1010000Y890000D02*
X1014600Y885400D01*
D15*
X1776500Y510000D02*
D03*
X1020000Y1267300D02*
D03*
X1320000Y1226500D02*
D03*
X1232700Y1270000D02*
D03*
X1070000Y1267300D02*
D03*
X1672700Y770000D02*
D03*
X1830000Y967300D02*
D03*
X1780001Y967300D02*
D03*
X1730001D02*
D03*
X1680001D02*
D03*
X1170000Y1267300D02*
D03*
X1370000Y1226500D02*
D03*
X1120000Y1267300D02*
D03*
X1270000Y1226500D02*
D03*
X1220000D02*
D03*
X1490000Y670000D02*
D03*
X1465000D02*
D03*
X1440000D02*
D03*
X1415000D02*
D03*
X1390000D02*
D03*
X1365000D02*
D03*
X1132700D02*
D03*
X1462700Y480000D02*
D03*
X1255400D02*
D03*
X1042700D02*
D03*
X1617300Y1060000D02*
D03*
X1590000Y862700D02*
D03*
X1235000Y780000D02*
D03*
X1260000D02*
D03*
X1285000D02*
D03*
X1310000D02*
D03*
X1335000D02*
D03*
X1360000D02*
D03*
X1160000Y927300D02*
D03*
X1110000D02*
D03*
X1060000D02*
D03*
X663500Y830000D02*
D03*
X780000Y1010000D02*
D03*
X663500Y790000D02*
D03*
D16*
X1663500Y510000D02*
D03*
X1387300Y1270000D02*
D03*
X1827300Y770000D02*
D03*
X1340000Y670000D02*
D03*
X1287300D02*
D03*
X1617300Y480000D02*
D03*
X1410000D02*
D03*
X1197300D02*
D03*
X1462700Y1060000D02*
D03*
X1385000Y780000D02*
D03*
X776500Y830000D02*
D03*
X745000Y1010000D02*
D03*
X776500Y790000D02*
D03*
D17*
X440000Y1000000D02*
D03*
X414650D02*
D03*
D18*
X389300D02*
D03*
D21*
X640000Y880000D02*
D03*
X1047000Y985000D02*
D03*
X1347000Y535000D02*
D03*
X1527000D02*
D03*
X1467000D02*
D03*
X1407000D02*
D03*
X1287000D02*
D03*
X1227000D02*
D03*
X1127000D02*
D03*
X1347000Y985000D02*
D03*
X1287000D02*
D03*
X1227000D02*
D03*
X1167000D02*
D03*
X1107000D02*
D03*
D22*
X666000Y930000D02*
D03*
X1073000Y1035000D02*
D03*
X1373000Y585000D02*
D03*
X1553000D02*
D03*
X1493000D02*
D03*
X1433000D02*
D03*
X1313000D02*
D03*
X1253000D02*
D03*
X1153000D02*
D03*
X1373000Y1035000D02*
D03*
X1313000D02*
D03*
X1253000D02*
D03*
X1193000D02*
D03*
X1133000D02*
D03*
D23*
X1496000Y1266200D02*
D03*
X1470000D02*
D03*
D24*
X1444000D02*
D03*
D25*
X1010000Y770000D02*
D03*
X1590000Y690000D02*
D03*
X1850000Y1280000D02*
D03*
Y470000D02*
D03*
X920000Y770000D02*
D03*
Y1060000D02*
D03*
X495037Y770845D02*
D03*
X500000Y1060000D02*
D03*
D26*
X1020000Y1112700D02*
D03*
X1320000Y1113500D02*
D03*
X1070000Y1112700D02*
D03*
X1830000Y812700D02*
D03*
X1780001Y812700D02*
D03*
X1730001D02*
D03*
X1680001D02*
D03*
X1170000Y1112700D02*
D03*
X1370000Y1113500D02*
D03*
X1120000Y1112700D02*
D03*
X1270000Y1113500D02*
D03*
X1220000D02*
D03*
X1590000Y1017300D02*
D03*
X1160000Y772700D02*
D03*
X1110000D02*
D03*
X1060000D02*
D03*
D27*
X1545000Y1140000D02*
D03*
X1697500Y595250D02*
D03*
X1035000Y690000D02*
D03*
D28*
X1570000Y1140000D02*
D03*
X1722500Y595250D02*
D03*
X1684750Y1082500D02*
D03*
X1060000Y690000D02*
D03*
X1340000Y900000D02*
D03*
D31*
X1810000Y720000D02*
D03*
Y700000D02*
D03*
Y680000D02*
D03*
Y660000D02*
D03*
X560000Y1020000D02*
D03*
X580000Y810000D02*
D03*
X670000Y1020000D02*
D03*
X520000Y810000D02*
D03*
D32*
X1810000Y640000D02*
D03*
D33*
X1684750Y1057500D02*
D03*
X1340000Y875000D02*
D03*
D34*
X1690000Y660000D02*
D03*
Y685500D02*
D03*
X830000Y825500D02*
D03*
Y800000D02*
D03*
X1690000Y1190000D02*
D03*
Y1215500D02*
D03*
X830000Y950000D02*
D03*
Y975500D02*
D03*
D35*
X1690000Y711000D02*
D03*
X830000Y851000D02*
D03*
X1690000Y1241000D02*
D03*
X830000Y1001000D02*
D03*
D38*
X1760319Y673357D02*
D03*
Y693357D02*
D03*
X1580000Y1210000D02*
D03*
X1560000D02*
D03*
D39*
X1760319Y713357D02*
D03*
D40*
X1540000Y1210000D02*
D03*
D41*
X540000Y1020000D02*
D03*
X600000Y810000D02*
D03*
X650000Y1020000D02*
D03*
X540000Y810000D02*
D03*
D47*
X1650000Y490000D02*
X1680000D01*
X1640704Y499296D02*
Y535559D01*
X1680000Y490000D02*
X1806000Y616000D01*
X1640704Y499296D02*
X1650000Y490000D01*
X1776500Y510000D02*
Y576500D01*
X1819270Y619270D02*
Y670730D01*
X1776500Y576500D02*
X1819270Y619270D01*
X1810000Y680000D02*
X1819270Y670730D01*
X1663500Y510000D02*
Y526500D01*
X1494763Y681500D02*
X1640704Y535559D01*
X1438500Y681500D02*
X1494763D01*
X1847500Y968537D02*
Y1110157D01*
X1741900Y1108100D02*
X1763800Y1130000D01*
X1827657D01*
X1847500Y1110157D01*
X1716725Y1082925D02*
X1741900Y1108100D01*
X1778338Y1031900D02*
X1818100D01*
X1713738Y967300D02*
X1778338Y1031900D01*
X1680001Y967300D02*
X1713738D01*
X1684750Y1057500D02*
X1710175Y1082925D01*
X1716725D01*
X1336052Y833948D02*
Y839348D01*
X1380257Y784743D02*
X1385000Y780000D01*
X1336052Y833948D02*
X1380257Y789743D01*
Y784743D02*
Y789743D01*
X1290000Y885400D02*
X1336052Y839348D01*
X440000Y1000000D02*
X479126D01*
X549646Y929480D01*
X590520D01*
X640000Y880000D01*
X408470Y800730D02*
X530730D01*
X540000Y810000D01*
X389200Y820000D02*
X408470Y800730D01*
X619270Y819270D02*
X640000Y840000D01*
X588387Y810584D02*
X590730Y812927D01*
X580000Y810000D02*
X580584Y810584D01*
X640000Y840000D02*
Y880000D01*
X592645Y819270D02*
X619270D01*
X590730Y812927D02*
Y817355D01*
X580584Y810584D02*
X588387D01*
X590730Y817355D02*
X592645Y819270D01*
X640000Y880000D02*
X655250Y895250D01*
X990000Y1200000D02*
X1005079Y1184921D01*
Y1108997D02*
Y1184921D01*
X1030000Y1060000D02*
Y1084076D01*
X1005079Y1108997D02*
X1030000Y1084076D01*
X990000Y1130000D02*
X999809Y1120191D01*
Y930191D02*
Y1120191D01*
X992343Y1300000D02*
X1375925D01*
X990000Y1297657D02*
X992343Y1300000D01*
X1020000Y1267300D02*
X1021913Y1265387D01*
Y1260787D02*
Y1265387D01*
X1409724Y1266200D02*
X1444000D01*
X1375925Y1300000D02*
X1409724Y1266200D01*
X1105476Y1267300D02*
X1132776Y1240000D01*
X1443800D02*
X1470000Y1266200D01*
X1132776Y1240000D02*
X1443800D01*
X1537300Y1260000D02*
X1539550Y1257750D01*
Y1256987D02*
Y1257750D01*
Y1256987D02*
X1546057Y1250480D01*
X1570793D01*
X1580313Y1260000D01*
X1594600D01*
X1550000Y1260763D02*
X1558757Y1269520D01*
X1606567Y1260733D02*
Y1267177D01*
Y1260733D02*
X1607300Y1260000D01*
X1550000D02*
Y1260763D01*
X1558757Y1269520D02*
X1604224D01*
X1606567Y1267177D01*
X1031500Y1124200D02*
X1115800D01*
X1120000Y1112700D02*
Y1120000D01*
X1115800Y1124200D02*
X1120000Y1120000D01*
X1020000Y1112700D02*
X1031500Y1124200D01*
X1560000Y1155000D02*
Y1210000D01*
X1545000Y1140000D02*
X1560000Y1155000D01*
X1400000Y780000D02*
Y1084600D01*
X1488100Y1172700D01*
X1443540Y1219770D02*
X1570230D01*
X1440000Y1216230D02*
X1443540Y1219770D01*
X1280270Y1216230D02*
X1440000D01*
X1170000Y1112700D02*
X1200575D01*
X1211646Y1123770D02*
X1362970D01*
X1200575Y1112700D02*
X1211646Y1123770D01*
X1362970D02*
X1411900Y1172700D01*
X1070000Y1267300D02*
X1105476D01*
X1220000Y1226500D02*
X1270000D01*
X1280270Y1216230D01*
X1570230Y1219770D02*
X1580000Y1210000D01*
X1806000Y636000D02*
X1810000Y640000D01*
X1806000Y616000D02*
Y636000D01*
X1490000Y700000D02*
X1663500Y526500D01*
X1764674Y662157D02*
X1771319Y668801D01*
X1738843Y662157D02*
X1764674D01*
X1690000Y711000D02*
X1738843Y662157D01*
X1771319Y668801D02*
Y696168D01*
X1449900Y997464D02*
X1488100Y1035664D01*
X1449900Y860100D02*
Y997464D01*
X1400000Y720000D02*
X1438500Y681500D01*
X1236716Y750000D02*
X1460000D01*
X1213800Y772916D02*
X1236716Y750000D01*
X1855000Y742343D02*
Y1239585D01*
X1843157Y730500D02*
X1855000Y742343D01*
X1805651Y730500D02*
X1843157D01*
X1771319Y696168D02*
X1805651Y730500D01*
X1801716Y967300D02*
X1834500Y1000084D01*
Y1065700D01*
X1832157Y1068043D02*
X1834500Y1065700D01*
X1828843Y1068043D02*
X1832157D01*
X1690000Y1241000D02*
X1718200Y1269200D01*
X1841000Y995978D02*
Y1077263D01*
X1839452Y960489D02*
X1847500Y968537D01*
X1717501Y872479D02*
X1841000Y995978D01*
X1718200Y1269200D02*
X1825385D01*
X1855000Y1239585D01*
X1835563Y1082700D02*
X1841000Y1077263D01*
X1818100Y1057300D02*
X1828843Y1068043D01*
X1818100Y1082700D02*
X1835563D01*
X1717501Y814801D02*
Y872479D01*
X1672700Y770000D02*
X1717501Y814801D01*
X1780001Y967300D02*
X1801716D01*
X1839452Y879452D02*
Y960489D01*
X1780001Y820001D02*
X1839452Y879452D01*
X1706000Y1193000D02*
X1743800Y1230800D01*
X1693000Y1193000D02*
X1706000D01*
X1690000Y1190000D02*
X1693000Y1193000D01*
X1690000Y1241000D02*
X1728600D01*
X1743800Y1256200D01*
X1555764Y962700D02*
X1617300Y1024236D01*
X1538100Y962700D02*
X1555764D01*
X1780001Y812700D02*
Y820001D01*
X1449900Y860100D02*
X1461900Y848100D01*
X1488100Y1035664D02*
Y1121900D01*
X1461900Y988100D02*
X1491100Y1017300D01*
X1590000D01*
X1617300Y1024236D02*
Y1060000D01*
X999809Y930191D02*
X1010000Y920000D01*
X1460000Y720000D02*
Y750000D01*
X1132700Y670000D02*
X1226203D01*
X1237703Y681500D01*
X1328500D01*
X1340000Y670000D01*
X1088100Y582700D02*
X1106477Y564323D01*
Y555523D02*
Y564323D01*
Y555523D02*
X1127000Y535000D01*
X1088100Y582700D02*
X1100100Y594700D01*
X1047250Y702250D02*
X1065074D01*
X1100100Y594700D02*
Y667224D01*
X1035000Y690000D02*
X1047250Y702250D01*
X1065074D02*
X1100100Y667224D01*
X1060000Y585400D02*
Y690000D01*
Y585400D02*
X1088100Y557300D01*
X1153000Y542136D02*
Y585000D01*
X1090864Y480000D02*
X1153000Y542136D01*
X1042700Y480000D02*
X1090864D01*
X1280000Y585000D02*
X1365000Y670000D01*
X1373000Y628000D02*
X1415000Y670000D01*
X1433000Y585000D02*
Y660294D01*
X1440000Y667294D01*
X1253000Y585000D02*
X1280000D01*
X1373000D02*
Y628000D01*
X1490000Y648000D02*
Y670000D01*
Y648000D02*
X1553000Y585000D01*
X1465000Y613000D02*
Y670000D01*
Y613000D02*
X1493000Y585000D01*
X1440000Y667294D02*
Y670000D01*
X1313000Y585000D02*
X1388087Y660087D01*
Y668087D01*
X1390000Y670000D01*
X1213800Y772916D02*
Y834600D01*
X937364Y920000D02*
X1010000D01*
X837364Y1020000D02*
X937364Y920000D01*
X790000Y1020000D02*
X837364D01*
X780000Y1010000D02*
X790000Y1020000D01*
X850000Y933363D02*
Y981000D01*
X830000Y913363D02*
X850000Y933363D01*
X830000Y851000D02*
Y913363D01*
Y1001000D02*
X850000Y981000D01*
X1340000Y875000D02*
X1352250Y887250D01*
Y931375D01*
X1347000Y936625D02*
X1352250Y931375D01*
X1347000Y936625D02*
Y985000D01*
X1110000Y772700D02*
X1126500D01*
X1213800Y860000D01*
X655250Y895250D02*
Y934453D01*
X690524Y969726D02*
X704726D01*
X745000Y1010000D01*
X655250Y934453D02*
X690524Y969726D01*
X663500Y790000D02*
X678680D01*
X738940Y850260D01*
X759200Y830000D01*
X693800Y895400D02*
X738940Y850260D01*
X693800Y946200D02*
X733250D01*
X788050Y1001000D01*
X830000D01*
X770000Y895400D02*
Y920800D01*
X759200Y830000D02*
X776500D01*
D48*
X560000Y878250D02*
D03*
D49*
Y941750D02*
D03*
D50*
X1537300Y1260000D02*
D03*
X1594600D02*
D03*
D51*
X1550000D02*
D03*
X1562700D02*
D03*
X1607300D02*
D03*
X1620000D02*
D03*
D52*
X1741900Y1108100D02*
D03*
X1743800Y1256200D02*
D03*
X1411900Y1198100D02*
D03*
X1011900Y608100D02*
D03*
X1461900Y988100D02*
D03*
Y848100D02*
D03*
X1213800Y910800D02*
D03*
X693800Y946200D02*
D03*
D53*
X1741900Y1082700D02*
D03*
Y1057300D02*
D03*
Y1031900D02*
D03*
X1818100Y1108100D02*
D03*
Y1082700D02*
D03*
Y1057300D02*
D03*
Y1031900D02*
D03*
X1743800Y1230800D02*
D03*
Y1205400D02*
D03*
Y1180000D02*
D03*
X1820000Y1256200D02*
D03*
Y1230800D02*
D03*
Y1205400D02*
D03*
Y1180000D02*
D03*
X1411900Y1172700D02*
D03*
Y1147300D02*
D03*
Y1121900D02*
D03*
X1488100Y1198100D02*
D03*
Y1172700D02*
D03*
Y1147300D02*
D03*
Y1121900D02*
D03*
X1011900Y582700D02*
D03*
Y557300D02*
D03*
Y531900D02*
D03*
X1088100Y608100D02*
D03*
Y582700D02*
D03*
Y557300D02*
D03*
Y531900D02*
D03*
X1461900Y962700D02*
D03*
Y937300D02*
D03*
Y911900D02*
D03*
X1538100Y988100D02*
D03*
Y962700D02*
D03*
Y937300D02*
D03*
Y911900D02*
D03*
X1461900Y822700D02*
D03*
Y797300D02*
D03*
Y771900D02*
D03*
X1538100Y848100D02*
D03*
Y822700D02*
D03*
Y797300D02*
D03*
Y771900D02*
D03*
X1213800Y885400D02*
D03*
Y860000D02*
D03*
Y834600D02*
D03*
X1290000Y910800D02*
D03*
Y885400D02*
D03*
Y860000D02*
D03*
Y834600D02*
D03*
X693800Y920800D02*
D03*
Y895400D02*
D03*
Y870000D02*
D03*
X770000Y946200D02*
D03*
Y920800D02*
D03*
Y895400D02*
D03*
Y870000D02*
D03*
D54*
X440000Y820000D02*
D03*
D55*
X414600D02*
D03*
X389200D02*
D03*
D56*
X1660000Y1000000D02*
D03*
X990000Y1297657D02*
D03*
Y1200000D02*
D03*
Y1110000D02*
D03*
Y1130000D02*
D03*
X1030000Y1060000D02*
D03*
X1490000Y700000D02*
D03*
X1450000Y720000D02*
D03*
X1400000Y780000D02*
D03*
X1420000D02*
D03*
X1400000Y720000D02*
D03*
X1660000Y1110000D02*
D03*
X1460000Y720000D02*
D03*
Y750000D02*
D03*
X1450000Y780000D02*
D03*
X1010000Y920000D02*
D03*
Y890000D02*
D03*
Y940000D02*
D03*
M02*
