M48
;Layer_Color=9474304
;FILE_FORMAT=4:4
METRIC,LZ
;TYPE=PLATED
T1F00S00C0.3000
T2F00S00C0.7000
T3F00S00C0.7500
T4F00S00C0.8000
T5F00S00C0.9000
T6F00S00C0.9500
T7F00S00C1.0000
T8F00S00C1.3000
T9F00S00C1.3500
;TYPE=NON_PLATED
T10F00S00C4.0000
%
T01
X014Y0072
X0145
X0146
Y0075
X0145Y0078
X0142
X014
X0149Y007
X0101Y0089
Y0092
Y0094
X0103Y0106
X0099Y0111
Y0113
X0166Y0111
Y01
X0099Y012
Y01297657
T02
X0181Y0064
Y0066
Y0068
Y007
Y0072
X006Y0081
X0058
X0054
X0052
X0054Y0102
X0056
X0065
X0067
T03
X01227Y00535
X01287
X01347
X01407
X01467
X01527
X01553Y00585
X01493
X01433
X01373
X01313
X01253
X01153
X01127Y00535
X0064Y0088
X00666Y0093
X01047Y00985
X01107
X01167
X01133Y01035
X01073
X01193
X01253
X01313
X01373
X01347Y00985
X01287
X01227
T04
X01760319Y00673357
Y00693357
Y00713357
X0162Y0126
X016073
X015946
X015627
X0155
X015373
X0154Y0121
X0156
X0158
T05
X016173Y0048
X016635Y0051
X017765
X018273Y0077
X016727
X015381Y007719
X014619
X01385Y0078
X0136
X01335
X0131
X01285
X0126
X01235
X012873Y0067
X0134
X01365
X0139
X01415
X0144
X01465
X0149
X014627Y0048
X0141
X012554
X011973
X010427
X010119Y005319
Y005573
Y005827
Y006081
X010881
Y005827
Y005573
Y005319
X011327Y0067
X0111Y007727
X0116
X0106
X007765Y0079
X006635
Y0083
X006938Y0087
Y008954
Y009208
Y009462
X0077
Y009208
Y008954
Y0087
X007765Y0083
X0078Y0101
X00745
X0102Y011127
X0107
X0112
X0117
X0116Y009273
X0111
X0106
X012138Y009108
Y008854
Y0086
Y008346
X0129
Y0086
Y008854
Y009108
X014619Y009119
Y009373
Y009627
Y009881
X014627Y0106
X014881Y011219
Y011473
Y011727
X014119
Y011473
Y011219
X0137Y011135
X0132
X0127
X0122
X015381Y009881
Y009627
Y009373
Y009119
Y008481
Y008227
Y007973
X014619
Y008227
Y008481
X0159Y008627
X01680001Y008127
X01730001
X01780001
X0183Y008127
Y009673
X01780001Y009673
X01730001
X01680001
X017419Y010319
Y010573
Y010827
Y011081
X017438Y0118
X0182
X018181Y011081
Y010827
Y010573
Y010319
X016173Y0106
X0159Y010173
X017438Y012054
Y012308
Y012562
X0182
Y012308
Y012054
X014881Y011981
X014119
X0137Y012265
X0132
X0127
X0122
X012327Y0127
X013873
X0117Y012673
X0112
X0107
X0102
T06
X01444Y012662
X0147
X01496
T07
X016975Y0059525
X017225
X0106Y0069
X01035
X003892Y0082
X004146
X0044
X0134Y00875
Y009
X01545Y0114
X0157
X0168475Y010825
Y010575
T08
X0169Y0066
Y006855
Y00711
X0056Y0087825
Y0094175
X0083Y0095
Y009755
Y01001
Y00851
Y008255
Y008
X0169Y0119
Y012155
Y01241
T09
X003893Y01
X0041465
X0044
T10
X0159Y0069
X0185Y0047
X0101Y0077
X0092
X00495037Y00770845
X005Y0106
X0092
X0185Y0128
M30
